<svg width="288" height="190" viewBox="0 0 288 190" fill="none" xmlns="http://www.w3.org/2000/svg">
<rect width="288" height="190" rx="5" fill="#F2EBF2"/>
<path opacity="0.5" d="M51.5449 30.1016V38.2461C51.2422 38.6465 50.7686 39.0859 50.124 39.5645C49.4893 40.0332 48.6445 40.4385 47.5898 40.7803C46.5352 41.1221 45.2217 41.293 43.6494 41.293C42.3115 41.293 41.0859 41.0684 39.9727 40.6191C38.8594 40.1602 37.8975 39.4912 37.0869 38.6123C36.2861 37.7334 35.666 36.6641 35.2266 35.4043C34.7871 34.1348 34.5674 32.6895 34.5674 31.0684V29.5889C34.5674 27.9775 34.7676 26.542 35.168 25.2822C35.5781 24.0127 36.1641 22.9385 36.9258 22.0596C37.6875 21.1807 38.6055 20.5166 39.6797 20.0674C40.7637 19.6084 41.9893 19.3789 43.3564 19.3789C45.1045 19.3789 46.5498 19.6719 47.6924 20.2578C48.8447 20.834 49.7334 21.6348 50.3584 22.6602C50.9834 23.6855 51.3789 24.8574 51.5449 26.1758H47.9414C47.8242 25.4336 47.5947 24.7695 47.2529 24.1836C46.9209 23.5977 46.4424 23.1387 45.8174 22.8066C45.2021 22.4648 44.4014 22.2939 43.415 22.2939C42.5654 22.2939 41.8184 22.4551 41.1738 22.7773C40.5293 23.0996 39.9922 23.5732 39.5625 24.1982C39.1426 24.8232 38.8252 25.585 38.6104 26.4834C38.3955 27.3818 38.2881 28.4072 38.2881 29.5596V31.0684C38.2881 32.2402 38.4102 33.2803 38.6543 34.1885C38.9082 35.0967 39.2695 35.8633 39.7383 36.4883C40.2168 37.1133 40.7979 37.5869 41.4814 37.9092C42.165 38.2217 42.9365 38.3779 43.7959 38.3779C44.6357 38.3779 45.3242 38.3096 45.8613 38.1729C46.3984 38.0264 46.8232 37.8555 47.1357 37.6602C47.458 37.4551 47.707 37.2598 47.8828 37.0742V32.8408H43.4443V30.1016H51.5449ZM57.9949 25.1504V41H54.45V25.1504H57.9949ZM54.2156 20.9902C54.2156 20.4531 54.3914 20.0088 54.743 19.6572C55.1043 19.2959 55.6023 19.1152 56.2371 19.1152C56.8621 19.1152 57.3553 19.2959 57.7166 19.6572C58.0779 20.0088 58.2586 20.4531 58.2586 20.9902C58.2586 21.5176 58.0779 21.957 57.7166 22.3086C57.3553 22.6602 56.8621 22.8359 56.2371 22.8359C55.6023 22.8359 55.1043 22.6602 54.743 22.3086C54.3914 21.957 54.2156 21.5176 54.2156 20.9902ZM65.9684 38.2021L69.8502 25.1504H73.5123L68.0045 41H65.7193L65.9684 38.2021ZM62.9947 25.1504L66.9498 38.2607L67.1402 41H64.8551L59.318 25.1504H62.9947ZM81.4271 41.293C80.2553 41.293 79.1957 41.1025 78.2484 40.7217C77.3109 40.3311 76.5102 39.7891 75.8461 39.0957C75.1918 38.4023 74.6889 37.5869 74.3373 36.6494C73.9857 35.7119 73.81 34.7012 73.81 33.6172V33.0312C73.81 31.791 73.9906 30.668 74.352 29.6621C74.7133 28.6562 75.2162 27.7969 75.8607 27.084C76.5053 26.3613 77.267 25.8096 78.1459 25.4287C79.0248 25.0479 79.977 24.8574 81.0023 24.8574C82.1352 24.8574 83.1264 25.0479 83.976 25.4287C84.8256 25.8096 85.5287 26.3467 86.0854 27.04C86.6518 27.7236 87.0717 28.5391 87.3451 29.4863C87.6283 30.4336 87.7699 31.4785 87.7699 32.6211V34.1299H75.5238V31.5957H84.2836V31.3174C84.2641 30.6826 84.1371 30.0869 83.9027 29.5303C83.6781 28.9736 83.3314 28.5244 82.8627 28.1826C82.3939 27.8408 81.7689 27.6699 80.9877 27.6699C80.4018 27.6699 79.8793 27.7969 79.4203 28.0508C78.9711 28.2949 78.5951 28.6514 78.2924 29.1201C77.9896 29.5889 77.7553 30.1553 77.5893 30.8193C77.433 31.4736 77.3549 32.2109 77.3549 33.0312V33.6172C77.3549 34.3105 77.4477 34.9551 77.6332 35.5508C77.8285 36.1367 78.1117 36.6494 78.4828 37.0889C78.8539 37.5283 79.3031 37.875 79.8305 38.1289C80.3578 38.373 80.9584 38.4951 81.6322 38.4951C82.4818 38.4951 83.2387 38.3242 83.9027 37.9824C84.5668 37.6406 85.143 37.1572 85.6312 36.5322L87.4916 38.334C87.1498 38.832 86.7055 39.3105 86.1586 39.7695C85.6117 40.2188 84.9428 40.585 84.1518 40.8682C83.3705 41.1514 82.4623 41.293 81.4271 41.293ZM98.4094 37.8213V30.2627C98.4094 29.6963 98.3068 29.208 98.1018 28.7979C97.8967 28.3877 97.5842 28.0703 97.1643 27.8457C96.7541 27.6211 96.2365 27.5088 95.6115 27.5088C95.0354 27.5088 94.5373 27.6064 94.1174 27.8018C93.6975 27.9971 93.3703 28.2607 93.1359 28.5928C92.9016 28.9248 92.7844 29.3008 92.7844 29.7207H89.2687C89.2687 29.0957 89.4201 28.4902 89.7229 27.9043C90.0256 27.3184 90.465 26.7959 91.0412 26.3369C91.6174 25.8779 92.3059 25.5166 93.1066 25.2529C93.9074 24.9893 94.8059 24.8574 95.802 24.8574C96.9934 24.8574 98.048 25.0576 98.966 25.458C99.8937 25.8584 100.621 26.4639 101.149 27.2744C101.686 28.0752 101.954 29.0811 101.954 30.292V37.3379C101.954 38.0605 102.003 38.71 102.101 39.2861C102.208 39.8525 102.36 40.3457 102.555 40.7656V41H98.9367C98.7707 40.6191 98.6389 40.1357 98.5412 39.5498C98.4533 38.9541 98.4094 38.3779 98.4094 37.8213ZM98.9221 31.3613L98.9514 33.5439H96.4172C95.7629 33.5439 95.1867 33.6074 94.6887 33.7344C94.1906 33.8516 93.7756 34.0273 93.4436 34.2617C93.1115 34.4961 92.8625 34.7793 92.6965 35.1113C92.5305 35.4434 92.4475 35.8193 92.4475 36.2393C92.4475 36.6592 92.5451 37.0449 92.7404 37.3965C92.9357 37.7383 93.2189 38.0068 93.59 38.2021C93.9709 38.3975 94.4299 38.4951 94.967 38.4951C95.6896 38.4951 96.3195 38.3486 96.8566 38.0557C97.4035 37.7529 97.8332 37.3867 98.1457 36.957C98.4582 36.5176 98.6242 36.1025 98.6437 35.7119L99.7863 37.2793C99.6691 37.6797 99.4689 38.1094 99.1857 38.5684C98.9025 39.0273 98.5314 39.4668 98.0725 39.8867C97.6232 40.2969 97.0812 40.6338 96.4465 40.8975C95.8215 41.1611 95.0988 41.293 94.2785 41.293C93.2434 41.293 92.3205 41.0879 91.51 40.6777C90.6994 40.2578 90.0646 39.6963 89.6057 38.9932C89.1467 38.2803 88.9172 37.4746 88.9172 36.5762C88.9172 35.7363 89.0734 34.9941 89.3859 34.3496C89.7082 33.6953 90.177 33.1484 90.7922 32.709C91.4172 32.2695 92.1789 31.9375 93.0773 31.7129C93.9758 31.4785 95.0012 31.3613 96.1535 31.3613H98.9221ZM108.902 37.4844L112.564 25.1504H114.82L114.205 28.8418L110.514 41H108.492L108.902 37.4844ZM106.749 25.1504L109.605 37.543L109.84 41H107.584L103.292 25.1504H106.749ZM118.248 37.3965L121.017 25.1504H124.459L120.182 41H117.926L118.248 37.3965ZM115.201 25.1504L118.819 37.3379L119.273 41H117.252L113.517 28.8271L112.901 25.1504H115.201ZM134.747 37.8213V30.2627C134.747 29.6963 134.644 29.208 134.439 28.7979C134.234 28.3877 133.922 28.0703 133.502 27.8457C133.092 27.6211 132.574 27.5088 131.949 27.5088C131.373 27.5088 130.875 27.6064 130.455 27.8018C130.035 27.9971 129.708 28.2607 129.473 28.5928C129.239 28.9248 129.122 29.3008 129.122 29.7207H125.606C125.606 29.0957 125.758 28.4902 126.06 27.9043C126.363 27.3184 126.803 26.7959 127.379 26.3369C127.955 25.8779 128.643 25.5166 129.444 25.2529C130.245 24.9893 131.143 24.8574 132.139 24.8574C133.331 24.8574 134.386 25.0576 135.304 25.458C136.231 25.8584 136.959 26.4639 137.486 27.2744C138.023 28.0752 138.292 29.0811 138.292 30.292V37.3379C138.292 38.0605 138.341 38.71 138.438 39.2861C138.546 39.8525 138.697 40.3457 138.892 40.7656V41H135.274C135.108 40.6191 134.976 40.1357 134.879 39.5498C134.791 38.9541 134.747 38.3779 134.747 37.8213ZM135.26 31.3613L135.289 33.5439H132.755C132.1 33.5439 131.524 33.6074 131.026 33.7344C130.528 33.8516 130.113 34.0273 129.781 34.2617C129.449 34.4961 129.2 34.7793 129.034 35.1113C128.868 35.4434 128.785 35.8193 128.785 36.2393C128.785 36.6592 128.883 37.0449 129.078 37.3965C129.273 37.7383 129.556 38.0068 129.928 38.2021C130.308 38.3975 130.767 38.4951 131.304 38.4951C132.027 38.4951 132.657 38.3486 133.194 38.0557C133.741 37.7529 134.171 37.3867 134.483 36.957C134.796 36.5176 134.962 36.1025 134.981 35.7119L136.124 37.2793C136.007 37.6797 135.806 38.1094 135.523 38.5684C135.24 39.0273 134.869 39.4668 134.41 39.8867C133.961 40.2969 133.419 40.6338 132.784 40.8975C132.159 41.1611 131.436 41.293 130.616 41.293C129.581 41.293 128.658 41.0879 127.847 40.6777C127.037 40.2578 126.402 39.6963 125.943 38.9932C125.484 38.2803 125.255 37.4746 125.255 36.5762C125.255 35.7363 125.411 34.9941 125.723 34.3496C126.046 33.6953 126.514 33.1484 127.13 32.709C127.755 32.2695 128.516 31.9375 129.415 31.7129C130.313 31.4785 131.339 31.3613 132.491 31.3613H135.26ZM145.298 39.2715L149.605 25.1504H153.384L147.027 43.417C146.88 43.8076 146.69 44.2324 146.456 44.6914C146.221 45.1504 145.914 45.585 145.533 45.9951C145.162 46.415 144.698 46.752 144.141 47.0059C143.585 47.2695 142.911 47.4014 142.12 47.4014C141.807 47.4014 141.504 47.3721 141.212 47.3135C140.928 47.2646 140.66 47.2109 140.406 47.1523L140.391 44.457C140.489 44.4668 140.606 44.4766 140.743 44.4863C140.889 44.4961 141.006 44.501 141.094 44.501C141.68 44.501 142.169 44.4277 142.559 44.2812C142.95 44.1445 143.267 43.9199 143.511 43.6074C143.765 43.2949 143.98 42.875 144.156 42.3477L145.298 39.2715ZM142.867 25.1504L146.631 37.0156L147.261 40.7363L144.815 41.3662L139.058 25.1504H142.867Z" fill="black"/>
<rect x="246.193" y="137.06" width="23.2258" height="23.75" rx="11.6129" fill="#0F0D76"/>
<path d="M254.009 156.965C254.128 157.057 254.269 157.129 254.423 157.177C254.576 157.225 254.741 157.247 254.906 157.243C255.072 157.239 255.235 157.209 255.387 157.154C255.538 157.099 255.675 157.02 255.79 156.923L263.997 149.948C264.088 149.87 264.16 149.779 264.209 149.679C264.257 149.579 264.28 149.473 264.278 149.366C264.275 149.259 264.247 149.154 264.194 149.056C264.142 148.959 264.066 148.871 263.971 148.798L255.455 142.221C254.953 141.833 254.158 141.852 253.674 142.264C253.19 142.675 253.205 143.319 253.707 143.707L261.126 149.445L253.966 155.53C253.492 155.933 253.507 156.585 254.009 156.965Z" fill="white"/>
<path d="M180.333 162.688H57.6668C49.2335 162.688 42.3335 158.75 42.3335 153.938V108.219C42.3335 105.375 44.6335 102.75 48.8502 101L119 73L189.15 101C193.367 102.531 195.667 105.375 195.667 108.219V153.938C195.667 158.75 188.767 162.688 180.333 162.688Z" fill="#78909C"/>
<path d="M80.6665 75.1875H157.333V143H80.6665V75.1875Z" fill="#AED581"/>
<path d="M76.8335 73V145.188H161.167V73H76.8335ZM153.5 140.812H84.5002V77.375H153.5V140.812Z" fill="#558B2F"/>
<path d="M157.334 79.5625C157.334 83.2813 156.184 86.125 149.667 86.125C143.15 86.125 138.167 83.2813 138.167 79.5625C138.167 75.8437 143.15 75.1875 149.667 75.1875C156.184 75.1875 157.334 75.8437 157.334 79.5625Z" fill="#558B2F"/>
<path d="M88.3337 75.1875C94.8503 75.1875 99.8337 75.8437 99.8337 79.5625C99.8337 83.2813 94.8503 86.125 88.3337 86.125C81.817 86.125 80.667 83.2813 80.667 79.5625C80.667 75.8437 81.817 75.1875 88.3337 75.1875Z" fill="#558B2F"/>
<path d="M119 94.875C123.234 94.875 126.667 92.9162 126.667 90.5C126.667 88.0838 123.234 86.125 119 86.125C114.766 86.125 111.333 88.0838 111.333 90.5C111.333 92.9162 114.766 94.875 119 94.875Z" fill="#558B2F"/>
<path d="M119 129.875C131.703 129.875 142 123.999 142 116.75C142 109.501 131.703 103.625 119 103.625C106.297 103.625 96 109.501 96 116.75C96 123.999 106.297 129.875 119 129.875Z" fill="#558B2F"/>
<path d="M180.333 162.688H57.6668C49.2335 162.688 42.3335 158.75 42.3335 153.938V110.188L119 138.625L195.667 110.188V153.938C195.667 158.75 188.767 162.688 180.333 162.688Z" fill="#CFD8DC"/>
</svg>
