<svg width="100" height="38" viewBox="0 0 100 38" fill="none" xmlns="http://www.w3.org/2000/svg">
<rect x="0.5" y="0.5" width="99" height="37" rx="4.5" fill="white" stroke="#2D258E"/>
<path d="M24 19.0546L16.5187 29L9 19.1507C9.09047 17.7687 9.89316 16.6819 10.8786 16.6787L12.5491 16.6676L12.5071 12.7683C12.5041 12.0429 12.7529 11.3459 13.1988 10.8303C13.6447 10.3146 14.2512 10.0225 14.8852 10.018L17.9856 10C18.2995 9.99816 18.6106 10.0671 18.9012 10.2028C19.1917 10.3385 19.4561 10.5384 19.6791 10.7911C19.9022 11.0438 20.0795 11.3442 20.201 11.6753C20.3225 12.0064 20.3858 12.3616 20.3872 12.7207L20.4292 16.6201L22.0987 16.609C23.0815 16.6032 23.8957 17.6757 24 19.0546" fill="#2D258E"/>
<path d="M34.8887 7.04688H38.6006C39.3617 7.04688 40.0156 7.16081 40.5625 7.38867C41.1139 7.61654 41.5378 7.95378 41.834 8.40039C42.1302 8.84701 42.2783 9.39616 42.2783 10.0479C42.2783 10.5811 42.1872 11.0391 42.0049 11.4219C41.8271 11.8001 41.5742 12.1169 41.2461 12.3721C40.9225 12.6227 40.542 12.8232 40.1045 12.9736L39.4551 13.3154H36.2285L36.2148 11.7158H38.6143C38.9743 11.7158 39.2728 11.652 39.5098 11.5244C39.7467 11.3968 39.9245 11.2191 40.043 10.9912C40.166 10.7633 40.2275 10.499 40.2275 10.1982C40.2275 9.87923 40.1683 9.60352 40.0498 9.37109C39.9313 9.13867 39.7513 8.96094 39.5098 8.83789C39.2682 8.71484 38.9652 8.65332 38.6006 8.65332H36.9395V17H34.8887V7.04688ZM40.4531 17L38.1836 12.5635L40.3506 12.5498L42.6475 16.9043V17H40.4531ZM46.7887 17.1367C46.2145 17.1367 45.6995 17.0456 45.2437 16.8633C44.788 16.6764 44.4007 16.4189 44.0816 16.0908C43.7672 15.7627 43.5257 15.3822 43.357 14.9492C43.1884 14.5117 43.1041 14.0469 43.1041 13.5547V13.2812C43.1041 12.7207 43.1839 12.208 43.3434 11.7432C43.5029 11.2783 43.7307 10.875 44.027 10.5332C44.3277 10.1914 44.6923 9.92936 45.1207 9.74707C45.5491 9.56022 46.0322 9.4668 46.5699 9.4668C47.094 9.4668 47.5589 9.55339 47.9645 9.72656C48.3701 9.89974 48.7096 10.1458 48.983 10.4648C49.261 10.7839 49.4706 11.1667 49.6119 11.6133C49.7532 12.0553 49.8238 12.5475 49.8238 13.0898V13.9102H43.9449V12.5977H47.8893V12.4473C47.8893 12.1738 47.8391 11.93 47.7389 11.7158C47.6432 11.4971 47.4973 11.3239 47.3014 11.1963C47.1054 11.0687 46.8548 11.0049 46.5494 11.0049C46.2896 11.0049 46.0663 11.0618 45.8795 11.1758C45.6926 11.2897 45.54 11.4492 45.4215 11.6543C45.3076 11.8594 45.221 12.1009 45.1617 12.3789C45.107 12.6523 45.0797 12.9531 45.0797 13.2812V13.5547C45.0797 13.8509 45.1207 14.1243 45.2027 14.375C45.2893 14.6257 45.4101 14.8421 45.565 15.0244C45.7245 15.2067 45.916 15.348 46.1393 15.4482C46.3671 15.5485 46.6246 15.5986 46.9117 15.5986C47.2672 15.5986 47.5976 15.5303 47.9029 15.3936C48.2128 15.2523 48.4794 15.0404 48.7027 14.7578L49.6598 15.7969C49.5048 16.0202 49.2929 16.2344 49.024 16.4395C48.7597 16.6445 48.4407 16.8132 48.067 16.9453C47.6933 17.0729 47.2672 17.1367 46.7887 17.1367ZM53.6506 15.5986C53.8921 15.5986 54.1063 15.5531 54.2932 15.4619C54.48 15.3662 54.6258 15.234 54.7307 15.0654C54.84 14.8923 54.897 14.6895 54.9016 14.457H56.7541C56.7495 14.9766 56.6105 15.4391 56.3371 15.8447C56.0637 16.2458 55.6968 16.5625 55.2365 16.7949C54.7762 17.0228 54.2613 17.1367 53.6916 17.1367C53.1174 17.1367 52.6161 17.041 52.1877 16.8496C51.7639 16.6582 51.4107 16.3939 51.1281 16.0566C50.8456 15.7148 50.6337 15.3184 50.4924 14.8672C50.3511 14.4115 50.2805 13.9238 50.2805 13.4043V13.2061C50.2805 12.682 50.3511 12.1943 50.4924 11.7432C50.6337 11.2874 50.8456 10.891 51.1281 10.5537C51.4107 10.2119 51.7639 9.94531 52.1877 9.75391C52.6115 9.5625 53.1083 9.4668 53.6779 9.4668C54.284 9.4668 54.815 9.58301 55.2707 9.81543C55.731 10.0479 56.091 10.3805 56.3508 10.8135C56.6151 11.2419 56.7495 11.75 56.7541 12.3379H54.9016C54.897 12.0918 54.8446 11.8685 54.7443 11.668C54.6486 11.4674 54.5074 11.3079 54.3205 11.1895C54.1382 11.0664 53.9126 11.0049 53.6438 11.0049C53.3566 11.0049 53.1219 11.0664 52.9396 11.1895C52.7574 11.3079 52.6161 11.472 52.5158 11.6816C52.4156 11.8867 52.3449 12.1214 52.3039 12.3857C52.2674 12.6455 52.2492 12.9189 52.2492 13.2061V13.4043C52.2492 13.6914 52.2674 13.9671 52.3039 14.2314C52.3404 14.4958 52.4087 14.7305 52.509 14.9355C52.6138 15.1406 52.7574 15.3024 52.9396 15.4209C53.1219 15.5394 53.3589 15.5986 53.6506 15.5986ZM60.95 17.1367C60.3758 17.1367 59.8608 17.0456 59.4051 16.8633C58.9493 16.6764 58.562 16.4189 58.243 16.0908C57.9285 15.7627 57.687 15.3822 57.5184 14.9492C57.3497 14.5117 57.2654 14.0469 57.2654 13.5547V13.2812C57.2654 12.7207 57.3452 12.208 57.5047 11.7432C57.6642 11.2783 57.8921 10.875 58.1883 10.5332C58.4891 10.1914 58.8536 9.92936 59.282 9.74707C59.7104 9.56022 60.1935 9.4668 60.7313 9.4668C61.2553 9.4668 61.7202 9.55339 62.1258 9.72656C62.5314 9.89974 62.8709 10.1458 63.1443 10.4648C63.4223 10.7839 63.632 11.1667 63.7732 11.6133C63.9145 12.0553 63.9852 12.5475 63.9852 13.0898V13.9102H58.1063V12.5977H62.0506V12.4473C62.0506 12.1738 62.0005 11.93 61.9002 11.7158C61.8045 11.4971 61.6587 11.3239 61.4627 11.1963C61.2667 11.0687 61.0161 11.0049 60.7107 11.0049C60.451 11.0049 60.2277 11.0618 60.0408 11.1758C59.854 11.2897 59.7013 11.4492 59.5828 11.6543C59.4689 11.8594 59.3823 12.1009 59.323 12.3789C59.2684 12.6523 59.241 12.9531 59.241 13.2812V13.5547C59.241 13.8509 59.282 14.1243 59.3641 14.375C59.4507 14.6257 59.5714 14.8421 59.7264 15.0244C59.8859 15.2067 60.0773 15.348 60.3006 15.4482C60.5285 15.5485 60.7859 15.5986 61.073 15.5986C61.4285 15.5986 61.7589 15.5303 62.0643 15.3936C62.3742 15.2523 62.6408 15.0404 62.8641 14.7578L63.8211 15.7969C63.6661 16.0202 63.4542 16.2344 63.1854 16.4395C62.921 16.6445 62.602 16.8132 62.2283 16.9453C61.8546 17.0729 61.4285 17.1367 60.95 17.1367ZM66.8344 9.60352V17H64.8588V9.60352H66.8344ZM64.7357 7.67578C64.7357 7.38867 64.836 7.15169 65.0365 6.96484C65.237 6.77799 65.5059 6.68457 65.8432 6.68457C66.1758 6.68457 66.4424 6.77799 66.643 6.96484C66.848 7.15169 66.9506 7.38867 66.9506 7.67578C66.9506 7.96289 66.848 8.19987 66.643 8.38672C66.4424 8.57357 66.1758 8.66699 65.8432 8.66699C65.5059 8.66699 65.237 8.57357 65.0365 8.38672C64.836 8.19987 64.7357 7.96289 64.7357 7.67578ZM70.627 15.5645L72.2676 9.60352H74.3252L71.8301 17H70.5859L70.627 15.5645ZM69.499 9.60352L71.1465 15.5713L71.1807 17H69.9297L67.4346 9.60352H69.499ZM78.1656 17.1367C77.5914 17.1367 77.0764 17.0456 76.6207 16.8633C76.165 16.6764 75.7776 16.4189 75.4586 16.0908C75.1441 15.7627 74.9026 15.3822 74.734 14.9492C74.5654 14.5117 74.4811 14.0469 74.4811 13.5547V13.2812C74.4811 12.7207 74.5608 12.208 74.7203 11.7432C74.8798 11.2783 75.1077 10.875 75.4039 10.5332C75.7047 10.1914 76.0693 9.92936 76.4977 9.74707C76.926 9.56022 77.4091 9.4668 77.9469 9.4668C78.471 9.4668 78.9358 9.55339 79.3414 9.72656C79.747 9.89974 80.0865 10.1458 80.36 10.4648C80.638 10.7839 80.8476 11.1667 80.9889 11.6133C81.1301 12.0553 81.2008 12.5475 81.2008 13.0898V13.9102H75.3219V12.5977H79.2662V12.4473C79.2662 12.1738 79.2161 11.93 79.1158 11.7158C79.0201 11.4971 78.8743 11.3239 78.6783 11.1963C78.4824 11.0687 78.2317 11.0049 77.9264 11.0049C77.6666 11.0049 77.4433 11.0618 77.2564 11.1758C77.0696 11.2897 76.9169 11.4492 76.7984 11.6543C76.6845 11.8594 76.5979 12.1009 76.5387 12.3789C76.484 12.6523 76.4566 12.9531 76.4566 13.2812V13.5547C76.4566 13.8509 76.4977 14.1243 76.5797 14.375C76.6663 14.6257 76.787 14.8421 76.942 15.0244C77.1015 15.2067 77.2929 15.348 77.5162 15.4482C77.7441 15.5485 78.0016 15.5986 78.2887 15.5986C78.6441 15.5986 78.9745 15.5303 79.2799 15.3936C79.5898 15.2523 79.8564 15.0404 80.0797 14.7578L81.0367 15.7969C80.8818 16.0202 80.6699 16.2344 80.401 16.4395C80.1367 16.6445 79.8176 16.8132 79.4439 16.9453C79.0702 17.0729 78.6441 17.1367 78.1656 17.1367ZM37.8213 28.5986C38.0628 28.5986 38.277 28.5531 38.4639 28.4619C38.6507 28.3662 38.7965 28.234 38.9014 28.0654C39.0107 27.8923 39.0677 27.6895 39.0723 27.457H40.9248C40.9202 27.9766 40.7812 28.4391 40.5078 28.8447C40.2344 29.2458 39.8675 29.5625 39.4072 29.7949C38.9469 30.0228 38.432 30.1367 37.8623 30.1367C37.2881 30.1367 36.7868 30.041 36.3584 29.8496C35.9346 29.6582 35.5814 29.3939 35.2988 29.0566C35.0163 28.7148 34.8044 28.3184 34.6631 27.8672C34.5218 27.4115 34.4512 26.9238 34.4512 26.4043V26.2061C34.4512 25.682 34.5218 25.1943 34.6631 24.7432C34.8044 24.2874 35.0163 23.891 35.2988 23.5537C35.5814 23.2119 35.9346 22.9453 36.3584 22.7539C36.7822 22.5625 37.279 22.4668 37.8486 22.4668C38.4548 22.4668 38.9857 22.583 39.4414 22.8154C39.9017 23.0479 40.2617 23.3805 40.5215 23.8135C40.7858 24.2419 40.9202 24.75 40.9248 25.3379H39.0723C39.0677 25.0918 39.0153 24.8685 38.915 24.668C38.8193 24.4674 38.6781 24.3079 38.4912 24.1895C38.3089 24.0664 38.0833 24.0049 37.8145 24.0049C37.5273 24.0049 37.2926 24.0664 37.1104 24.1895C36.9281 24.3079 36.7868 24.472 36.6865 24.6816C36.5863 24.8867 36.5156 25.1214 36.4746 25.3857C36.4382 25.6455 36.4199 25.9189 36.4199 26.2061V26.4043C36.4199 26.6914 36.4382 26.9671 36.4746 27.2314C36.5111 27.4958 36.5794 27.7305 36.6797 27.9355C36.7845 28.1406 36.9281 28.3024 37.1104 28.4209C37.2926 28.5394 37.5296 28.5986 37.8213 28.5986ZM43.6852 24.2168V30H41.7164V22.6035H43.5689L43.6852 24.2168ZM45.9137 22.5557L45.8795 24.3809C45.7838 24.3672 45.6676 24.3558 45.5309 24.3467C45.3987 24.333 45.2779 24.3262 45.1686 24.3262C44.8906 24.3262 44.649 24.3626 44.4439 24.4355C44.2434 24.5039 44.0748 24.6064 43.9381 24.7432C43.8059 24.8799 43.7057 25.0462 43.6373 25.2422C43.5735 25.4382 43.537 25.6615 43.5279 25.9121L43.1314 25.7891C43.1314 25.3105 43.1793 24.8708 43.275 24.4697C43.3707 24.0641 43.5097 23.7109 43.692 23.4102C43.8788 23.1094 44.1067 22.877 44.3756 22.7129C44.6445 22.5488 44.9521 22.4668 45.2984 22.4668C45.4078 22.4668 45.5195 22.4759 45.6334 22.4941C45.7473 22.5078 45.8408 22.5283 45.9137 22.5557ZM48.8107 29.166L50.7727 22.6035H52.885L49.9113 31.1143C49.8475 31.3011 49.7609 31.5016 49.6516 31.7158C49.5467 31.93 49.4032 32.1328 49.2209 32.3242C49.0432 32.5202 48.8176 32.6797 48.5441 32.8027C48.2753 32.9258 47.9449 32.9873 47.5529 32.9873C47.3661 32.9873 47.2134 32.9759 47.0949 32.9531C46.9764 32.9303 46.8352 32.8984 46.6711 32.8574V31.415C46.7212 31.415 46.7736 31.415 46.8283 31.415C46.883 31.4196 46.9354 31.4219 46.9855 31.4219C47.2453 31.4219 47.4572 31.3923 47.6213 31.333C47.7854 31.2738 47.9175 31.1826 48.0178 31.0596C48.118 30.9411 48.1978 30.7861 48.257 30.5947L48.8107 29.166ZM47.9904 22.6035L49.5969 27.9629L49.8771 30.0479L48.5373 30.1914L45.8781 22.6035H47.9904ZM55.2898 24.0254V32.8438H53.3211V22.6035H55.1463L55.2898 24.0254ZM59.9725 26.2197V26.3633C59.9725 26.901 59.9087 27.4001 59.7811 27.8604C59.658 28.3206 59.4757 28.7217 59.2342 29.0635C58.9926 29.4007 58.6919 29.665 58.3318 29.8564C57.9764 30.0433 57.5662 30.1367 57.1014 30.1367C56.6502 30.1367 56.2583 30.0456 55.9256 29.8633C55.5929 29.681 55.3126 29.4258 55.0848 29.0977C54.8615 28.765 54.6814 28.3799 54.5447 27.9424C54.408 27.5049 54.3032 27.0355 54.2303 26.5342V26.1582C54.3032 25.6204 54.408 25.1283 54.5447 24.6816C54.6814 24.2305 54.8615 23.8408 55.0848 23.5127C55.3126 23.18 55.5906 22.9225 55.9188 22.7402C56.2514 22.5579 56.6411 22.4668 57.0877 22.4668C57.5571 22.4668 57.9695 22.5557 58.325 22.7334C58.685 22.9111 58.9858 23.1663 59.2273 23.499C59.4734 23.8317 59.658 24.2282 59.7811 24.6885C59.9087 25.1488 59.9725 25.6592 59.9725 26.2197ZM57.9969 26.3633V26.2197C57.9969 25.9053 57.9695 25.6159 57.9148 25.3516C57.8647 25.0827 57.7827 24.848 57.6688 24.6475C57.5594 24.4469 57.4135 24.292 57.2313 24.1826C57.0535 24.0687 56.837 24.0117 56.5818 24.0117C56.313 24.0117 56.0828 24.055 55.8914 24.1416C55.7046 24.2282 55.5519 24.3535 55.4334 24.5176C55.3149 24.6816 55.226 24.8776 55.1668 25.1055C55.1076 25.3333 55.0711 25.5908 55.0574 25.8779V26.8281C55.0802 27.1654 55.144 27.4684 55.2488 27.7373C55.3536 28.0016 55.5154 28.2113 55.7342 28.3662C55.9529 28.5212 56.24 28.5986 56.5955 28.5986C56.8553 28.5986 57.074 28.5417 57.2518 28.4277C57.4295 28.3092 57.573 28.1475 57.6824 27.9424C57.7964 27.7373 57.8761 27.5003 57.9217 27.2314C57.9718 26.9626 57.9969 26.6732 57.9969 26.3633ZM64.4691 22.6035V23.998H60.1625V22.6035H64.4691ZM61.2289 20.7783H63.1977V27.7715C63.1977 27.9857 63.225 28.1497 63.2797 28.2637C63.3389 28.3776 63.4255 28.4574 63.5395 28.5029C63.6534 28.5439 63.7969 28.5645 63.9701 28.5645C64.0932 28.5645 64.2025 28.5599 64.2982 28.5508C64.3985 28.5371 64.4828 28.5234 64.5512 28.5098L64.558 29.959C64.3894 30.0137 64.2071 30.057 64.0111 30.0889C63.8152 30.1208 63.5987 30.1367 63.3617 30.1367C62.9288 30.1367 62.5505 30.0661 62.227 29.9248C61.9079 29.779 61.6618 29.5465 61.4887 29.2275C61.3155 28.9085 61.2289 28.4893 61.2289 27.9697V20.7783ZM64.748 26.377V26.2334C64.748 25.6911 64.8255 25.1921 64.9805 24.7363C65.1354 24.276 65.361 23.8773 65.6572 23.54C65.9535 23.2028 66.318 22.9408 66.751 22.7539C67.1839 22.5625 67.6807 22.4668 68.2412 22.4668C68.8018 22.4668 69.3008 22.5625 69.7383 22.7539C70.1758 22.9408 70.5426 23.2028 70.8389 23.54C71.1396 23.8773 71.3675 24.276 71.5225 24.7363C71.6774 25.1921 71.7549 25.6911 71.7549 26.2334V26.377C71.7549 26.9147 71.6774 27.4137 71.5225 27.874C71.3675 28.3298 71.1396 28.7285 70.8389 29.0703C70.5426 29.4076 70.1781 29.6696 69.7451 29.8564C69.3122 30.0433 68.8154 30.1367 68.2549 30.1367C67.6943 30.1367 67.1953 30.0433 66.7578 29.8564C66.3249 29.6696 65.958 29.4076 65.6572 29.0703C65.361 28.7285 65.1354 28.3298 64.9805 27.874C64.8255 27.4137 64.748 26.9147 64.748 26.377ZM66.7168 26.2334V26.377C66.7168 26.6868 66.7441 26.9762 66.7988 27.2451C66.8535 27.514 66.9401 27.751 67.0586 27.9561C67.1816 28.1566 67.3411 28.3138 67.5371 28.4277C67.7331 28.5417 67.9723 28.5986 68.2549 28.5986C68.5283 28.5986 68.763 28.5417 68.959 28.4277C69.1549 28.3138 69.3122 28.1566 69.4307 27.9561C69.5492 27.751 69.6357 27.514 69.6904 27.2451C69.7497 26.9762 69.7793 26.6868 69.7793 26.377V26.2334C69.7793 25.9326 69.7497 25.6501 69.6904 25.3857C69.6357 25.1169 69.5469 24.8799 69.4238 24.6748C69.3053 24.4652 69.1481 24.3011 68.9521 24.1826C68.7562 24.0641 68.5192 24.0049 68.2412 24.0049C67.9632 24.0049 67.7262 24.0641 67.5303 24.1826C67.3389 24.3011 67.1816 24.4652 67.0586 24.6748C66.9401 24.8799 66.8535 25.1169 66.7988 25.3857C66.7441 25.6501 66.7168 25.9326 66.7168 26.2334Z" fill="#2D258E"/>
</svg>
