<svg width="100" height="38" viewBox="0 0 100 38" fill="none" xmlns="http://www.w3.org/2000/svg">
<rect x="0.5" y="0.5" width="99" height="37" rx="4.5" fill="white" stroke="#2D258E"/>
<mask id="path-2-inside-1_519_483" fill="white">
<path d="M5 18.9454L12.9801 9L21 18.8493C20.9035 20.2313 20.0473 21.3181 18.9961 21.3213L17.2143 21.3324L17.2591 25.2317C17.2622 25.9571 16.9969 26.6541 16.5213 27.1697C16.0457 27.6854 15.3987 27.9775 14.7225 27.982L11.4154 28C11.0806 28.0018 10.7487 27.9329 10.4388 27.7972C10.1288 27.6615 9.84683 27.4616 9.60893 27.2089C9.37104 26.9562 9.18189 26.6558 9.05229 26.3247C8.9227 25.9936 8.8552 25.6384 8.85365 25.2793L8.80884 21.3799L7.028 21.391C5.97978 21.3968 5.11127 20.3243 5 18.9454"/>
</mask>
<path d="M5 18.9454L12.9801 9L21 18.8493C20.9035 20.2313 20.0473 21.3181 18.9961 21.3213L17.2143 21.3324L17.2591 25.2317C17.2622 25.9571 16.9969 26.6541 16.5213 27.1697C16.0457 27.6854 15.3987 27.9775 14.7225 27.982L11.4154 28C11.0806 28.0018 10.7487 27.9329 10.4388 27.7972C10.1288 27.6615 9.84683 27.4616 9.60893 27.2089C9.37104 26.9562 9.18189 26.6558 9.05229 26.3247C8.9227 25.9936 8.8552 25.6384 8.85365 25.2793L8.80884 21.3799L7.028 21.391C5.97978 21.3968 5.11127 20.3243 5 18.9454" fill="#BE3105"/>
<path d="M12.9801 9L13.7555 8.36858L12.9743 7.40924L12.2001 8.37417L12.9801 9ZM21 18.8493L21.9976 18.919L22.0251 18.5245L21.7754 18.2179L21 18.8493ZM18.9961 21.3213L18.9931 20.3213L18.9899 20.3213L18.9961 21.3213ZM17.2143 21.3324L17.2081 20.3324L16.2028 20.3386L16.2144 21.3439L17.2143 21.3324ZM17.2591 25.2317L18.2591 25.2274L18.259 25.2203L17.2591 25.2317ZM14.7225 27.982L14.7279 28.982L14.7291 28.982L14.7225 27.982ZM11.4154 28L11.4099 27L11.4098 27L11.4154 28ZM8.85365 25.2793L9.85366 25.275L9.85358 25.2678L8.85365 25.2793ZM8.80884 21.3799L9.80878 21.3684L9.79735 20.3737L8.80262 20.3799L8.80884 21.3799ZM7.028 21.391L7.03355 22.391L7.03423 22.391L7.028 21.391ZM5.77996 19.5712L13.76 9.62583L12.2001 8.37417L4.22004 18.3196L5.77996 19.5712ZM12.2046 9.63142L20.2246 19.4807L21.7754 18.2179L13.7555 8.36858L12.2046 9.63142ZM20.0024 18.7797C19.9667 19.2916 19.7918 19.7082 19.5766 19.9759C19.3631 20.2416 19.1514 20.3208 18.9931 20.3213L18.9991 22.3213C19.892 22.3186 20.634 21.8528 21.1355 21.2288C21.6354 20.6069 21.9368 19.789 21.9976 18.919L20.0024 18.7797ZM18.9899 20.3213L17.2081 20.3324L17.2205 22.3323L19.0023 22.3213L18.9899 20.3213ZM16.2144 21.3439L16.2592 25.2432L18.259 25.2203L18.2142 21.3209L16.2144 21.3439ZM16.2591 25.2361C16.2612 25.7182 16.0841 26.1688 15.7862 26.4918L17.2564 27.8477C17.9097 27.1394 18.2633 26.196 18.2591 25.2274L16.2591 25.2361ZM15.7862 26.4918C15.4905 26.8124 15.1037 26.9795 14.7159 26.982L14.7291 28.982C15.6937 28.9756 16.6009 28.5584 17.2564 27.8477L15.7862 26.4918ZM14.7171 26.982L11.4099 27L11.4208 28.9999L14.7279 28.982L14.7171 26.982ZM11.4098 27C11.2165 27.0011 11.0231 26.9614 10.8399 26.8812L10.0376 28.7132C10.4744 28.9045 10.9447 29.0026 11.421 28.9999L11.4098 27ZM10.8399 26.8812C10.6565 26.8009 10.485 26.6806 10.337 26.5234L8.88087 27.8944C9.20869 28.2426 9.60109 28.5221 10.0376 28.7132L10.8399 26.8812ZM10.337 26.5234C10.1889 26.3661 10.0677 26.1753 9.9835 25.9602L8.12108 26.6892C8.29609 27.1363 8.5532 27.5464 8.88087 27.8944L10.337 26.5234ZM9.9835 25.9602C9.89929 25.7451 9.85466 25.512 9.85364 25.275L7.85366 25.2836C7.85573 25.7647 7.9461 26.2421 8.12108 26.6892L9.9835 25.9602ZM9.85358 25.2678L9.80878 21.3684L7.80891 21.3914L7.85371 25.2908L9.85358 25.2678ZM8.80262 20.3799L7.02178 20.391L7.03423 22.391L8.81507 22.3799L8.80262 20.3799ZM7.02246 20.391C6.7315 20.3926 6.08784 19.9936 5.99676 18.865L4.00324 19.0259C4.1347 20.6549 5.22806 22.401 7.03355 22.391L7.02246 20.391Z" fill="#59267F" mask="url(#path-2-inside-1_519_483)"/>
<path d="M31.0703 20.3955C31.0703 20.2178 31.043 20.0583 30.9883 19.917C30.9382 19.7712 30.8424 19.639 30.7012 19.5205C30.5599 19.3975 30.3617 19.2767 30.1064 19.1582C29.8512 19.0397 29.5208 18.9167 29.1152 18.7891C28.6641 18.6432 28.2357 18.4792 27.8301 18.2969C27.429 18.1146 27.0736 17.9027 26.7637 17.6611C26.4583 17.415 26.2168 17.1302 26.0391 16.8066C25.8659 16.4831 25.7793 16.1071 25.7793 15.6787C25.7793 15.264 25.8704 14.888 26.0527 14.5508C26.235 14.209 26.4902 13.9173 26.8184 13.6758C27.1465 13.4297 27.5339 13.2406 27.9805 13.1084C28.4316 12.9762 28.9261 12.9102 29.4639 12.9102C30.1976 12.9102 30.8379 13.0423 31.3848 13.3066C31.9316 13.571 32.3555 13.9333 32.6562 14.3936C32.9616 14.8538 33.1143 15.3802 33.1143 15.9727H31.0771C31.0771 15.681 31.0156 15.4258 30.8926 15.207C30.7741 14.9837 30.5918 14.8083 30.3457 14.6807C30.1042 14.5531 29.7988 14.4893 29.4297 14.4893C29.0742 14.4893 28.778 14.5439 28.541 14.6533C28.304 14.7581 28.1263 14.9017 28.0078 15.084C27.8893 15.2617 27.8301 15.4622 27.8301 15.6855C27.8301 15.8542 27.8711 16.0068 27.9531 16.1436C28.0397 16.2803 28.1673 16.4079 28.3359 16.5264C28.5046 16.6449 28.7119 16.7565 28.958 16.8613C29.2041 16.9661 29.4889 17.0687 29.8125 17.1689C30.3548 17.333 30.8311 17.5176 31.2412 17.7227C31.6559 17.9277 32.0023 18.1579 32.2803 18.4131C32.5583 18.6683 32.7679 18.9577 32.9092 19.2812C33.0505 19.6048 33.1211 19.9717 33.1211 20.3818C33.1211 20.8148 33.0368 21.2021 32.8682 21.5439C32.6995 21.8857 32.4557 22.1751 32.1367 22.4121C31.8177 22.6491 31.4372 22.8291 30.9951 22.9521C30.5531 23.0752 30.0586 23.1367 29.5117 23.1367C29.0195 23.1367 28.5342 23.0729 28.0557 22.9453C27.5771 22.8132 27.1419 22.6149 26.75 22.3506C26.3626 22.0863 26.0527 21.749 25.8203 21.3389C25.5879 20.9287 25.4717 20.4434 25.4717 19.8828H27.5293C27.5293 20.1927 27.5771 20.4548 27.6729 20.6689C27.7686 20.8831 27.903 21.0563 28.0762 21.1885C28.2539 21.3206 28.4635 21.4163 28.7051 21.4756C28.9512 21.5348 29.2201 21.5645 29.5117 21.5645C29.8672 21.5645 30.1589 21.5143 30.3867 21.4141C30.6191 21.3138 30.79 21.1748 30.8994 20.9971C31.0133 20.8193 31.0703 20.6188 31.0703 20.3955ZM37.3069 23.1367C36.7327 23.1367 36.2177 23.0456 35.762 22.8633C35.3062 22.6764 34.9189 22.4189 34.5998 22.0908C34.2854 21.7627 34.0439 21.3822 33.8752 20.9492C33.7066 20.5117 33.6223 20.0469 33.6223 19.5547V19.2812C33.6223 18.7207 33.7021 18.208 33.8616 17.7432C34.0211 17.2783 34.2489 16.875 34.5452 16.5332C34.8459 16.1914 35.2105 15.9294 35.6389 15.7471C36.0673 15.5602 36.5504 15.4668 37.0881 15.4668C37.6122 15.4668 38.0771 15.5534 38.4827 15.7266C38.8883 15.8997 39.2278 16.1458 39.5012 16.4648C39.7792 16.7839 39.9888 17.1667 40.1301 17.6133C40.2714 18.0553 40.342 18.5475 40.342 19.0898V19.9102H34.4631V18.5977H38.4075V18.4473C38.4075 18.1738 38.3573 17.93 38.2571 17.7158C38.1614 17.4971 38.0155 17.3239 37.8196 17.1963C37.6236 17.0687 37.373 17.0049 37.0676 17.0049C36.8079 17.0049 36.5845 17.0618 36.3977 17.1758C36.2108 17.2897 36.0582 17.4492 35.9397 17.6543C35.8258 17.8594 35.7392 18.1009 35.6799 18.3789C35.6252 18.6523 35.5979 18.9531 35.5979 19.2812V19.5547C35.5979 19.8509 35.6389 20.1243 35.7209 20.375C35.8075 20.6257 35.9283 20.8421 36.0832 21.0244C36.2427 21.2067 36.4342 21.348 36.6575 21.4482C36.8853 21.5485 37.1428 21.5986 37.4299 21.5986C37.7854 21.5986 38.1158 21.5303 38.4211 21.3936C38.731 21.2523 38.9976 21.0404 39.2209 20.7578L40.178 21.7969C40.023 22.0202 39.8111 22.2344 39.5422 22.4395C39.2779 22.6445 38.9589 22.8132 38.5852 22.9453C38.2115 23.0729 37.7854 23.1367 37.3069 23.1367ZM42.9009 17.1826V23H40.9321V15.6035H42.7778L42.9009 17.1826ZM42.6138 19.042H42.0805C42.0805 18.4951 42.1512 18.0029 42.2925 17.5654C42.4337 17.1234 42.632 16.7474 42.8872 16.4375C43.1424 16.123 43.4455 15.8838 43.7964 15.7197C44.1518 15.5511 44.5483 15.4668 44.9858 15.4668C45.3322 15.4668 45.6489 15.5169 45.936 15.6172C46.2231 15.7174 46.4692 15.877 46.6743 16.0957C46.8839 16.3145 47.0434 16.6038 47.1528 16.9639C47.2667 17.3239 47.3237 17.7637 47.3237 18.2832V23H45.3413V18.2764C45.3413 17.9482 45.2957 17.693 45.2046 17.5107C45.1134 17.3285 44.979 17.2008 44.8013 17.1279C44.6281 17.0505 44.4139 17.0117 44.1587 17.0117C43.8943 17.0117 43.6642 17.0641 43.4682 17.1689C43.2768 17.2738 43.1173 17.4196 42.9897 17.6064C42.8667 17.7887 42.7733 18.0029 42.7095 18.249C42.6457 18.4951 42.6138 18.7594 42.6138 19.042ZM52.6989 21.3867V12.5H54.6814V23H52.8972L52.6989 21.3867ZM48.0232 19.3906V19.2471C48.0232 18.682 48.087 18.1693 48.2146 17.709C48.3422 17.2441 48.529 16.8454 48.7751 16.5127C49.0212 16.18 49.3243 15.9225 49.6843 15.7402C50.0443 15.5579 50.4545 15.4668 50.9148 15.4668C51.3477 15.4668 51.726 15.5579 52.0495 15.7402C52.3777 15.9225 52.6557 16.1823 52.8835 16.5195C53.1159 16.8522 53.3028 17.2464 53.4441 17.7021C53.5853 18.1533 53.6879 18.6478 53.7517 19.1855V19.5C53.6879 20.015 53.5853 20.4935 53.4441 20.9355C53.3028 21.3776 53.1159 21.765 52.8835 22.0977C52.6557 22.4258 52.3777 22.681 52.0495 22.8633C51.7214 23.0456 51.3386 23.1367 50.9011 23.1367C50.4408 23.1367 50.0307 23.0433 49.6706 22.8564C49.3152 22.6696 49.0144 22.4076 48.7683 22.0703C48.5267 21.7331 48.3422 21.3366 48.2146 20.8809C48.087 20.4251 48.0232 19.9284 48.0232 19.3906ZM49.9919 19.2471V19.3906C49.9919 19.696 50.0147 19.9808 50.0603 20.2451C50.1104 20.5094 50.1902 20.7441 50.2995 20.9492C50.4135 21.1497 50.5593 21.307 50.737 21.4209C50.9193 21.5303 51.1404 21.585 51.4001 21.585C51.7374 21.585 52.0154 21.5098 52.2341 21.3594C52.4529 21.2044 52.6192 20.9925 52.7331 20.7236C52.8516 20.4548 52.92 20.1449 52.9382 19.7939V18.8984C52.9245 18.6113 52.8835 18.3538 52.8152 18.126C52.7514 17.8936 52.6557 17.6953 52.528 17.5312C52.405 17.3672 52.2501 17.2396 52.0632 17.1484C51.8809 17.0573 51.6644 17.0117 51.4138 17.0117C51.1586 17.0117 50.9398 17.071 50.7575 17.1895C50.5752 17.3034 50.4271 17.4606 50.3132 17.6611C50.2038 17.8617 50.1218 18.0986 50.0671 18.3721C50.017 18.641 49.9919 18.9326 49.9919 19.2471ZM61.7814 21.5986C62.023 21.5986 62.2372 21.5531 62.424 21.4619C62.6109 21.3662 62.7567 21.234 62.8615 21.0654C62.9709 20.8923 63.0279 20.6895 63.0324 20.457H64.885C64.8804 20.9766 64.7414 21.4391 64.468 21.8447C64.1945 22.2458 63.8277 22.5625 63.3674 22.7949C62.9071 23.0228 62.3921 23.1367 61.8225 23.1367C61.2482 23.1367 60.7469 23.041 60.3186 22.8496C59.8947 22.6582 59.5415 22.3939 59.259 22.0566C58.9764 21.7148 58.7645 21.3184 58.6232 20.8672C58.482 20.4115 58.4113 19.9238 58.4113 19.4043V19.2061C58.4113 18.682 58.482 18.1943 58.6232 17.7432C58.7645 17.2874 58.9764 16.891 59.259 16.5537C59.5415 16.2119 59.8947 15.9453 60.3186 15.7539C60.7424 15.5625 61.2391 15.4668 61.8088 15.4668C62.4149 15.4668 62.9458 15.583 63.4016 15.8154C63.8618 16.0479 64.2219 16.3805 64.4816 16.8135C64.746 17.2419 64.8804 17.75 64.885 18.3379H63.0324C63.0279 18.0918 62.9755 17.8685 62.8752 17.668C62.7795 17.4674 62.6382 17.3079 62.4514 17.1895C62.2691 17.0664 62.0435 17.0049 61.7746 17.0049C61.4875 17.0049 61.2528 17.0664 61.0705 17.1895C60.8882 17.3079 60.7469 17.472 60.6467 17.6816C60.5464 17.8867 60.4758 18.1214 60.4348 18.3857C60.3983 18.6455 60.3801 18.9189 60.3801 19.2061V19.4043C60.3801 19.6914 60.3983 19.9671 60.4348 20.2314C60.4712 20.4958 60.5396 20.7305 60.6398 20.9355C60.7447 21.1406 60.8882 21.3024 61.0705 21.4209C61.2528 21.5394 61.4898 21.5986 61.7814 21.5986ZM67.5053 17.2168V23H65.5366V15.6035H67.3891L67.5053 17.2168ZM69.7338 15.5557L69.6996 17.3809C69.6039 17.3672 69.4877 17.3558 69.351 17.3467C69.2189 17.333 69.0981 17.3262 68.9887 17.3262C68.7107 17.3262 68.4692 17.3626 68.2641 17.4355C68.0636 17.5039 67.895 17.6064 67.7582 17.7432C67.6261 17.8799 67.5258 18.0462 67.4575 18.2422C67.3937 18.4382 67.3572 18.6615 67.3481 18.9121L66.9516 18.7891C66.9516 18.3105 66.9995 17.8708 67.0952 17.4697C67.1909 17.0641 67.3299 16.7109 67.5121 16.4102C67.699 16.1094 67.9269 15.877 68.1957 15.7129C68.4646 15.5488 68.7722 15.4668 69.1186 15.4668C69.228 15.4668 69.3396 15.4759 69.4536 15.4941C69.5675 15.5078 69.6609 15.5283 69.7338 15.5557ZM72.4909 22.166L74.4528 15.6035H76.5651L73.5915 24.1143C73.5277 24.3011 73.4411 24.5016 73.3317 24.7158C73.2269 24.93 73.0833 25.1328 72.9011 25.3242C72.7233 25.5202 72.4977 25.6797 72.2243 25.8027C71.9554 25.9258 71.625 25.9873 71.2331 25.9873C71.0462 25.9873 70.8936 25.9759 70.7751 25.9531C70.6566 25.9303 70.5153 25.8984 70.3512 25.8574V24.415C70.4014 24.415 70.4538 24.415 70.5085 24.415C70.5632 24.4196 70.6156 24.4219 70.6657 24.4219C70.9255 24.4219 71.1374 24.3923 71.3014 24.333C71.4655 24.2738 71.5977 24.1826 71.6979 24.0596C71.7982 23.9411 71.8779 23.7861 71.9372 23.5947L72.4909 22.166ZM71.6706 15.6035L73.277 20.9629L73.5573 23.0479L72.2175 23.1914L69.5583 15.6035H71.6706ZM78.83 17.0254V25.8438H76.8613V15.6035H78.6864L78.83 17.0254ZM83.5126 19.2197V19.3633C83.5126 19.901 83.4488 20.4001 83.3212 20.8604C83.1982 21.3206 83.0159 21.7217 82.7743 22.0635C82.5328 22.4007 82.232 22.665 81.872 22.8564C81.5165 23.0433 81.1064 23.1367 80.6415 23.1367C80.1904 23.1367 79.7984 23.0456 79.4657 22.8633C79.1331 22.681 78.8528 22.4258 78.6249 22.0977C78.4016 21.765 78.2216 21.3799 78.0849 20.9424C77.9482 20.5049 77.8433 20.0355 77.7704 19.5342V19.1582C77.8433 18.6204 77.9482 18.1283 78.0849 17.6816C78.2216 17.2305 78.4016 16.8408 78.6249 16.5127C78.8528 16.18 79.1308 15.9225 79.4589 15.7402C79.7916 15.5579 80.1812 15.4668 80.6279 15.4668C81.0973 15.4668 81.5097 15.5557 81.8652 15.7334C82.2252 15.9111 82.526 16.1663 82.7675 16.499C83.0136 16.8317 83.1982 17.2282 83.3212 17.6885C83.4488 18.1488 83.5126 18.6592 83.5126 19.2197ZM81.537 19.3633V19.2197C81.537 18.9053 81.5097 18.6159 81.455 18.3516C81.4049 18.0827 81.3228 17.848 81.2089 17.6475C81.0995 17.4469 80.9537 17.292 80.7714 17.1826C80.5937 17.0687 80.3772 17.0117 80.122 17.0117C79.8531 17.0117 79.623 17.055 79.4316 17.1416C79.2447 17.2282 79.092 17.3535 78.9736 17.5176C78.8551 17.6816 78.7662 17.8776 78.707 18.1055C78.6477 18.3333 78.6113 18.5908 78.5976 18.8779V19.8281C78.6204 20.1654 78.6842 20.4684 78.789 20.7373C78.8938 21.0016 79.0556 21.2113 79.2743 21.3662C79.4931 21.5212 79.7802 21.5986 80.1357 21.5986C80.3954 21.5986 80.6142 21.5417 80.7919 21.4277C80.9697 21.3092 81.1132 21.1475 81.2226 20.9424C81.3365 20.7373 81.4163 20.5003 81.4618 20.2314C81.512 19.9626 81.537 19.6732 81.537 19.3633ZM87.8693 15.6035V16.998H83.5627V15.6035H87.8693ZM84.6291 13.7783H86.5978V20.7715C86.5978 20.9857 86.6252 21.1497 86.6798 21.2637C86.7391 21.3776 86.8257 21.4574 86.9396 21.5029C87.0535 21.5439 87.1971 21.5645 87.3703 21.5645C87.4933 21.5645 87.6027 21.5599 87.6984 21.5508C87.7987 21.5371 87.883 21.5234 87.9513 21.5098L87.9582 22.959C87.7895 23.0137 87.6073 23.057 87.4113 23.0889C87.2153 23.1208 86.9989 23.1367 86.7619 23.1367C86.3289 23.1367 85.9507 23.0661 85.6271 22.9248C85.3081 22.779 85.062 22.5465 84.8888 22.2275C84.7157 21.9085 84.6291 21.4893 84.6291 20.9697V13.7783ZM88.0082 19.377V19.2334C88.0082 18.6911 88.0857 18.1921 88.2406 17.7363C88.3956 17.276 88.6212 16.8773 88.9174 16.54C89.2136 16.2028 89.5782 15.9408 90.0111 15.7539C90.4441 15.5625 90.9408 15.4668 91.5014 15.4668C92.0619 15.4668 92.5609 15.5625 92.9984 15.7539C93.4359 15.9408 93.8028 16.2028 94.099 16.54C94.3998 16.8773 94.6277 17.276 94.7826 17.7363C94.9376 18.1921 95.015 18.6911 95.015 19.2334V19.377C95.015 19.9147 94.9376 20.4137 94.7826 20.874C94.6277 21.3298 94.3998 21.7285 94.099 22.0703C93.8028 22.4076 93.4382 22.6696 93.0053 22.8564C92.5723 23.0433 92.0756 23.1367 91.515 23.1367C90.9545 23.1367 90.4555 23.0433 90.018 22.8564C89.585 22.6696 89.2182 22.4076 88.9174 22.0703C88.6212 21.7285 88.3956 21.3298 88.2406 20.874C88.0857 20.4137 88.0082 19.9147 88.0082 19.377ZM89.977 19.2334V19.377C89.977 19.6868 90.0043 19.9762 90.059 20.2451C90.1137 20.514 90.2003 20.751 90.3187 20.9561C90.4418 21.1566 90.6013 21.3138 90.7973 21.4277C90.9932 21.5417 91.2325 21.5986 91.515 21.5986C91.7885 21.5986 92.0232 21.5417 92.2191 21.4277C92.4151 21.3138 92.5723 21.1566 92.6908 20.9561C92.8093 20.751 92.8959 20.514 92.9506 20.2451C93.0098 19.9762 93.0395 19.6868 93.0395 19.377V19.2334C93.0395 18.9326 93.0098 18.6501 92.9506 18.3857C92.8959 18.1169 92.807 17.8799 92.684 17.6748C92.5655 17.4652 92.4083 17.3011 92.2123 17.1826C92.0163 17.0641 91.7794 17.0049 91.5014 17.0049C91.2234 17.0049 90.9864 17.0641 90.7904 17.1826C90.599 17.3011 90.4418 17.4652 90.3187 17.6748C90.2003 17.8799 90.1137 18.1169 90.059 18.3857C90.0043 18.6501 89.977 18.9326 89.977 19.2334Z" fill="#041A66"/>
</svg>
