<svg width="288" height="190" viewBox="0 0 288 190" fill="none" xmlns="http://www.w3.org/2000/svg">
<rect width="288" height="190" rx="5" fill="#CCD1CB" fill-opacity="0.51"/>
<path opacity="0.6" d="M32.3887 34.5068C32.3887 34.0674 32.3203 33.6768 32.1836 33.335C32.0566 32.9932 31.8271 32.6807 31.4951 32.3975C31.1631 32.1143 30.6943 31.8408 30.0889 31.5771C29.4932 31.3037 28.7314 31.0254 27.8037 30.7422C26.7881 30.4297 25.8506 30.083 24.9912 29.7021C24.1416 29.3115 23.3994 28.8623 22.7646 28.3545C22.1299 27.8369 21.6367 27.2461 21.2852 26.582C20.9336 25.9082 20.7578 25.1318 20.7578 24.2529C20.7578 23.3838 20.9385 22.5928 21.2998 21.8799C21.6709 21.167 22.1934 20.5518 22.8672 20.0342C23.5508 19.5068 24.3564 19.1016 25.2842 18.8184C26.2119 18.5254 27.2373 18.3789 28.3604 18.3789C29.9424 18.3789 31.3047 18.6719 32.4473 19.2578C33.5996 19.8438 34.4834 20.6299 35.0986 21.6162C35.7236 22.6025 36.0361 23.6914 36.0361 24.8828H32.3887C32.3887 24.1797 32.2373 23.5596 31.9346 23.0225C31.6416 22.4756 31.1924 22.0459 30.5869 21.7334C29.9912 21.4209 29.2344 21.2646 28.3164 21.2646C27.4473 21.2646 26.7246 21.3965 26.1484 21.6602C25.5723 21.9238 25.1426 22.2803 24.8594 22.7295C24.5762 23.1787 24.4346 23.6865 24.4346 24.2529C24.4346 24.6533 24.5273 25.0195 24.7129 25.3516C24.8984 25.6738 25.1816 25.9766 25.5625 26.2598C25.9434 26.5332 26.4219 26.792 26.998 27.0361C27.5742 27.2803 28.2529 27.5146 29.0342 27.7393C30.2158 28.0908 31.2461 28.4814 32.125 28.9111C33.0039 29.3311 33.7363 29.8096 34.3223 30.3467C34.9082 30.8838 35.3477 31.4941 35.6406 32.1777C35.9336 32.8516 36.0801 33.6182 36.0801 34.4775C36.0801 35.376 35.8994 36.1865 35.5381 36.9092C35.1768 37.6221 34.6592 38.2324 33.9854 38.7402C33.3213 39.2383 32.5205 39.624 31.583 39.8975C30.6553 40.1611 29.6201 40.293 28.4775 40.293C27.4521 40.293 26.4414 40.1562 25.4453 39.8828C24.459 39.6094 23.5605 39.1943 22.75 38.6377C21.9395 38.0713 21.2949 37.3682 20.8164 36.5283C20.3379 35.6787 20.0986 34.6875 20.0986 33.5547H23.7754C23.7754 34.248 23.8926 34.8389 24.127 35.3271C24.3711 35.8154 24.708 36.2158 25.1377 36.5283C25.5674 36.8311 26.0654 37.0557 26.6318 37.2021C27.208 37.3486 27.8232 37.4219 28.4775 37.4219C29.3369 37.4219 30.0547 37.2998 30.6309 37.0557C31.2168 36.8115 31.6562 36.4697 31.9492 36.0303C32.2422 35.5908 32.3887 35.083 32.3887 34.5068ZM44.9178 40.293C43.7459 40.293 42.6863 40.1025 41.7391 39.7217C40.8016 39.3311 40.0008 38.7891 39.3367 38.0957C38.6824 37.4023 38.1795 36.5869 37.8279 35.6494C37.4764 34.7119 37.3006 33.7012 37.3006 32.6172V32.0312C37.3006 30.791 37.4813 29.668 37.8426 28.6621C38.2039 27.6562 38.7068 26.7969 39.3514 26.084C39.9959 25.3613 40.7576 24.8096 41.6365 24.4287C42.5154 24.0479 43.4676 23.8574 44.493 23.8574C45.6258 23.8574 46.617 24.0479 47.4666 24.4287C48.3162 24.8096 49.0193 25.3467 49.576 26.04C50.1424 26.7236 50.5623 27.5391 50.8357 28.4863C51.1189 29.4336 51.2605 30.4785 51.2605 31.6211V33.1299H39.0145V30.5957H47.7742V30.3174C47.7547 29.6826 47.6277 29.0869 47.3934 28.5303C47.1688 27.9736 46.8221 27.5244 46.3533 27.1826C45.8846 26.8408 45.2596 26.6699 44.4783 26.6699C43.8924 26.6699 43.3699 26.7969 42.9109 27.0508C42.4617 27.2949 42.0857 27.6514 41.783 28.1201C41.4803 28.5889 41.2459 29.1553 41.0799 29.8193C40.9236 30.4736 40.8455 31.2109 40.8455 32.0312V32.6172C40.8455 33.3105 40.9383 33.9551 41.1238 34.5508C41.3191 35.1367 41.6023 35.6494 41.9734 36.0889C42.3445 36.5283 42.7938 36.875 43.3211 37.1289C43.8484 37.373 44.449 37.4951 45.1229 37.4951C45.9725 37.4951 46.7293 37.3242 47.3934 36.9824C48.0574 36.6406 48.6336 36.1572 49.1219 35.5322L50.9822 37.334C50.6404 37.832 50.1961 38.3105 49.6492 38.7695C49.1023 39.2188 48.4334 39.585 47.6424 39.8682C46.8611 40.1514 45.9529 40.293 44.9178 40.293ZM56.4654 27.5342V40H52.9352V24.1504H56.2604L56.4654 27.5342ZM55.8355 31.4893L54.693 31.4746C54.7027 30.3516 54.859 29.3213 55.1617 28.3838C55.4742 27.4463 55.9039 26.6406 56.4508 25.9668C57.0074 25.293 57.6715 24.7754 58.443 24.4141C59.2145 24.043 60.0738 23.8574 61.0211 23.8574C61.7828 23.8574 62.4713 23.9648 63.0865 24.1797C63.7115 24.3848 64.2438 24.7217 64.6832 25.1904C65.1324 25.6592 65.4742 26.2695 65.7086 27.0215C65.943 27.7637 66.0602 28.6768 66.0602 29.7607V40H62.5152V29.7461C62.5152 28.9844 62.4029 28.3838 62.1783 27.9443C61.9635 27.4951 61.6461 27.1777 61.2262 26.9922C60.816 26.7969 60.3033 26.6992 59.6881 26.6992C59.0826 26.6992 58.5406 26.8262 58.0621 27.0801C57.5836 27.334 57.1783 27.6807 56.8463 28.1201C56.524 28.5596 56.275 29.0674 56.0992 29.6436C55.9234 30.2197 55.8355 30.835 55.8355 31.4893ZM78.2816 36.7188V17.5H81.8266V40H78.6186L78.2816 36.7188ZM67.9691 32.251V31.9434C67.9691 30.7422 68.1107 29.6484 68.3939 28.6621C68.6771 27.666 69.0873 26.8115 69.6244 26.0986C70.1615 25.376 70.8158 24.8242 71.5873 24.4434C72.3588 24.0527 73.2279 23.8574 74.1947 23.8574C75.1518 23.8574 75.9916 24.043 76.7143 24.4141C77.4369 24.7852 78.0521 25.3174 78.56 26.0107C79.0678 26.6943 79.473 27.5146 79.7758 28.4717C80.0785 29.4189 80.2934 30.4736 80.4203 31.6357V32.6172C80.2934 33.75 80.0785 34.7852 79.7758 35.7227C79.473 36.6602 79.0678 37.4707 78.56 38.1543C78.0521 38.8379 77.432 39.3652 76.6996 39.7363C75.977 40.1074 75.1322 40.293 74.1654 40.293C73.2084 40.293 72.3441 40.0928 71.5727 39.6924C70.8109 39.292 70.1615 38.7305 69.6244 38.0078C69.0873 37.2852 68.6771 36.4355 68.3939 35.459C68.1107 34.4727 67.9691 33.4033 67.9691 32.251ZM71.4994 31.9434V32.251C71.4994 32.9736 71.5629 33.6475 71.6898 34.2725C71.8266 34.8975 72.0365 35.4492 72.3197 35.9277C72.6029 36.3965 72.9691 36.7676 73.4184 37.041C73.8773 37.3047 74.4242 37.4365 75.059 37.4365C75.8598 37.4365 76.5189 37.2607 77.0365 36.9092C77.5541 36.5576 77.9594 36.084 78.2523 35.4883C78.5551 34.8828 78.7602 34.209 78.8676 33.4668V30.8154C78.809 30.2393 78.6869 29.7021 78.5014 29.2041C78.3256 28.7061 78.0863 28.2715 77.7836 27.9004C77.4809 27.5195 77.1049 27.2266 76.6557 27.0215C76.2162 26.8066 75.6937 26.6992 75.0883 26.6992C74.4437 26.6992 73.8969 26.8359 73.4477 27.1094C72.9984 27.3828 72.6273 27.7588 72.3344 28.2373C72.0512 28.7158 71.8412 29.2725 71.7045 29.9072C71.5678 30.542 71.4994 31.2207 71.4994 31.9434ZM92.7344 18.6719H96.0156L102.183 35.1221L108.335 18.6719H111.616L103.472 40H100.864L92.7344 18.6719ZM91.2402 18.6719H94.3604L94.9023 32.9102V40H91.2402V18.6719ZM109.99 18.6719H113.125V40H109.448V32.9102L109.99 18.6719ZM115.415 32.251V31.9141C115.415 30.7715 115.581 29.7119 115.913 28.7354C116.245 27.749 116.723 26.8945 117.348 26.1719C117.983 25.4395 118.755 24.873 119.663 24.4727C120.581 24.0625 121.616 23.8574 122.768 23.8574C123.93 23.8574 124.966 24.0625 125.874 24.4727C126.792 24.873 127.568 25.4395 128.203 26.1719C128.838 26.8945 129.321 27.749 129.653 28.7354C129.985 29.7119 130.151 30.7715 130.151 31.9141V32.251C130.151 33.3936 129.985 34.4531 129.653 35.4297C129.321 36.4062 128.838 37.2607 128.203 37.9932C127.568 38.7158 126.797 39.2822 125.888 39.6924C124.98 40.0928 123.95 40.293 122.798 40.293C121.636 40.293 120.596 40.0928 119.678 39.6924C118.769 39.2822 117.998 38.7158 117.363 37.9932C116.728 37.2607 116.245 36.4062 115.913 35.4297C115.581 34.4531 115.415 33.3936 115.415 32.251ZM118.945 31.9141V32.251C118.945 32.9639 119.018 33.6377 119.165 34.2725C119.311 34.9072 119.541 35.4639 119.853 35.9424C120.166 36.4209 120.566 36.7969 121.054 37.0703C121.543 37.3438 122.124 37.4805 122.798 37.4805C123.452 37.4805 124.018 37.3438 124.497 37.0703C124.985 36.7969 125.386 36.4209 125.698 35.9424C126.011 35.4639 126.24 34.9072 126.387 34.2725C126.543 33.6377 126.621 32.9639 126.621 32.251V31.9141C126.621 31.2109 126.543 30.5469 126.387 29.9219C126.24 29.2871 126.006 28.7256 125.683 28.2373C125.371 27.749 124.971 27.3682 124.482 27.0947C124.004 26.8115 123.432 26.6699 122.768 26.6699C122.104 26.6699 121.528 26.8115 121.04 27.0947C120.561 27.3682 120.166 27.749 119.853 28.2373C119.541 28.7256 119.311 29.2871 119.165 29.9219C119.018 30.5469 118.945 31.2109 118.945 31.9141ZM135.561 27.5342V40H132.031V24.1504H135.356L135.561 27.5342ZM134.931 31.4893L133.789 31.4746C133.798 30.3516 133.955 29.3213 134.257 28.3838C134.57 27.4463 135 26.6406 135.546 25.9668C136.103 25.293 136.767 24.7754 137.539 24.4141C138.31 24.043 139.17 23.8574 140.117 23.8574C140.879 23.8574 141.567 23.9648 142.182 24.1797C142.807 24.3848 143.339 24.7217 143.779 25.1904C144.228 25.6592 144.57 26.2695 144.804 27.0215C145.039 27.7637 145.156 28.6768 145.156 29.7607V40H141.611V29.7461C141.611 28.9844 141.499 28.3838 141.274 27.9443C141.059 27.4951 140.742 27.1777 140.322 26.9922C139.912 26.7969 139.399 26.6992 138.784 26.6992C138.178 26.6992 137.636 26.8262 137.158 27.0801C136.679 27.334 136.274 27.6807 135.942 28.1201C135.62 28.5596 135.371 29.0674 135.195 29.6436C135.019 30.2197 134.931 30.835 134.931 31.4893ZM154.697 40.293C153.525 40.293 152.465 40.1025 151.518 39.7217C150.58 39.3311 149.78 38.7891 149.116 38.0957C148.461 37.4023 147.958 36.5869 147.607 35.6494C147.255 34.7119 147.079 33.7012 147.079 32.6172V32.0312C147.079 30.791 147.26 29.668 147.621 28.6621C147.983 27.6562 148.486 26.7969 149.13 26.084C149.775 25.3613 150.537 24.8096 151.415 24.4287C152.294 24.0479 153.246 23.8574 154.272 23.8574C155.405 23.8574 156.396 24.0479 157.246 24.4287C158.095 24.8096 158.798 25.3467 159.355 26.04C159.921 26.7236 160.341 27.5391 160.615 28.4863C160.898 29.4336 161.039 30.4785 161.039 31.6211V33.1299H148.793V30.5957H157.553V30.3174C157.534 29.6826 157.407 29.0869 157.172 28.5303C156.948 27.9736 156.601 27.5244 156.132 27.1826C155.663 26.8408 155.038 26.6699 154.257 26.6699C153.671 26.6699 153.149 26.7969 152.69 27.0508C152.241 27.2949 151.865 27.6514 151.562 28.1201C151.259 28.5889 151.025 29.1553 150.859 29.8193C150.703 30.4736 150.624 31.2109 150.624 32.0312V32.6172C150.624 33.3105 150.717 33.9551 150.903 34.5508C151.098 35.1367 151.381 35.6494 151.752 36.0889C152.123 36.5283 152.573 36.875 153.1 37.1289C153.627 37.373 154.228 37.4951 154.902 37.4951C155.751 37.4951 156.508 37.3242 157.172 36.9824C157.836 36.6406 158.412 36.1572 158.901 35.5322L160.761 37.334C160.419 37.832 159.975 38.3105 159.428 38.7695C158.881 39.2188 158.212 39.585 157.421 39.8682C156.64 40.1514 155.732 40.293 154.697 40.293ZM167.138 38.2715L171.445 24.1504H175.224L168.866 42.417C168.72 42.8076 168.529 43.2324 168.295 43.6914C168.061 44.1504 167.753 44.585 167.372 44.9951C167.001 45.415 166.537 45.752 165.981 46.0059C165.424 46.2695 164.75 46.4014 163.959 46.4014C163.647 46.4014 163.344 46.3721 163.051 46.3135C162.768 46.2646 162.499 46.2109 162.245 46.1523L162.231 43.457C162.328 43.4668 162.446 43.4766 162.582 43.4863C162.729 43.4961 162.846 43.501 162.934 43.501C163.52 43.501 164.008 43.4277 164.399 43.2812C164.789 43.1445 165.107 42.9199 165.351 42.6074C165.605 42.2949 165.82 41.875 165.995 41.3477L167.138 38.2715ZM164.706 24.1504L168.471 36.0156L169.101 39.7363L166.654 40.3662L160.898 24.1504H164.706ZM191.273 21.5137L184.901 40H181.049L189.076 18.6719H191.537L191.273 21.5137ZM196.605 40L190.219 21.5137L189.94 18.6719H192.416L200.472 40H196.605ZM196.298 32.0898V35.0049H184.696V32.0898H196.298ZM201.473 17.5H205.004V36.6162L204.667 40H201.473V17.5ZM215.345 31.9287V32.2363C215.345 33.4082 215.213 34.4873 214.95 35.4736C214.696 36.4502 214.305 37.2998 213.778 38.0225C213.26 38.7451 212.616 39.3066 211.844 39.707C211.083 40.0977 210.199 40.293 209.193 40.293C208.207 40.293 207.347 40.1074 206.615 39.7363C205.882 39.3652 205.267 38.8379 204.769 38.1543C204.281 37.4707 203.885 36.6553 203.583 35.708C203.28 34.7607 203.065 33.7158 202.938 32.5732V31.5918C203.065 30.4395 203.28 29.3945 203.583 28.457C203.885 27.5098 204.281 26.6943 204.769 26.0107C205.267 25.3174 205.878 24.7852 206.6 24.4141C207.333 24.043 208.187 23.8574 209.164 23.8574C210.179 23.8574 211.073 24.0527 211.844 24.4434C212.626 24.834 213.275 25.3906 213.793 26.1133C214.31 26.8262 214.696 27.6758 214.95 28.6621C215.213 29.6484 215.345 30.7373 215.345 31.9287ZM211.815 32.2363V31.9287C211.815 31.2158 211.756 30.5469 211.639 29.9219C211.522 29.2871 211.327 28.7305 211.053 28.252C210.79 27.7734 210.428 27.3975 209.969 27.124C209.52 26.8408 208.959 26.6992 208.285 26.6992C207.66 26.6992 207.123 26.8066 206.673 27.0215C206.224 27.2363 205.848 27.5293 205.546 27.9004C205.243 28.2715 205.004 28.7012 204.828 29.1895C204.662 29.6777 204.549 30.2051 204.491 30.7715V33.4229C204.579 34.1553 204.764 34.8291 205.047 35.4443C205.34 36.0498 205.751 36.5381 206.278 36.9092C206.805 37.2705 207.484 37.4512 208.314 37.4512C208.968 37.4512 209.52 37.3193 209.969 37.0557C210.419 36.792 210.775 36.4258 211.039 35.957C211.312 35.4785 211.507 34.9219 211.625 34.2871C211.752 33.6523 211.815 32.9688 211.815 32.2363ZM220.829 27.168V40H217.298V24.1504H220.667L220.829 27.168ZM225.677 24.0479L225.648 27.3291C225.433 27.29 225.199 27.2607 224.945 27.2412C224.701 27.2217 224.456 27.2119 224.212 27.2119C223.607 27.2119 223.075 27.2998 222.616 27.4756C222.157 27.6416 221.771 27.8857 221.458 28.208C221.156 28.5205 220.921 28.9014 220.755 29.3506C220.589 29.7998 220.492 30.3027 220.462 30.8594L219.657 30.918C219.657 29.9219 219.754 28.999 219.95 28.1494C220.145 27.2998 220.438 26.5527 220.829 25.9082C221.229 25.2637 221.727 24.7607 222.323 24.3994C222.928 24.0381 223.626 23.8574 224.417 23.8574C224.632 23.8574 224.862 23.877 225.106 23.916C225.36 23.9551 225.55 23.999 225.677 24.0479ZM225.784 32.251V31.9141C225.784 30.7715 225.95 29.7119 226.282 28.7354C226.614 27.749 227.093 26.8945 227.718 26.1719C228.353 25.4395 229.124 24.873 230.032 24.4727C230.95 24.0625 231.986 23.8574 233.138 23.8574C234.3 23.8574 235.335 24.0625 236.243 24.4727C237.161 24.873 237.938 25.4395 238.572 26.1719C239.207 26.8945 239.691 27.749 240.023 28.7354C240.355 29.7119 240.521 30.7715 240.521 31.9141V32.251C240.521 33.3936 240.355 34.4531 240.023 35.4297C239.691 36.4062 239.207 37.2607 238.572 37.9932C237.938 38.7158 237.166 39.2822 236.258 39.6924C235.35 40.0928 234.32 40.293 233.167 40.293C232.005 40.293 230.965 40.0928 230.047 39.6924C229.139 39.2822 228.367 38.7158 227.733 37.9932C227.098 37.2607 226.614 36.4062 226.282 35.4297C225.95 34.4531 225.784 33.3936 225.784 32.251ZM229.315 31.9141V32.251C229.315 32.9639 229.388 33.6377 229.534 34.2725C229.681 34.9072 229.91 35.4639 230.223 35.9424C230.535 36.4209 230.936 36.7969 231.424 37.0703C231.912 37.3438 232.493 37.4805 233.167 37.4805C233.821 37.4805 234.388 37.3438 234.866 37.0703C235.355 36.7969 235.755 36.4209 236.068 35.9424C236.38 35.4639 236.61 34.9072 236.756 34.2725C236.912 33.6377 236.99 32.9639 236.99 32.251V31.9141C236.99 31.2109 236.912 30.5469 236.756 29.9219C236.61 29.2871 236.375 28.7256 236.053 28.2373C235.74 27.749 235.34 27.3682 234.852 27.0947C234.373 26.8115 233.802 26.6699 233.138 26.6699C232.474 26.6699 231.898 26.8115 231.409 27.0947C230.931 27.3682 230.535 27.749 230.223 28.2373C229.91 28.7256 229.681 29.2871 229.534 29.9219C229.388 30.5469 229.315 31.2109 229.315 31.9141ZM251.365 36.8213V29.2627C251.365 28.6963 251.263 28.208 251.058 27.7979C250.853 27.3877 250.54 27.0703 250.12 26.8457C249.71 26.6211 249.192 26.5088 248.567 26.5088C247.991 26.5088 247.493 26.6064 247.073 26.8018C246.653 26.9971 246.326 27.2607 246.092 27.5928C245.857 27.9248 245.74 28.3008 245.74 28.7207H242.225C242.225 28.0957 242.376 27.4902 242.679 26.9043C242.981 26.3184 243.421 25.7959 243.997 25.3369C244.573 24.8779 245.262 24.5166 246.062 24.2529C246.863 23.9893 247.762 23.8574 248.758 23.8574C249.949 23.8574 251.004 24.0576 251.922 24.458C252.85 24.8584 253.577 25.4639 254.104 26.2744C254.642 27.0752 254.91 28.0811 254.91 29.292V36.3379C254.91 37.0605 254.959 37.71 255.057 38.2861C255.164 38.8525 255.315 39.3457 255.511 39.7656V40H251.893C251.727 39.6191 251.595 39.1357 251.497 38.5498C251.409 37.9541 251.365 37.3779 251.365 36.8213ZM251.878 30.3613L251.907 32.5439H249.373C248.719 32.5439 248.143 32.6074 247.645 32.7344C247.146 32.8516 246.731 33.0273 246.399 33.2617C246.067 33.4961 245.818 33.7793 245.652 34.1113C245.486 34.4434 245.403 34.8193 245.403 35.2393C245.403 35.6592 245.501 36.0449 245.696 36.3965C245.892 36.7383 246.175 37.0068 246.546 37.2021C246.927 37.3975 247.386 37.4951 247.923 37.4951C248.646 37.4951 249.275 37.3486 249.812 37.0557C250.359 36.7529 250.789 36.3867 251.102 35.957C251.414 35.5176 251.58 35.1025 251.6 34.7119L252.742 36.2793C252.625 36.6797 252.425 37.1094 252.142 37.5684C251.858 38.0273 251.487 38.4668 251.028 38.8867C250.579 39.2969 250.037 39.6338 249.402 39.8975C248.777 40.1611 248.055 40.293 247.234 40.293C246.199 40.293 245.276 40.0879 244.466 39.6777C243.655 39.2578 243.021 38.6963 242.562 37.9932C242.103 37.2803 241.873 36.4746 241.873 35.5762C241.873 34.7363 242.029 33.9941 242.342 33.3496C242.664 32.6953 243.133 32.1484 243.748 31.709C244.373 31.2695 245.135 30.9375 246.033 30.7129C246.932 30.4785 247.957 30.3613 249.109 30.3613H251.878ZM267.22 36.7188V17.5H270.764V40H267.556L267.22 36.7188ZM256.907 32.251V31.9434C256.907 30.7422 257.049 29.6484 257.332 28.6621C257.615 27.666 258.025 26.8115 258.562 26.0986C259.099 25.376 259.754 24.8242 260.525 24.4434C261.297 24.0527 262.166 23.8574 263.133 23.8574C264.09 23.8574 264.929 24.043 265.652 24.4141C266.375 24.7852 266.99 25.3174 267.498 26.0107C268.006 26.6943 268.411 27.5146 268.714 28.4717C269.016 29.4189 269.231 30.4736 269.358 31.6357V32.6172C269.231 33.75 269.016 34.7852 268.714 35.7227C268.411 36.6602 268.006 37.4707 267.498 38.1543C266.99 38.8379 266.37 39.3652 265.637 39.7363C264.915 40.1074 264.07 40.293 263.103 40.293C262.146 40.293 261.282 40.0928 260.511 39.6924C259.749 39.292 259.099 38.7305 258.562 38.0078C258.025 37.2852 257.615 36.4355 257.332 35.459C257.049 34.4727 256.907 33.4033 256.907 32.251ZM260.437 31.9434V32.251C260.437 32.9736 260.501 33.6475 260.628 34.2725C260.764 34.8975 260.974 35.4492 261.258 35.9277C261.541 36.3965 261.907 36.7676 262.356 37.041C262.815 37.3047 263.362 37.4365 263.997 37.4365C264.798 37.4365 265.457 37.2607 265.974 36.9092C266.492 36.5576 266.897 36.084 267.19 35.4883C267.493 34.8828 267.698 34.209 267.805 33.4668V30.8154C267.747 30.2393 267.625 29.7021 267.439 29.2041C267.263 28.7061 267.024 28.2715 266.721 27.9004C266.419 27.5195 266.043 27.2266 265.594 27.0215C265.154 26.8066 264.632 26.6992 264.026 26.6992C263.382 26.6992 262.835 26.8359 262.386 27.1094C261.936 27.3828 261.565 27.7588 261.272 28.2373C260.989 28.7158 260.779 29.2725 260.642 29.9072C260.506 30.542 260.437 31.2207 260.437 31.9434Z" fill="#3E3A44"/>
<rect x="248.516" y="144.875" width="23.2258" height="23.75" rx="11.6129" fill="#2D258E"/>
<path d="M256.332 164.78C256.451 164.872 256.591 164.944 256.745 164.992C256.899 165.039 257.064 165.062 257.229 165.058C257.395 165.054 257.558 165.024 257.709 164.969C257.861 164.914 257.998 164.835 258.113 164.737L266.32 157.762C266.411 157.685 266.483 157.593 266.531 157.493C266.58 157.394 266.603 157.287 266.601 157.18C266.598 157.074 266.57 156.969 266.517 156.871C266.464 156.774 266.388 156.686 266.293 156.613L257.778 150.036C257.276 149.648 256.481 149.667 255.997 150.078C255.513 150.49 255.528 151.134 256.03 151.522L263.449 157.26L256.289 163.345C255.815 163.748 255.83 164.4 256.332 164.78Z" fill="white"/>
<path d="M171.094 93.439C158.888 86.4672 146.681 79.3709 134.475 72.3992C116.559 89.5796 86.2406 104.893 57.4969 115.973C56.7094 118.338 55.9219 120.579 54.9375 122.82C67.5375 130.041 80.1375 137.386 92.7375 144.607C122.466 134.274 153.966 119.583 173.062 102.901C172.472 99.7883 171.684 96.6759 171.094 93.439Z" fill="#699635"/>
<path d="M95.1 135.394C82.6969 128.174 70.2938 120.953 57.8906 113.857C88.8 102.776 114.787 87.7123 133.884 69.9094C146.287 77.1302 158.691 84.2265 171.094 91.4472C151.997 109.25 126.009 124.314 95.1 135.394" fill="#83BF4F"/>
<path d="M91.9503 130.663C83.6815 125.933 75.4128 121.077 67.144 116.346C67.7347 116.097 68.1284 115.973 68.719 115.724C70.294 115.101 70.6878 113.981 69.3097 113.109L68.1284 112.363C93.1315 102.652 114.788 90.2022 131.719 75.7607L132.9 76.5077C134.278 77.2546 136.247 77.1302 137.428 76.2587C137.822 76.0097 138.019 75.6362 138.413 75.3872C146.682 80.1181 154.95 84.9734 163.219 89.7042C162.825 89.9532 162.628 90.3267 162.235 90.5757C161.053 91.5717 161.25 92.9411 162.628 93.8126L163.81 94.5596C146.878 108.877 125.222 121.326 100.219 131.037L99.0378 130.29C97.6597 129.543 95.2972 129.418 93.5253 130.041C92.9347 130.29 92.5409 130.414 91.9503 130.663V130.663ZM72.4597 116.471C79.1534 120.33 85.8472 124.19 92.7378 128.173C95.2972 127.676 98.2503 127.8 100.613 128.547C123.45 119.334 143.335 107.881 159.282 94.5596C157.903 93.1901 157.707 91.4472 158.691 89.9532C151.997 86.0939 145.303 82.2345 138.413 78.2506C136.641 79.2466 134.082 79.3711 131.916 78.6241C115.969 92.0697 96.0847 103.523 73.2472 112.736C74.4284 113.981 74.2315 115.475 72.4597 116.471" fill="#699635"/>
<path d="M90.3752 113.856C92.5408 113.358 94.9033 113.483 96.4783 114.354C95.4939 114.852 94.3127 115.35 93.3283 115.848C92.9346 115.599 91.9502 115.599 91.5564 115.848C90.9658 116.097 90.7689 116.471 91.3596 116.72C91.7533 116.969 92.7377 116.969 93.3283 116.72C95.6908 115.724 99.0377 115.599 100.81 116.72C102.188 117.591 102.385 118.836 101.006 119.832C101.4 120.081 101.794 120.206 102.188 120.455C101.203 120.828 100.219 121.326 99.2346 121.7C98.8408 121.451 98.4471 121.202 98.0533 121.077C95.8877 121.451 93.5252 121.326 92.1471 120.455C93.3283 119.957 94.3127 119.583 95.4939 119.085C95.8877 119.334 96.8721 119.334 97.4627 119.085C98.0533 118.836 98.0533 118.463 97.6596 118.214C97.2658 117.965 96.4783 117.965 95.8877 118.214C94.5096 118.836 92.7377 119.085 91.1627 118.961C89.9814 118.836 88.9971 118.587 88.2096 118.214C86.8314 117.342 86.8314 116.222 88.0127 115.226C87.6189 115.101 87.4221 114.852 87.0283 114.603C88.0127 114.23 88.9971 113.732 89.9814 113.358C89.7846 113.483 90.1783 113.607 90.3752 113.856" fill="#699635"/>
<path d="M136.05 87.2143C137.822 86.4673 139.988 86.4673 141.366 87.3388L139.003 89.2062C138.61 88.9572 137.822 88.9572 137.428 89.3307C137.035 89.7042 137.035 90.2022 137.428 90.4512C137.822 90.7002 138.61 90.7002 139.003 90.3267C140.775 88.9572 143.728 88.7082 145.5 89.7042C146.878 90.5757 147.272 91.9451 146.485 93.1901C146.878 93.4391 147.272 93.5636 147.666 93.8126C146.878 94.435 146.288 94.933 145.5 95.5555C145.107 95.3065 144.713 95.0575 144.319 94.933C142.547 95.5555 140.578 95.5555 139.2 94.684C139.988 94.0616 140.972 93.4391 141.76 92.8166C142.153 93.0656 142.941 93.0656 143.335 92.6921C143.728 92.3186 143.728 91.8206 143.335 91.5716C142.941 91.3226 142.153 91.3226 141.76 91.6961C140.775 92.4431 139.2 92.9411 137.822 92.9411C136.838 92.9411 135.853 92.6921 135.066 92.3186C133.688 91.4471 133.294 90.2022 134.082 88.9572C133.688 88.8327 133.491 88.5837 133.097 88.3347C133.885 87.8368 134.672 87.2143 135.263 86.5918C135.263 86.8408 135.657 86.9653 136.05 87.2143" fill="#699635"/>
<path d="M130.144 111.615C123.844 115.226 113.213 115.101 107.11 111.615C101.007 108.005 101.4 102.403 107.7 98.7924C114 95.182 123.844 94.8085 129.947 98.4189C136.247 101.905 136.444 108.005 130.144 111.615" fill="#699635"/>
<path d="M93.9185 97.921L131.128 119.459C135.459 117.218 139.397 114.852 143.334 112.363L106.322 90.8247C102.384 93.1901 98.2497 95.5556 93.9185 97.921Z" fill="#FFDD7D"/>
<path d="M131.325 128.92C135.459 126.929 139.593 124.812 143.531 122.696V112.238C139.593 114.728 135.459 117.093 131.325 119.334V128.92" fill="#DBB471"/>
<path d="M74.8218 98.17C76.9874 97.672 78.7593 96.9251 80.5312 96.0536C82.303 95.1821 83.878 94.3106 85.6499 93.3147C87.4218 92.4432 89.1936 91.4472 91.1624 90.8248C93.1311 90.0778 95.6905 89.7043 97.8561 89.9533C95.6905 90.2023 93.7218 90.8248 91.9499 91.6962C90.178 92.4432 88.603 93.4392 86.8312 94.3106C85.0593 95.1821 83.2874 96.1781 81.3186 96.9251C79.3499 97.672 76.9874 98.17 74.8218 98.17" fill="#8D9998"/>
<path d="M129.356 108.628C129.356 108.628 139.003 110.371 161.447 106.636C183.891 102.901 173.259 143.736 132.309 143.736C127.781 143.736 127.584 140.125 140.184 133.651C140.184 133.651 122.466 136.266 130.144 127.925C130.144 127.925 117.544 129.294 123.253 122.945C123.253 122.945 125.812 118.214 123.45 112.861C123.647 112.861 125.025 110.122 129.356 108.628" fill="#E8E8E8"/>
<path d="M172.078 110.62C172.472 121.575 158.691 139.752 131.325 139.752H130.931C128.372 142.366 129.553 143.86 132.31 143.86C163.416 143.736 177 120.33 172.078 110.62Z" fill="#D1D1D1"/>
<path d="M157.903 116.595C151.997 130.041 128.372 131.161 128.372 131.161C127.388 134.025 129.356 135.27 131.916 135.27C140.578 135.394 156.722 126.306 157.903 116.595Z" fill="#D1D1D1"/>
<path d="M141.366 116.595C127.388 129.045 122.466 124.439 122.466 124.439C118.922 129.419 128.175 129.419 129.75 128.298C134.278 125.186 141.563 118.712 141.366 116.595Z" fill="#D1D1D1"/>
<path d="M130.734 140.125C133.097 138.133 136.05 136.515 139.003 134.896C141.956 133.278 144.909 131.659 147.863 129.917C150.619 128.174 153.375 126.182 155.344 123.941C157.313 121.7 158.297 119.085 157.903 116.595C157.509 119.085 156.131 121.451 153.966 123.443C151.8 125.435 149.241 127.302 146.484 129.045C143.728 130.788 140.775 132.406 138.019 134.274C135.066 135.892 132.506 137.884 130.734 140.125" fill="#8D9998"/>
<path d="M128.372 131.161C129.159 129.792 130.34 128.672 131.718 127.551C133.097 126.431 134.475 125.435 136.05 124.314C137.428 123.194 139.003 122.073 139.987 120.828C141.168 119.583 141.759 117.965 141.365 116.595C140.972 117.965 139.987 119.21 138.609 120.33C137.428 121.451 135.853 122.447 134.475 123.567C133.097 124.688 131.522 125.808 130.34 127.053C129.159 128.298 128.372 129.792 128.372 131.161" fill="#8D9998"/>
<path d="M110.456 97.5476C110.456 97.5476 107.7 91.4472 113.606 77.2547C119.512 63.0622 54.9375 69.785 54.9375 95.6801C54.9375 98.5435 60.6469 98.668 70.8844 90.7003C70.8844 90.7003 66.75 101.905 79.9406 97.0496C79.9406 97.0496 77.775 105.017 87.8156 101.407C87.8156 101.407 95.2969 99.7885 103.762 101.282C103.762 101.158 108.094 100.286 110.456 97.5476" fill="#E8E8E8"/>
<path d="M107.306 70.532C89.9813 70.283 61.2375 78.9977 61.2375 96.3026V96.5516C57.1031 98.0456 54.9375 97.4231 54.9375 95.6802C54.9375 76.0098 91.95 67.4196 107.306 70.532Z" fill="#D1D1D1"/>
<path d="M97.856 79.4956C76.5935 83.2305 74.8216 98.17 74.8216 98.17C70.2935 98.7925 68.3248 97.5475 68.3248 95.9291C68.1279 90.4513 82.4998 80.2426 97.856 79.4956Z" fill="#D1D1D1"/>
<path d="M97.856 89.9534C78.1685 98.7926 85.4529 101.905 85.4529 101.905C77.5779 104.146 77.5779 98.2946 79.3498 97.2987C84.2717 94.4353 94.5092 89.8289 97.856 89.9534Z" fill="#D1D1D1"/>
<path d="M60.647 96.676C63.797 95.182 66.3563 93.3146 68.9157 91.4471C71.4751 89.5797 74.0345 87.7122 76.7907 85.8448C79.547 84.1019 82.697 82.3589 86.2407 81.114C89.7845 79.869 93.9188 79.2465 97.8563 79.4955C93.9188 79.7445 90.1782 80.616 87.0282 81.9854C83.8782 83.3549 80.9251 84.9733 78.1688 86.7163C75.4126 88.4592 72.8532 90.3267 69.9001 92.0696C67.1438 93.937 64.1907 95.5555 60.647 96.676" fill="#8D9998"/>
</svg>
