<svg width="288" height="190" viewBox="0 0 288 190" fill="none" xmlns="http://www.w3.org/2000/svg">
<rect width="288" height="190" rx="5" fill="#F2EBF2"/>
<path opacity="0.5" d="M35.5146 33.21L39.7627 16.6719H41.9893L41.7402 20.9346L37.1992 38H34.8848L35.5146 33.21ZM32.3359 16.6719L35.7783 33.0781L36.0859 38H33.625L28.6885 16.6719H32.3359ZM46.8086 33.0342L50.207 16.6719H53.8691L48.9326 38H46.4717L46.8086 33.0342ZM42.8535 16.6719L47.0576 33.2539L47.6729 38H45.3584L40.8906 20.9346L40.6562 16.6719H42.8535ZM58.4148 25.168V38H54.8846V22.1504H58.2537L58.4148 25.168ZM63.2635 22.0479L63.2342 25.3291C63.0193 25.29 62.785 25.2607 62.5311 25.2412C62.2869 25.2217 62.0428 25.2119 61.7986 25.2119C61.1932 25.2119 60.6609 25.2998 60.202 25.4756C59.743 25.6416 59.3572 25.8857 59.0447 26.208C58.742 26.5205 58.5076 26.9014 58.3416 27.3506C58.1756 27.7998 58.0779 28.3027 58.0486 28.8594L57.243 28.918C57.243 27.9219 57.3406 26.999 57.5359 26.1494C57.7313 25.2998 58.0242 24.5527 58.4148 23.9082C58.8152 23.2637 59.3133 22.7607 59.909 22.3994C60.5145 22.0381 61.2127 21.8574 62.0037 21.8574C62.2186 21.8574 62.448 21.877 62.6922 21.916C62.9461 21.9551 63.1365 21.999 63.2635 22.0479ZM71.1197 38.293C69.9479 38.293 68.8883 38.1025 67.941 37.7217C67.0035 37.3311 66.2027 36.7891 65.5387 36.0957C64.8844 35.4023 64.3814 34.5869 64.0299 33.6494C63.6783 32.7119 63.5025 31.7012 63.5025 30.6172V30.0312C63.5025 28.791 63.6832 27.668 64.0445 26.6621C64.4059 25.6562 64.9088 24.7969 65.5533 24.084C66.1979 23.3613 66.9596 22.8096 67.8385 22.4287C68.7174 22.0479 69.6695 21.8574 70.6949 21.8574C71.8277 21.8574 72.8189 22.0479 73.6686 22.4287C74.5182 22.8096 75.2213 23.3467 75.7779 24.04C76.3443 24.7236 76.7643 25.5391 77.0377 26.4863C77.3209 27.4336 77.4625 28.4785 77.4625 29.6211V31.1299H65.2164V28.5957H73.9762V28.3174C73.9566 27.6826 73.8297 27.0869 73.5953 26.5303C73.3707 25.9736 73.024 25.5244 72.5553 25.1826C72.0865 24.8408 71.4615 24.6699 70.6803 24.6699C70.0943 24.6699 69.5719 24.7969 69.1129 25.0508C68.6637 25.2949 68.2877 25.6514 67.985 26.1201C67.6822 26.5889 67.4479 27.1553 67.2818 27.8193C67.1256 28.4736 67.0475 29.2109 67.0475 30.0312V30.6172C67.0475 31.3105 67.1402 31.9551 67.3258 32.5508C67.5211 33.1367 67.8043 33.6494 68.1754 34.0889C68.5465 34.5283 68.9957 34.875 69.523 35.1289C70.0504 35.373 70.651 35.4951 71.3248 35.4951C72.1744 35.4951 72.9313 35.3242 73.5953 34.9824C74.2594 34.6406 74.8355 34.1572 75.3238 33.5322L77.1842 35.334C76.8424 35.832 76.398 36.3105 75.8512 36.7695C75.3043 37.2188 74.6354 37.585 73.8443 37.8682C73.0631 38.1514 72.1549 38.293 71.1197 38.293ZM88.058 33.708C88.058 33.3564 87.9701 33.0391 87.7943 32.7559C87.6186 32.4629 87.2816 32.1992 86.7836 31.9648C86.2953 31.7305 85.5727 31.5156 84.6156 31.3203C83.7758 31.1348 83.0043 30.915 82.3012 30.6611C81.6078 30.3975 81.0121 30.0801 80.5141 29.709C80.016 29.3379 79.6303 28.8984 79.3568 28.3906C79.0834 27.8828 78.9467 27.2969 78.9467 26.6328C78.9467 25.9883 79.0883 25.3779 79.3715 24.8018C79.6547 24.2256 80.06 23.7178 80.5873 23.2783C81.1146 22.8389 81.7543 22.4922 82.5062 22.2383C83.268 21.9844 84.1176 21.8574 85.0551 21.8574C86.3832 21.8574 87.5209 22.082 88.4682 22.5312C89.4252 22.9707 90.1576 23.5713 90.6654 24.333C91.1732 25.085 91.4271 25.9346 91.4271 26.8818H87.8969C87.8969 26.4619 87.7895 26.0713 87.5746 25.71C87.3695 25.3389 87.057 25.041 86.6371 24.8164C86.2172 24.582 85.6898 24.4648 85.0551 24.4648C84.4496 24.4648 83.9467 24.5625 83.5463 24.7578C83.1557 24.9434 82.8627 25.1875 82.6674 25.4902C82.4818 25.793 82.3891 26.125 82.3891 26.4863C82.3891 26.75 82.4379 26.9893 82.5355 27.2041C82.643 27.4092 82.8187 27.5996 83.0629 27.7754C83.307 27.9414 83.6391 28.0977 84.059 28.2441C84.4887 28.3906 85.0258 28.5322 85.6703 28.6689C86.8812 28.9229 87.9213 29.25 88.7904 29.6504C89.6693 30.041 90.3432 30.5488 90.8119 31.1738C91.2807 31.7891 91.515 32.5703 91.515 33.5176C91.515 34.2207 91.3637 34.8652 91.0609 35.4512C90.768 36.0273 90.3383 36.5303 89.7719 36.96C89.2055 37.3799 88.5268 37.707 87.7357 37.9414C86.9545 38.1758 86.0756 38.293 85.099 38.293C83.6635 38.293 82.4477 38.0391 81.4516 37.5312C80.4555 37.0137 79.6986 36.3545 79.1811 35.5537C78.6732 34.7432 78.4193 33.9033 78.4193 33.0342H81.8324C81.8715 33.6885 82.0521 34.2109 82.3744 34.6016C82.7064 34.9824 83.1166 35.2607 83.6049 35.4365C84.1029 35.6025 84.6156 35.6855 85.143 35.6855C85.7777 35.6855 86.31 35.6025 86.7396 35.4365C87.1693 35.2607 87.4965 35.0264 87.7211 34.7334C87.9457 34.4307 88.058 34.0889 88.058 33.708ZM100.821 22.1504V24.7285H91.8859V22.1504H100.821ZM94.4641 18.2686H97.9943V33.6201C97.9943 34.1084 98.0627 34.4844 98.1994 34.748C98.3459 35.002 98.5461 35.1729 98.8 35.2607C99.0539 35.3486 99.3518 35.3926 99.6936 35.3926C99.9377 35.3926 100.172 35.3779 100.397 35.3486C100.621 35.3193 100.802 35.29 100.939 35.2607L100.953 37.9561C100.66 38.0439 100.319 38.1221 99.9279 38.1904C99.5471 38.2588 99.1076 38.293 98.6096 38.293C97.799 38.293 97.0812 38.1514 96.4562 37.8682C95.8312 37.5752 95.343 37.1016 94.9914 36.4473C94.6398 35.793 94.4641 34.9238 94.4641 33.8398V18.2686ZM106.275 15.5V38H102.73V15.5H106.275ZM116.08 38.293C114.908 38.293 113.848 38.1025 112.901 37.7217C111.964 37.3311 111.163 36.7891 110.499 36.0957C109.845 35.4023 109.342 34.5869 108.99 33.6494C108.638 32.7119 108.463 31.7012 108.463 30.6172V30.0312C108.463 28.791 108.643 27.668 109.005 26.6621C109.366 25.6562 109.869 24.7969 110.513 24.084C111.158 23.3613 111.92 22.8096 112.799 22.4287C113.678 22.0479 114.63 21.8574 115.655 21.8574C116.788 21.8574 117.779 22.0479 118.629 22.4287C119.478 22.8096 120.181 23.3467 120.738 24.04C121.304 24.7236 121.724 25.5391 121.998 26.4863C122.281 27.4336 122.423 28.4785 122.423 29.6211V31.1299H110.177V28.5957H118.936V28.3174C118.917 27.6826 118.79 27.0869 118.555 26.5303C118.331 25.9736 117.984 25.5244 117.515 25.1826C117.047 24.8408 116.422 24.6699 115.64 24.6699C115.054 24.6699 114.532 24.7969 114.073 25.0508C113.624 25.2949 113.248 25.6514 112.945 26.1201C112.642 26.5889 112.408 27.1553 112.242 27.8193C112.086 28.4736 112.008 29.2109 112.008 30.0312V30.6172C112.008 31.3105 112.1 31.9551 112.286 32.5508C112.481 33.1367 112.764 33.6494 113.136 34.0889C113.507 34.5283 113.956 34.875 114.483 35.1289C115.011 35.373 115.611 35.4951 116.285 35.4951C117.135 35.4951 117.891 35.3242 118.555 34.9824C119.22 34.6406 119.796 34.1572 120.284 33.5322L122.144 35.334C121.803 35.832 121.358 36.3105 120.811 36.7695C120.264 37.2188 119.596 37.585 118.804 37.8682C118.023 38.1514 117.115 38.293 116.08 38.293ZM138.999 30.0459H133.448V27.1309H138.999C139.966 27.1309 140.747 26.9746 141.343 26.6621C141.939 26.3496 142.373 25.9199 142.647 25.373C142.93 24.8164 143.072 24.1816 143.072 23.4688C143.072 22.7949 142.93 22.165 142.647 21.5791C142.373 20.9834 141.939 20.5049 141.343 20.1436C140.747 19.7822 139.966 19.6016 138.999 19.6016H134.576V38H130.899V16.6719H138.999C140.65 16.6719 142.051 16.9648 143.204 17.5508C144.366 18.127 145.249 18.9277 145.855 19.9531C146.46 20.9688 146.763 22.1309 146.763 23.4395C146.763 24.8164 146.46 25.998 145.855 26.9844C145.249 27.9707 144.366 28.7275 143.204 29.2549C142.051 29.7822 140.65 30.0459 138.999 30.0459ZM152.202 25.168V38H148.672V22.1504H152.041L152.202 25.168ZM157.051 22.0479L157.022 25.3291C156.807 25.29 156.572 25.2607 156.319 25.2412C156.074 25.2217 155.83 25.2119 155.586 25.2119C154.981 25.2119 154.448 25.2998 153.989 25.4756C153.53 25.6416 153.145 25.8857 152.832 26.208C152.529 26.5205 152.295 26.9014 152.129 27.3506C151.963 27.7998 151.865 28.3027 151.836 28.8594L151.03 28.918C151.03 27.9219 151.128 26.999 151.323 26.1494C151.519 25.2998 151.812 24.5527 152.202 23.9082C152.603 23.2637 153.101 22.7607 153.696 22.3994C154.302 22.0381 155 21.8574 155.791 21.8574C156.006 21.8574 156.236 21.877 156.48 21.916C156.734 21.9551 156.924 21.999 157.051 22.0479ZM164.907 38.293C163.735 38.293 162.676 38.1025 161.729 37.7217C160.791 37.3311 159.99 36.7891 159.326 36.0957C158.672 35.4023 158.169 34.5869 157.817 33.6494C157.466 32.7119 157.29 31.7012 157.29 30.6172V30.0312C157.29 28.791 157.471 27.668 157.832 26.6621C158.193 25.6562 158.696 24.7969 159.341 24.084C159.985 23.3613 160.747 22.8096 161.626 22.4287C162.505 22.0479 163.457 21.8574 164.482 21.8574C165.615 21.8574 166.606 22.0479 167.456 22.4287C168.306 22.8096 169.009 23.3467 169.565 24.04C170.132 24.7236 170.552 25.5391 170.825 26.4863C171.108 27.4336 171.25 28.4785 171.25 29.6211V31.1299H159.004V28.5957H167.764V28.3174C167.744 27.6826 167.617 27.0869 167.383 26.5303C167.158 25.9736 166.812 25.5244 166.343 25.1826C165.874 24.8408 165.249 24.6699 164.468 24.6699C163.882 24.6699 163.359 24.7969 162.9 25.0508C162.451 25.2949 162.075 25.6514 161.772 26.1201C161.47 26.5889 161.235 27.1553 161.069 27.8193C160.913 28.4736 160.835 29.2109 160.835 30.0312V30.6172C160.835 31.3105 160.928 31.9551 161.113 32.5508C161.309 33.1367 161.592 33.6494 161.963 34.0889C162.334 34.5283 162.783 34.875 163.311 35.1289C163.838 35.373 164.438 35.4951 165.112 35.4951C165.962 35.4951 166.719 35.3242 167.383 34.9824C168.047 34.6406 168.623 34.1572 169.111 33.5322L170.972 35.334C170.63 35.832 170.186 36.3105 169.639 36.7695C169.092 37.2188 168.423 37.585 167.632 37.8682C166.851 38.1514 165.942 38.293 164.907 38.293ZM182.622 34.7188V15.5H186.167V38H182.959L182.622 34.7188ZM172.309 30.251V29.9434C172.309 28.7422 172.451 27.6484 172.734 26.6621C173.017 25.666 173.428 24.8115 173.965 24.0986C174.502 23.376 175.156 22.8242 175.928 22.4434C176.699 22.0527 177.568 21.8574 178.535 21.8574C179.492 21.8574 180.332 22.043 181.054 22.4141C181.777 22.7852 182.392 23.3174 182.9 24.0107C183.408 24.6943 183.813 25.5146 184.116 26.4717C184.419 27.4189 184.634 28.4736 184.761 29.6357V30.6172C184.634 31.75 184.419 32.7852 184.116 33.7227C183.813 34.6602 183.408 35.4707 182.9 36.1543C182.392 36.8379 181.772 37.3652 181.04 37.7363C180.317 38.1074 179.472 38.293 178.506 38.293C177.549 38.293 176.684 38.0928 175.913 37.6924C175.151 37.292 174.502 36.7305 173.965 36.0078C173.428 35.2852 173.017 34.4355 172.734 33.459C172.451 32.4727 172.309 31.4033 172.309 30.251ZM175.84 29.9434V30.251C175.84 30.9736 175.903 31.6475 176.03 32.2725C176.167 32.8975 176.377 33.4492 176.66 33.9277C176.943 34.3965 177.309 34.7676 177.759 35.041C178.218 35.3047 178.764 35.4365 179.399 35.4365C180.2 35.4365 180.859 35.2607 181.377 34.9092C181.894 34.5576 182.3 34.084 182.593 33.4883C182.895 32.8828 183.1 32.209 183.208 31.4668V28.8154C183.149 28.2393 183.027 27.7021 182.842 27.2041C182.666 26.7061 182.427 26.2715 182.124 25.9004C181.821 25.5195 181.445 25.2266 180.996 25.0215C180.556 24.8066 180.034 24.6992 179.429 24.6992C178.784 24.6992 178.237 24.8359 177.788 25.1094C177.339 25.3828 176.968 25.7588 176.675 26.2373C176.391 26.7158 176.181 27.2725 176.045 27.9072C175.908 28.542 175.84 29.2207 175.84 29.9434ZM192.587 22.1504V38H189.043V22.1504H192.587ZM188.808 17.9902C188.808 17.4531 188.984 17.0088 189.336 16.6572C189.697 16.2959 190.195 16.1152 190.83 16.1152C191.455 16.1152 191.948 16.2959 192.309 16.6572C192.671 17.0088 192.851 17.4531 192.851 17.9902C192.851 18.5176 192.671 18.957 192.309 19.3086C191.948 19.6602 191.455 19.8359 190.83 19.8359C190.195 19.8359 189.697 19.6602 189.336 19.3086C188.984 18.957 188.808 18.5176 188.808 17.9902ZM201.879 35.4805C202.455 35.4805 202.973 35.3682 203.432 35.1436C203.901 34.9092 204.277 34.5869 204.56 34.1768C204.853 33.7666 205.014 33.293 205.043 32.7559H208.369C208.349 33.7812 208.046 34.7139 207.46 35.5537C206.874 36.3936 206.098 37.0625 205.131 37.5605C204.164 38.0488 203.095 38.293 201.923 38.293C200.712 38.293 199.658 38.0879 198.759 37.6777C197.861 37.2578 197.114 36.6816 196.518 35.9492C195.922 35.2168 195.473 34.3721 195.17 33.415C194.877 32.458 194.731 31.4326 194.731 30.3389V29.8262C194.731 28.7324 194.877 27.707 195.17 26.75C195.473 25.7832 195.922 24.9336 196.518 24.2012C197.114 23.4688 197.861 22.8975 198.759 22.4873C199.658 22.0674 200.707 21.8574 201.909 21.8574C203.178 21.8574 204.291 22.1113 205.248 22.6191C206.205 23.1172 206.957 23.8154 207.504 24.7139C208.061 25.6025 208.349 26.6377 208.369 27.8193H205.043C205.014 27.2334 204.868 26.7061 204.604 26.2373C204.35 25.7588 203.989 25.3779 203.52 25.0947C203.061 24.8115 202.509 24.6699 201.865 24.6699C201.152 24.6699 200.561 24.8164 200.092 25.1094C199.623 25.3926 199.257 25.7832 198.994 26.2812C198.73 26.7695 198.539 27.3213 198.422 27.9365C198.315 28.542 198.261 29.1719 198.261 29.8262V30.3389C198.261 30.9932 198.315 31.6279 198.422 32.2432C198.53 32.8584 198.715 33.4102 198.979 33.8984C199.252 34.377 199.623 34.7627 200.092 35.0557C200.561 35.3389 201.157 35.4805 201.879 35.4805ZM217.294 22.1504V24.7285H208.359V22.1504H217.294ZM210.937 18.2686H214.467V33.6201C214.467 34.1084 214.535 34.4844 214.672 34.748C214.819 35.002 215.019 35.1729 215.273 35.2607C215.527 35.3486 215.824 35.3926 216.166 35.3926C216.41 35.3926 216.645 35.3779 216.869 35.3486C217.094 35.3193 217.275 35.29 217.411 35.2607L217.426 37.9561C217.133 38.0439 216.791 38.1221 216.401 38.1904C216.02 38.2588 215.58 38.293 215.082 38.293C214.272 38.293 213.554 38.1514 212.929 37.8682C212.304 37.5752 211.816 37.1016 211.464 36.4473C211.113 35.793 210.937 34.9238 210.937 33.8398V18.2686ZM222.748 22.1504V38H219.203V22.1504H222.748ZM218.969 17.9902C218.969 17.4531 219.145 17.0088 219.496 16.6572C219.857 16.2959 220.355 16.1152 220.99 16.1152C221.615 16.1152 222.108 16.2959 222.47 16.6572C222.831 17.0088 223.012 17.4531 223.012 17.9902C223.012 18.5176 222.831 18.957 222.47 19.3086C222.108 19.6602 221.615 19.8359 220.99 19.8359C220.355 19.8359 219.857 19.6602 219.496 19.3086C219.145 18.957 218.969 18.5176 218.969 17.9902ZM224.891 30.251V29.9141C224.891 28.7715 225.057 27.7119 225.389 26.7354C225.721 25.749 226.2 24.8945 226.825 24.1719C227.46 23.4395 228.231 22.873 229.139 22.4727C230.057 22.0625 231.093 21.8574 232.245 21.8574C233.407 21.8574 234.442 22.0625 235.35 22.4727C236.268 22.873 237.045 23.4395 237.679 24.1719C238.314 24.8945 238.798 25.749 239.13 26.7354C239.462 27.7119 239.628 28.7715 239.628 29.9141V30.251C239.628 31.3936 239.462 32.4531 239.13 33.4297C238.798 34.4062 238.314 35.2607 237.679 35.9932C237.045 36.7158 236.273 37.2822 235.365 37.6924C234.457 38.0928 233.427 38.293 232.274 38.293C231.112 38.293 230.072 38.0928 229.154 37.6924C228.246 37.2822 227.474 36.7158 226.84 35.9932C226.205 35.2607 225.721 34.4062 225.389 33.4297C225.057 32.4531 224.891 31.3936 224.891 30.251ZM228.422 29.9141V30.251C228.422 30.9639 228.495 31.6377 228.641 32.2725C228.788 32.9072 229.017 33.4639 229.33 33.9424C229.642 34.4209 230.043 34.7969 230.531 35.0703C231.019 35.3438 231.6 35.4805 232.274 35.4805C232.929 35.4805 233.495 35.3438 233.973 35.0703C234.462 34.7969 234.862 34.4209 235.175 33.9424C235.487 33.4639 235.717 32.9072 235.863 32.2725C236.019 31.6377 236.097 30.9639 236.097 30.251V29.9141C236.097 29.2109 236.019 28.5469 235.863 27.9219C235.717 27.2871 235.482 26.7256 235.16 26.2373C234.847 25.749 234.447 25.3682 233.959 25.0947C233.48 24.8115 232.909 24.6699 232.245 24.6699C231.581 24.6699 231.005 24.8115 230.516 25.0947C230.038 25.3682 229.642 25.749 229.33 26.2373C229.017 26.7256 228.788 27.2871 228.641 27.9219C228.495 28.5469 228.422 29.2109 228.422 29.9141ZM245.038 25.5342V38H241.507V22.1504H244.833L245.038 25.5342ZM244.408 29.4893L243.265 29.4746C243.275 28.3516 243.431 27.3213 243.734 26.3838C244.046 25.4463 244.476 24.6406 245.023 23.9668C245.58 23.293 246.244 22.7754 247.015 22.4141C247.787 22.043 248.646 21.8574 249.593 21.8574C250.355 21.8574 251.044 21.9648 251.659 22.1797C252.284 22.3848 252.816 22.7217 253.255 23.1904C253.705 23.6592 254.046 24.2695 254.281 25.0215C254.515 25.7637 254.632 26.6768 254.632 27.7607V38H251.087V27.7461C251.087 26.9844 250.975 26.3838 250.751 25.9443C250.536 25.4951 250.218 25.1777 249.798 24.9922C249.388 24.7969 248.876 24.6992 248.26 24.6992C247.655 24.6992 247.113 24.8262 246.634 25.0801C246.156 25.334 245.751 25.6807 245.419 26.1201C245.096 26.5596 244.847 27.0674 244.671 27.6436C244.496 28.2197 244.408 28.835 244.408 29.4893Z" fill="black"/>
<rect x="246.193" y="140.125" width="23.2258" height="23.75" rx="11.6129" fill="#2D258E"/>
<path d="M254.009 160.03C254.128 160.122 254.268 160.194 254.422 160.242C254.576 160.289 254.74 160.312 254.906 160.308C255.071 160.304 255.234 160.274 255.386 160.219C255.538 160.164 255.675 160.085 255.789 159.987L263.996 153.012C264.088 152.935 264.16 152.843 264.208 152.743C264.256 152.644 264.28 152.537 264.277 152.43C264.275 152.324 264.247 152.219 264.194 152.121C264.141 152.024 264.065 151.936 263.97 151.863L255.455 145.286C254.953 144.898 254.158 144.917 253.674 145.328C253.19 145.74 253.205 146.384 253.707 146.772L261.126 152.51L253.966 158.595C253.492 158.998 253.507 159.65 254.009 160.03Z" fill="white"/>
<path d="M195.157 54.8799L197.307 55.5991C197.307 55.542 197.307 55.4875 197.307 55.4329V55.0708C197.307 54.4285 198.089 54.1681 199.053 54.4905C199.467 54.6373 199.821 54.8335 200.093 55.0659C200.248 54.2599 201.345 53.9598 202.673 54.4037C203.434 54.6888 204.067 55.0735 204.52 55.5265C204.974 55.9794 205.235 56.4878 205.283 57.0102V57.5484C205.294 57.7636 205.219 57.9774 205.064 58.1733L206.87 58.771C207.151 58.8774 207.385 59.0203 207.553 59.1882C207.721 59.3562 207.819 59.5446 207.838 59.7382C207.838 60.0928 207.408 60.2342 206.87 60.0606L195.174 56.167C194.893 56.0606 194.659 55.9177 194.491 55.7498C194.323 55.5818 194.225 55.3934 194.207 55.1998C194.189 54.8452 194.624 54.6988 195.157 54.8799Z" fill="#EBEBEB"/>
<path d="M64.179 54.2228L62.029 54.9395C62.0354 54.885 62.0354 54.8304 62.029 54.7759V54.4163C62.029 53.7739 61.2507 53.5135 60.2875 53.8335C59.8736 53.9814 59.519 54.1784 59.2469 54.4113C59.0878 53.6028 57.9913 53.3027 56.6669 53.7467C55.9076 54.0324 55.2757 54.4173 54.8222 54.8701C54.3688 55.323 54.1066 55.831 54.0568 56.3531V56.8938C54.0478 57.1092 54.1243 57.323 54.2804 57.5187L52.5002 58.1164C52.2196 58.2225 51.986 58.365 51.818 58.5326C51.65 58.7001 51.5523 58.8879 51.5327 59.0811C51.5327 59.4383 51.9627 59.5771 52.5002 59.4035L64.1919 55.5099C64.4725 55.4038 64.7062 55.2613 64.8742 55.0938C65.0422 54.9263 65.1399 54.7384 65.1594 54.5452C65.1465 54.1881 64.7122 54.0443 64.179 54.2228Z" fill="#EBEBEB"/>
<path d="M209.424 51.5716L210.611 51.8369V50.3241C210.611 49.1263 212.271 48.8361 214.073 49.4363C215.021 49.7935 215.81 50.2743 216.376 50.84C216.943 51.4057 217.27 52.0403 217.332 52.6925V52.9133C217.585 52.868 217.852 52.8565 218.114 52.8797C218.375 52.9029 218.624 52.9602 218.841 53.0472V53.0472C219.526 53.303 220.096 53.6488 220.504 54.0561C220.912 54.4635 221.147 54.9209 221.189 55.3908V55.49L222.849 56.043C223.298 56.2121 223.672 56.4399 223.941 56.7079C224.209 56.9759 224.364 57.2766 224.393 57.5856C224.393 58.1535 223.7 58.3841 222.849 58.0989L209.424 53.6399C208.974 53.4711 208.6 53.2434 208.331 52.9754C208.062 52.7074 207.906 52.4066 207.876 52.0973C207.876 51.5195 208.59 51.2889 209.424 51.5716Z" fill="#EBEBEB"/>
<path d="M172.645 112.645C169.969 110.582 168.337 109.256 164.804 108.876C164.804 108.876 167.72 107.823 168.756 106.748C169.791 105.672 171.455 102.857 171.455 102.857C172.392 102.585 173.205 102.119 173.797 101.514C174.39 100.908 174.738 100.189 174.799 99.441C175.123 96.865 171.768 93.4372 171.799 93.0481L159.041 98.5685C159.041 98.5685 156.176 106.084 155.662 109.049C155.215 111.628 155.203 112.448 157.903 113.471C161.855 114.983 176.123 117.579 176.123 117.579L176.914 114.458C175.937 114.464 174.376 113.983 172.645 112.645Z" fill="#37474F"/>
<path d="M155.649 109.05C155.649 109.05 160.151 110.75 164.803 108.876C164.803 108.876 167.672 108.457 169.107 107.033C170.542 105.61 171.7 103.052 171.7 103.052C172.542 102.798 173.285 102.389 173.859 101.864C174.433 101.339 174.82 100.715 174.984 100.048C175.561 97.7404 173.162 95.1437 171.866 93.6082L159.029 98.5686C158.448 100.016 157.594 101.097 156.843 103.673C156.092 106.249 155.649 109.05 155.649 109.05Z" fill="#BA68C8"/>
<path opacity="0.5" d="M155.649 109.05C155.649 109.05 160.151 110.75 164.803 108.876C164.803 108.876 167.672 108.457 169.107 107.033C170.542 105.61 171.7 103.052 171.7 103.052C172.542 102.798 173.285 102.389 173.859 101.864C174.433 101.339 174.82 100.715 174.984 100.048C175.561 97.7404 173.162 95.1437 171.866 93.6082L159.029 98.5686C158.448 100.016 157.594 101.097 156.843 103.673C156.092 106.249 155.649 109.05 155.649 109.05Z" fill="black"/>
<path d="M175.383 119.48C175.439 119.713 175.466 119.951 175.506 120.187C175.617 120.777 175.569 120.945 175.458 121.071C175.091 121.443 174.162 121.396 173.221 121.785C171.842 122.354 172.352 123.497 172.352 123.497C172.352 123.497 173.775 124.429 175.055 124.496C175.93 124.522 176.797 124.367 177.561 124.048C178.707 123.409 181.533 121.758 181.454 121.614C181.375 121.469 180.932 115.218 180.905 115.174C180.652 114.758 179.929 114.614 179.395 114.511C179.146 114.463 178.889 114.458 178.64 114.422C178.229 114.354 177.831 114.249 177.454 114.11C176.545 113.794 175.834 114.543 175.296 114.994C175.158 115.123 175.039 115.262 174.941 115.41C174.893 115.462 174.854 115.519 174.822 115.578C174.682 115.914 174.661 116.271 174.763 116.615C174.81 116.783 174.871 116.948 174.945 117.11C174.992 117.299 175.07 117.484 175.178 117.658L174.466 116.88C174.311 117 174.206 117.15 174.164 117.314C174.123 117.477 174.147 117.646 174.233 117.8C174.831 118.262 175.232 118.847 175.383 119.48V119.48Z" fill="#37474F"/>
<path d="M181.423 115.371C182.028 115.474 182.043 116.845 181.901 118.024C181.759 119.203 181.636 119.606 182.004 120.526C182.371 121.446 182.557 121.852 182.111 122.253C181.664 122.654 177.858 124.517 177.858 124.517C178.196 123.326 178.273 122.101 178.087 120.892C177.791 118.799 177.716 117.44 178.826 116.356C179.117 116.045 179.506 115.793 179.959 115.621C180.412 115.449 180.915 115.363 181.423 115.371V115.371Z" fill="black"/>
<path d="M181.49 119.114C181.49 119.114 182.202 119.032 182.281 118.929C182.345 118.881 182.386 118.819 182.396 118.752C182.406 118.685 182.385 118.617 182.337 118.56C182.288 118.503 182.215 118.461 182.129 118.439C182.044 118.418 181.951 118.419 181.866 118.442L181.49 119.114Z" fill="black"/>
<path d="M181.854 120.93C181.854 120.93 182.479 120.668 182.502 120.553C182.51 120.479 182.497 120.404 182.465 120.334C182.433 120.264 182.383 120.199 182.317 120.143C182.115 120.137 181.912 120.152 181.716 120.187L181.854 120.93Z" fill="black"/>
<path d="M181.613 122.283C181.613 122.283 182.269 122.504 182.403 122.448C182.488 122.408 182.56 122.356 182.616 122.295C182.673 122.234 182.712 122.164 182.731 122.091C182.621 121.967 182.488 121.855 182.336 121.758L181.613 122.283Z" fill="black"/>
<path d="M178.495 123.951C178.495 123.951 179.017 124.322 179.171 124.305C179.268 124.288 179.36 124.257 179.44 124.213C179.521 124.17 179.589 124.115 179.641 124.051C179.59 123.905 179.512 123.765 179.408 123.636L178.495 123.951Z" fill="black"/>
<path d="M179.889 123.247C179.889 123.247 180.411 123.615 180.565 123.601C180.662 123.584 180.754 123.553 180.834 123.509C180.915 123.466 180.983 123.411 181.035 123.347C180.981 123.2 180.899 123.059 180.79 122.929L179.889 123.247Z" fill="black"/>
<path d="M181.641 117.753C181.641 117.753 182.353 117.67 182.432 117.57C182.471 117.502 182.491 117.429 182.491 117.355C182.491 117.281 182.471 117.208 182.432 117.14C182.299 117.085 182.146 117.066 181.997 117.084L181.641 117.753Z" fill="black"/>
<path d="M181.581 115.731C181.581 115.731 182.289 115.819 182.372 115.919C182.41 115.988 182.429 116.062 182.429 116.136C182.429 116.21 182.41 116.284 182.372 116.353C182.236 116.403 182.083 116.422 181.933 116.406L181.581 115.731Z" fill="black"/>
<path d="M172.353 123.486C173.383 124.05 174.632 124.349 175.91 124.338C177.763 124.311 178.143 123.232 178.02 121.599C177.898 119.967 177.412 117.738 178.072 116.666C178.732 115.593 180.317 115.121 180.898 115.162C181.086 115.207 181.262 115.278 181.415 115.372C180.901 115.383 180.398 115.486 179.948 115.672C179.499 115.858 179.115 116.122 178.831 116.442C177.866 117.402 178.261 119.253 178.518 120.863C178.775 122.472 179.04 124.317 177.376 124.694C175.712 125.072 173.819 124.721 172.538 124.143C172.437 124.054 172.366 123.947 172.334 123.832C172.301 123.717 172.308 123.598 172.353 123.486V123.486Z" fill="#263238"/>
<path d="M180.74 129.377C178.886 126.822 177.74 120.011 176.887 118.675C175.424 116.385 173.855 115.36 171.828 113.818C171.828 113.818 172.681 109.067 172.907 103.883C173.859 102.191 174.511 100.531 174.507 99.1284C174.507 97.8168 174.159 97.0328 172.602 94.9048L161.619 103.01C161.619 103.01 161.852 109.919 162.366 113.27C162.607 114.838 162.919 115.778 163.824 116.972C164.615 118.021 175.408 129.003 177.049 132.222C177.539 133.182 182.598 131.933 180.74 129.377Z" fill="#455A64"/>
<path d="M158.908 98.2947C159.56 99.4029 159.09 102.972 159.983 106.995C160.556 109.586 162.05 112.139 162.481 113.931C162.481 113.931 166.065 111.408 171.966 113.17C172.231 111.511 173.223 109.896 173.591 107.865C173.986 105.651 173.31 104.222 173.591 103.37C173.591 103.37 176.27 100.838 175.705 98.2681C175.081 95.4062 172.65 94.5456 171.792 93.0513C163.643 95.2913 158.908 98.2947 158.908 98.2947Z" fill="#BA68C8"/>
<path opacity="0.3" d="M158.908 98.2947C159.56 99.4029 159.09 102.972 159.983 106.995C160.556 109.586 162.05 112.139 162.481 113.931C162.481 113.931 166.065 111.408 171.966 113.17C172.231 111.511 173.223 109.896 173.591 107.865C173.986 105.651 173.31 104.222 173.591 103.37C173.591 103.37 176.27 100.838 175.705 98.2681C175.081 95.4062 172.65 94.5456 171.792 93.0513C163.643 95.2913 158.908 98.2947 158.908 98.2947Z" fill="black"/>
<path d="M165.132 112.86C165.606 112.746 166.093 112.663 166.586 112.613C165.65 109.32 164.12 102.032 164.262 95.6387C163.642 95.898 163.077 96.1515 162.555 96.3903C162.377 101.383 163.986 109.049 165.132 112.86Z" fill="#E0E0E0"/>
<path d="M176.767 134.037C176.767 134.276 176.724 134.512 176.704 134.751C176.656 135.355 176.569 135.505 176.431 135.599C175.977 135.909 175.076 135.732 174.06 135.977C172.562 136.339 172.767 137.533 172.767 137.533C172.767 137.533 173.921 138.653 175.162 138.903C176.014 139.053 176.904 139.025 177.735 138.824C179.024 138.358 182.225 137.144 182.186 136.994C182.146 136.843 183.324 130.642 183.308 130.592C183.186 130.217 182.648 130.002 182.245 129.796C182.032 129.693 181.814 129.599 181.597 129.501C181.326 129.332 181.09 129.133 180.897 128.912C180.821 128.831 180.719 128.767 180.601 128.723C180.483 128.701 180.36 128.698 180.239 128.712C180.119 128.727 180.004 128.76 179.901 128.809C179.642 128.883 179.389 128.967 179.142 129.062C178.656 129.244 178.21 129.479 177.818 129.761C177.505 129.936 177.249 130.162 177.067 130.421C176.779 131.096 176.977 131.514 177.067 132.21L176.538 131.343C176.354 131.437 176.212 131.57 176.129 131.724C176.046 131.878 176.026 132.047 176.071 132.21C176.541 132.754 176.783 133.39 176.767 134.037V134.037Z" fill="#37474F"/>
<path d="M183.756 130.887C184.321 131.076 183.981 132.428 183.538 133.554C183.096 134.68 182.874 135.069 182.997 136.021C183.119 136.973 183.194 137.404 182.653 137.734C182.111 138.064 177.91 139.343 177.91 139.343C178.549 138.218 178.94 137.024 179.068 135.806C179.317 133.711 179.594 132.367 180.965 131.462C181.333 131.204 181.779 131.017 182.265 130.916C182.751 130.816 183.263 130.806 183.756 130.887V130.887Z" fill="black"/>
<path d="M182.811 134.571C182.811 134.571 183.53 134.589 183.629 134.5C183.744 134.378 183.79 134.226 183.756 134.079C183.637 134.009 183.492 133.967 183.341 133.961L182.811 134.571Z" fill="black"/>
<path d="M182.717 136.407C182.717 136.407 183.401 136.233 183.452 136.112C183.477 136.041 183.482 135.966 183.468 135.892C183.454 135.819 183.42 135.749 183.369 135.685C183.172 135.65 182.97 135.637 182.768 135.647L182.717 136.407Z" fill="black"/>
<path d="M182.147 137.704C182.147 137.704 182.74 137.999 182.89 137.975C183.067 137.918 183.209 137.813 183.285 137.68C183.206 137.541 183.1 137.412 182.969 137.297L182.147 137.704Z" fill="black"/>
<path d="M178.673 138.915C178.673 138.915 179.096 139.352 179.25 139.355C179.35 139.352 179.448 139.335 179.538 139.303C179.628 139.272 179.709 139.227 179.776 139.172C179.76 139.022 179.718 138.874 179.649 138.733L178.673 138.915Z" fill="black"/>
<path d="M180.218 138.414C180.218 138.414 180.637 138.844 180.791 138.844C180.89 138.842 180.988 138.824 181.077 138.793C181.167 138.761 181.247 138.717 181.313 138.662C181.301 138.512 181.26 138.364 181.191 138.222L180.218 138.414Z" fill="black"/>
<path d="M183.292 133.245C183.292 133.245 184.012 133.245 184.115 133.171C184.172 133.111 184.213 133.042 184.234 132.97C184.255 132.897 184.256 132.822 184.237 132.749C184.119 132.679 183.973 132.639 183.822 132.635L183.292 133.245Z" fill="black"/>
<path d="M183.711 131.255C183.711 131.255 184.387 131.438 184.439 131.55C184.462 131.621 184.465 131.696 184.449 131.769C184.433 131.842 184.397 131.912 184.344 131.974C184.2 132.009 184.045 132.009 183.901 131.974L183.711 131.255Z" fill="black"/>
<path d="M172.759 137.533C173.624 138.237 174.775 138.711 176.035 138.883C177.861 139.122 178.509 138.117 178.802 136.499C179.094 134.881 179.197 132.623 180.126 131.665C181.055 130.707 182.726 130.471 183.288 130.592C183.459 130.666 183.613 130.761 183.742 130.872C183.234 130.809 182.714 130.839 182.224 130.957C181.734 131.075 181.29 131.28 180.928 131.553C179.742 132.358 179.64 134.232 179.481 135.836C179.323 137.439 179.086 139.299 177.375 139.428C176.535 139.465 175.694 139.374 174.902 139.162C174.111 138.951 173.384 138.622 172.766 138.196C172.693 138.095 172.654 137.981 172.653 137.866C172.651 137.75 172.688 137.636 172.759 137.533V137.533Z" fill="#263238"/>
<path d="M147.416 74.2378L149.712 77.7835L156.968 76.3481L153.953 71.479L147.416 74.2378Z" fill="#F28F8F"/>
<path d="M141.661 68.9199C141.661 68.9199 140.444 70.9831 140.673 71.1305C140.903 71.2778 142.159 71.2867 142.159 71.2867L141.661 68.9199Z" fill="#F28F8F"/>
<path d="M144.922 63.518C141.97 64.4258 141.006 65.3896 141.614 69.0679C142.254 72.9143 143.393 74.2052 144.191 74.6238C144.729 74.9185 147.258 74.6238 148.46 74.1905C151.372 73.3623 153.463 72.3779 154.673 70.2351C156.092 67.7121 155.712 64.417 153.289 63.4561C149.875 62.1033 146.124 63.1496 144.922 63.518Z" fill="#FFA8A7"/>
<path d="M147.547 74.4437L147.12 73.813C146.307 74.3375 145.267 74.6253 144.191 74.6235C144.61 74.8475 146.278 74.7149 147.547 74.4437Z" fill="#F28F8F"/>
<path d="M139.808 65.5456C139.774 65.7796 139.839 66.0157 139.994 66.2206C140.213 66.476 140.554 66.6588 140.949 66.7313C141.343 66.8037 141.76 66.7601 142.113 66.6096C142.117 66.7489 142.181 66.8835 142.295 66.9942C142.408 67.1048 142.566 67.1858 142.745 67.2256C142.957 67.2655 143.178 67.2693 143.392 67.2366C143.607 67.204 143.808 67.1357 143.982 67.037C144.334 66.8896 144.425 66.8248 144.666 66.9456C144.907 67.0665 144.958 67.4761 145.002 67.6471C145.089 67.9595 145.184 68.3486 145.294 68.7671C145.456 69.3978 146.116 69.8046 146.172 68.9204C146.172 68.9204 146.31 67.4467 147.942 67.4054C149.575 67.3641 150.045 68.6816 149.547 69.8341C149.243 70.5355 147.966 70.5385 147.966 70.5385C147.966 70.5385 148.005 72.2362 150.523 73.1528C151.487 73.2118 153.665 72.8934 154.302 72.2303C155.448 70.4972 156.317 69.6867 156.673 68.0185C157.491 64.3578 155.827 63.0934 154.124 62.4509C154.025 62.4125 153.894 62.0117 153.839 61.9233C153.738 61.7621 153.619 61.6073 153.483 61.4605C153.237 61.1951 152.913 60.9753 152.535 60.818C151.576 60.4857 150.498 60.3957 149.464 60.5616C148.899 60.65 148.349 60.7826 147.78 60.8563C147.263 60.8985 146.74 60.8876 146.227 60.8239C145.105 60.7139 143.963 60.8152 142.907 61.1186C142.62 61.2096 142.36 61.3429 142.144 61.5106C142.06 61.5642 141.99 61.63 141.941 61.704C141.891 61.778 141.862 61.8588 141.855 61.9414C141.849 62.024 141.865 62.1068 141.902 62.1847C141.939 62.2627 141.998 62.3341 142.073 62.3949C141.765 62.3607 141.45 62.3789 141.152 62.4479C140.838 62.5371 140.556 62.6782 140.326 62.8605C140.101 63.0613 139.971 63.3122 139.959 63.5738C139.933 63.7166 139.933 63.8613 139.959 64.0041C139.989 64.162 140.077 64.3106 140.211 64.4344C140.294 64.5239 140.404 64.5976 140.532 64.6496C140.329 64.7495 140.159 64.8817 140.034 65.0367C139.909 65.1917 139.832 65.3656 139.808 65.5456V65.5456Z" fill="#263238"/>
<path d="M141.729 75.4167C141.034 75.4321 140.35 75.2847 139.773 74.9952C138.089 73.9224 138.133 72.375 138.311 71.5497C138.32 71.5119 138.349 71.4783 138.391 71.4558C138.433 71.4333 138.485 71.4237 138.536 71.4289C138.561 71.4317 138.585 71.4383 138.607 71.4482C138.628 71.4581 138.647 71.4711 138.662 71.4865C138.676 71.5019 138.687 71.5193 138.692 71.5378C138.698 71.5562 138.698 71.5753 138.694 71.5939C138.532 72.3632 138.488 73.7956 140.026 74.7771C140.959 75.3666 144.203 75.1426 145.828 74.6769C145.876 74.6634 145.929 74.6645 145.975 74.68C146.022 74.6954 146.058 74.724 146.077 74.7594C146.086 74.7772 146.091 74.7962 146.091 74.8154C146.09 74.8346 146.085 74.8535 146.075 74.871C146.064 74.8886 146.049 74.9044 146.031 74.9177C146.012 74.9309 145.99 74.9412 145.966 74.9481C144.604 75.2948 143.168 75.4536 141.729 75.4167Z" fill="#37474F"/>
<path d="M140.61 72.2748C140.571 72.2727 140.534 72.2624 140.504 72.2452C140.473 72.2279 140.449 72.2045 140.436 72.1776C139.618 70.3826 139.977 67.951 139.993 67.8479C139.999 67.8088 140.025 67.773 140.066 67.7484C140.107 67.7238 140.16 67.7124 140.212 67.7167C140.265 67.721 140.313 67.7407 140.346 67.7713C140.379 67.802 140.394 67.8412 140.388 67.8803C140.388 67.9068 140.021 70.3502 140.811 72.0833C140.82 72.101 140.824 72.12 140.822 72.1389C140.821 72.1578 140.815 72.1763 140.804 72.1933C140.793 72.2104 140.777 72.2256 140.758 72.2381C140.739 72.2505 140.717 72.26 140.693 72.266L140.61 72.2748Z" fill="#37474F"/>
<path d="M156.907 65.021C156.152 62.0146 153.623 59.9367 148.236 59.7363C145.834 59.6505 143.484 60.2778 141.701 61.4809C139.918 62.684 138.847 64.365 138.722 66.1557C138.697 66.483 138.708 66.8112 138.754 67.1372V67.1372C138.857 67.5999 139.845 67.9153 141.916 68.0391C143.987 68.1629 144.145 69.4568 143.892 70.3056C143.758 70.6294 143.534 70.9283 143.233 71.1824C142.933 71.4365 142.563 71.64 142.149 71.7793C141.807 71.9072 141.442 71.9985 141.066 72.0505C139.738 72.2244 139.295 72.5957 140.521 73.5978C141.746 74.6 146.931 75.328 150.797 74.373C154.662 73.4181 155.397 72.1978 156.026 71.4256C156.508 70.6681 157.607 67.3582 156.907 65.021Z" fill="#BA68C8"/>
<path opacity="0.3" d="M156.907 65.021C156.152 62.0146 153.623 59.9367 148.236 59.7363C145.834 59.6505 143.484 60.2778 141.701 61.4809C139.918 62.684 138.847 64.365 138.722 66.1557C138.697 66.483 138.708 66.8112 138.754 67.1372V67.1372C138.857 67.5999 139.845 67.9153 141.916 68.0391C143.987 68.1629 144.145 69.4568 143.892 70.3056C143.758 70.6294 143.534 70.9283 143.233 71.1824C142.933 71.4365 142.563 71.64 142.149 71.7793C141.807 71.9072 141.442 71.9985 141.066 72.0505C139.738 72.2244 139.295 72.5957 140.521 73.5978C141.746 74.6 146.931 75.328 150.797 74.373C154.662 73.4181 155.397 72.1978 156.026 71.4256C156.508 70.6681 157.607 67.3582 156.907 65.021Z" fill="black"/>
<path d="M144.128 71.8117C143.227 72.2538 141.907 72.4188 140.942 72.5367C140.547 72.5868 140.045 72.6517 139.966 72.6694C139.887 72.6871 139.796 72.7224 139.808 72.7961C139.808 72.7961 139.788 72.7961 139.776 72.7961H139.729C138.891 72.6075 138.362 72.2066 138.31 71.6849C138.251 71.0955 138.852 70.5237 139.919 70.1435C139.965 70.1321 140.015 70.1337 140.059 70.148C140.104 70.1623 140.139 70.1883 140.16 70.221C140.18 70.2538 140.184 70.2909 140.17 70.3255C140.156 70.3601 140.126 70.3897 140.085 70.4087C139.172 70.73 138.65 71.1986 138.697 71.6643C138.741 71.8582 138.859 72.0385 139.037 72.1834C139.215 72.3283 139.446 72.4316 139.701 72.4807C139.768 72.4434 139.843 72.4154 139.923 72.3982C140.237 72.3331 140.556 72.2848 140.879 72.2538C141.808 72.1359 143.081 71.9767 143.915 71.57C145.314 70.8833 145.065 69.8752 144.563 68.5283C144.168 67.5085 142.132 67.4289 140.78 67.3729C140.437 67.3729 140.14 67.3493 139.903 67.3228C139.486 67.2906 139.086 67.1834 138.737 67.0104C138.545 66.915 138.405 66.7719 138.342 66.6066C138.315 66.5167 138.327 66.4226 138.376 66.3383C138.426 66.2539 138.511 66.1837 138.618 66.138C138.652 66.1191 138.695 66.1107 138.737 66.1144V66.1556C138.737 66.2618 138.737 66.3649 138.737 66.471C138.727 66.493 138.727 66.5168 138.737 66.5388V66.5388C138.808 66.7245 139.259 66.9544 139.982 67.0281C140.203 67.0517 140.496 67.0634 140.832 67.0752C142.294 67.1342 144.507 67.2226 144.966 68.4428C145.444 69.8222 145.741 71.0188 144.128 71.8117Z" fill="#37474F"/>
<path d="M150.753 74.3823C151.685 74.1648 152.58 73.8681 153.421 73.498C154.397 72.4841 155.792 68.461 155.322 65.8908C154.749 62.7489 153.456 60.7418 149.393 59.834C148.998 59.7957 148.623 59.7662 148.208 59.7514C147.139 59.709 146.068 59.8088 145.046 60.0462C148.01 60.4912 150.579 62.3098 151.642 65.0096C152.781 67.9304 152.219 72.0833 150.54 74.4412L150.753 74.3823Z" fill="#263238"/>
<path d="M169.348 76.6313C171.747 78.3025 173.763 79.0541 175.616 80.964C177.47 82.8739 178.553 83.764 178.383 84.6895C178.213 85.615 177.031 86.2781 176.225 87.2508C175.419 88.2234 173.822 89.9624 171.573 91.1531C169.687 92.1287 167.715 93.01 165.672 93.791C165.672 93.791 166.328 92.4647 163.744 91.1089C164.823 90.1024 165.798 89.0364 166.66 87.9198C167.62 86.7436 168.865 85.7111 170.332 84.8752C170.332 84.8752 170.087 84.6983 168.293 84.2268C166.498 83.7552 164.048 83.0478 161.914 81.6448L169.348 76.6313Z" fill="#FFA8A7"/>
<path d="M170.329 84.8753C172.061 84.4774 174.029 84.9696 174.029 84.9696C174.029 84.9696 170.725 84.8841 168.966 85.7566C169.394 85.4412 169.85 85.1469 170.329 84.8753V84.8753Z" fill="#F28F8F"/>
<path d="M165.712 73.1323C167.293 74.0372 168.143 75.3606 169.597 76.8018C169.289 78.3581 167.578 81.7387 163.93 82.7556C162.447 82.2132 159.29 81.8301 157.147 80.1029C154.816 78.2225 155.452 75.6111 156.076 73.9134C160.041 71.6793 163.052 71.6056 165.712 73.1323Z" fill="#BA68C8"/>
<path opacity="0.5" d="M165.712 73.1323C167.293 74.0372 168.143 75.3606 169.597 76.8018C169.289 78.3581 167.578 81.7387 163.93 82.7556C162.447 82.2132 159.29 81.8301 157.147 80.1029C154.816 78.2225 155.452 75.6111 156.076 73.9134C160.041 71.6793 163.052 71.6056 165.712 73.1323Z" fill="black"/>
<path d="M164.752 90.1128C163.586 90.9086 163.052 91.3271 162.123 91.2328C161.195 91.1385 160.748 90.7936 159.325 91.2505C157.902 91.7073 157.278 92.0109 157.282 92.5296C157.282 92.5296 156.491 92.8951 155.946 93.1958C155.4 93.4964 155.278 94.08 156.223 94.8404C156.772 95.2796 158.42 96.5145 158.902 96.6943C159.566 96.9419 161.23 97.1158 161.866 96.9301C162.341 96.7945 163.542 95.8071 165.21 94.525C165.921 93.9666 166.71 93.4657 167.562 93.0307C167.562 93.0307 167.214 91.4597 164.752 90.1128Z" fill="#37474F"/>
<path d="M157.705 93.0539C157.705 93.0539 158.891 92.4114 158.855 92.0076C158.915 92.0468 158.963 92.0951 158.996 92.1493C159.028 92.2034 159.045 92.2621 159.045 92.3215C159.045 92.3808 159.028 92.4395 158.996 92.4937C158.963 92.5478 158.915 92.5961 158.855 92.6354C158.534 92.8542 158.134 92.9994 157.705 93.0539V93.0539Z" fill="#263238"/>
<path d="M158.905 98.2943C158.905 98.2943 168.185 97.4455 171.786 93.048C171.786 93.048 169.865 89.4256 168.561 86.5637C167.256 83.7018 168.489 77.8129 165.928 75.3254C164.415 73.8517 162.205 72.9674 160.601 72.9321C157.597 72.8554 147.261 76.5839 144.364 78.4319C141.467 80.2799 141.558 83.3511 142.712 86.0951C143.866 88.8391 148.167 91.2383 150.107 92.2433C153.162 93.8231 156.538 95.7655 158.905 98.2943Z" fill="#F0F0F0"/>
<path d="M165.928 75.3373C164.415 73.8636 162.205 72.9794 160.601 72.944C157.597 72.8674 147.261 76.5958 144.364 78.4439C141.467 80.2919 141.558 83.363 142.712 86.1071C147.85 82.4788 158.66 77.1647 165.988 75.408L165.928 75.3373Z" fill="#BA68C8"/>
<path d="M152.094 86.7931C151.727 89.2276 152.114 90.8811 151.161 93.127C150.209 95.3729 149.893 96.5548 148.79 97.0028C147.687 97.4508 146.272 97.1384 144.743 97.2357C143.213 97.3329 140.395 97.4096 137.771 96.77C135.596 96.2217 133.472 95.565 131.416 94.8041C131.416 94.8041 133.238 94.4091 133.159 92.0512C134.886 92.1008 136.615 92.0506 138.332 91.9009C140.17 91.773 142.023 91.8999 143.798 92.2752C143.798 92.2752 143.842 92.0247 143.28 90.6689C142.719 89.3131 142.016 87.4268 142.265 85.3076L152.094 86.7931Z" fill="#FFA8A7"/>
<path d="M143.799 92.2757C145.257 93.0774 145.898 94.5511 145.898 94.5511C145.898 94.5511 144.024 92.5203 142.036 91.9839C142.631 92.0544 143.22 92.1518 143.799 92.2757V92.2757Z" fill="#F28F8F"/>
<path d="M152.945 82.7347C152.925 84.3557 152.55 85.0926 152.095 86.7932C150.238 87.536 145.542 88.7739 142.274 87.1941C141.973 85.9827 140.507 83.8606 141.088 81.5498C141.724 79.0328 143.297 78.4433 145.499 77.8066C148.23 77.9186 151.166 77.8037 152.945 82.7347Z" fill="#BA68C8"/>
<path opacity="0.3" d="M152.945 82.7347C152.925 84.3557 152.55 85.0926 152.095 86.7932C150.238 87.536 145.542 88.7739 142.274 87.1941C141.973 85.9827 140.507 83.8606 141.088 81.5498C141.724 79.0328 143.297 78.4433 145.499 77.8066C148.23 77.9186 151.166 77.8037 152.945 82.7347Z" fill="black"/>
<path d="M134.835 92.066C133.286 91.842 132.511 91.7712 132.068 91.1552C131.626 90.5392 131.725 90.0706 130.385 89.49C129.045 88.9093 128.345 88.7178 127.788 89.0272C127.788 89.0272 126.93 88.7826 126.274 88.6234C125.618 88.4643 124.923 88.7502 124.67 89.77C124.523 90.3595 124.172 92.0837 124.274 92.4786C124.405 93.0239 125.207 94.1233 125.784 94.3974C126.211 94.5978 127.99 94.7304 130.365 94.9662C131.389 95.0592 132.398 95.2331 133.373 95.485C133.373 95.485 134.851 94.3384 134.835 92.066Z" fill="#37474F"/>
<path d="M127.468 89.5935C127.468 89.5935 128.871 89.9207 129.282 89.6613C129.274 89.7206 129.25 89.778 129.21 89.8296C129.171 89.8813 129.117 89.9261 129.052 89.961C128.987 89.9958 128.913 90.02 128.835 90.0319C128.757 90.0437 128.676 90.043 128.598 90.0297C128.173 89.9684 127.781 89.8169 127.468 89.5935Z" fill="#263238"/>
<path d="M92.443 98.3535C90.1071 101.029 84.2577 101.083 81.3132 99.8012C80.5227 105.363 79.835 108.673 79.1315 112.512C76.7601 111.664 75.0685 111.613 72.6813 111.629C71.5707 111.629 70.1518 111.686 69.0293 111.629C67.9068 111.571 66.1955 111.609 65.6026 111.287C64.8635 110.886 64.5315 110.331 63.5672 110.248C63.1759 110.212 62.7798 110.246 62.4064 110.347C62.033 110.448 61.6913 110.613 61.4052 110.831C60.5673 111.498 60.3697 112.531 59.7018 113.312C59.1216 113.922 58.3804 114.42 57.5319 114.77C57.2735 114.881 57.0264 115.009 56.7929 115.152C56.3971 115.438 56.0777 115.786 55.8541 116.175C55.6306 116.563 55.5075 116.985 55.4925 117.413C55.4609 118.067 55.4925 119.61 56.7178 119.499C57.0458 119.452 57.3458 119.32 57.5715 119.122C57.8004 118.929 58.013 118.723 58.2078 118.507C58.4079 118.307 58.6231 118.118 58.852 117.939C59.8039 117.239 60.8672 116.643 62.0139 116.169C62.5435 115.933 63.0692 115.717 63.5948 115.484C64.0494 115.283 64.7805 114.97 65.3181 115.041C67.1327 115.303 68.9284 115.645 70.6972 116.064C73.4401 116.702 76.3411 117.486 78.1078 117.977C81.6215 118.934 84.068 119.39 85.7358 117.394C87.6606 115.088 89.4945 112.062 91.0636 108.673C92.854 104.798 93.186 101.389 92.443 98.3535Z" fill="#37474F"/>
<path d="M79.132 112.512C79.132 112.512 79.7446 115.793 85.7285 117.4C85.7285 117.4 88.2343 115.168 90.6294 110.327C93.0245 105.487 93.6332 101.373 92.4435 98.3535C92.4435 98.3535 89.6531 100.984 81.203 99.4664C80.2435 100.354 79.686 101.478 79.6221 102.655C79.5391 104.639 78.4799 109.505 79.132 112.512Z" fill="#E0E0E0"/>
<path d="M66.4604 111.523C66.5158 111.23 66.0652 111.016 65.67 111.058C65.4571 111.075 65.2458 111.104 65.0376 111.144C65.442 111.401 65.9457 111.535 66.4604 111.523V111.523Z" fill="#BA68C8"/>
<g opacity="0.5">
<path opacity="0.5" d="M66.4619 111.523C66.5172 111.23 66.0667 111.016 65.6714 111.058C65.4585 111.075 65.2473 111.104 65.0391 111.144C65.4434 111.401 65.9471 111.535 66.4619 111.523V111.523Z" fill="black"/>
</g>
<path d="M60.1847 117.4C61.0187 116.855 63.7142 115.513 64.5323 115.289C65.3504 115.066 65.9354 115.369 65.7931 114.706C65.6508 114.043 65.5757 113.111 65.1054 113.003C64.6351 112.895 63.5244 113.191 62.1293 113.886C61.0894 114.476 60.1499 115.172 59.335 115.959L60.1847 117.4Z" fill="#BA68C8"/>
<path opacity="0.25" d="M60.1847 117.4C61.0187 116.855 63.7142 115.513 64.5323 115.289C65.3504 115.066 65.9354 115.369 65.7931 114.706C65.6508 114.043 65.5757 113.111 65.1054 113.003C64.6351 112.895 63.5244 113.191 62.1293 113.886C61.0894 114.476 60.1499 115.172 59.335 115.959L60.1847 117.4Z" fill="black"/>
<path d="M60.7612 110.238C60.7612 110.238 60.0577 110.12 59.9391 110.203C59.8687 110.26 59.8129 110.328 59.7749 110.402C59.737 110.476 59.7175 110.556 59.7178 110.637C59.8233 110.728 59.9614 110.79 60.113 110.815L60.7612 110.238Z" fill="#263238"/>
<path d="M59.8498 111.191C59.8498 111.191 59.1463 111.313 59.0593 111.427C59.0202 111.501 59 111.58 59 111.66C59 111.74 59.0202 111.819 59.0593 111.893C59.1969 111.943 59.3505 111.956 59.498 111.931L59.8498 111.191Z" fill="#263238"/>
<path d="M56.2289 114.62C56.2289 114.62 55.5491 114.422 55.4385 114.489C55.3585 114.537 55.2914 114.598 55.2411 114.667C55.1909 114.737 55.1585 114.814 55.146 114.894C55.2296 114.996 55.3516 115.073 55.4938 115.114L56.2289 114.62Z" fill="#263238"/>
<path d="M55.0825 115.443C55.0825 115.443 54.3593 115.443 54.2684 115.557C54.2157 115.626 54.1806 115.702 54.165 115.781C54.1494 115.861 54.1536 115.942 54.1775 116.02C54.3007 116.091 54.449 116.128 54.6004 116.125L55.0825 115.443Z" fill="#263238"/>
<path d="M54.4655 116.619C54.4655 116.619 53.758 116.731 53.675 116.843C53.6368 116.917 53.6172 116.997 53.6172 117.077C53.6172 117.157 53.6368 117.237 53.675 117.311C53.8119 117.363 53.9653 117.378 54.1137 117.356L54.4655 116.619Z" fill="#263238"/>
<path d="M54.3702 117.754C54.3702 117.754 53.7062 117.977 53.6628 118.099C53.6261 118.258 53.6686 118.423 53.7813 118.558C53.9286 118.586 54.0832 118.577 54.224 118.532L54.3702 117.754Z" fill="#263238"/>
<path d="M54.9441 119.788C54.9441 119.788 54.2248 119.788 54.126 119.705C54.0115 119.571 53.9675 119.406 54.0035 119.246C54.1244 119.172 54.2707 119.13 54.4224 119.125L54.9441 119.788Z" fill="#263238"/>
<path d="M55.9521 120.375C55.6083 120.41 54.964 120.321 54.4344 119.377C53.7902 118.232 54.0392 116.788 54.8297 115.739C55.8652 114.323 57.4382 114.307 58.2247 113.609C59.2247 112.716 59.5883 111.351 60.1337 110.691C60.8016 109.875 61.4103 109.894 61.7146 109.954C61.8862 109.988 62.0551 110.029 62.2205 110.079L55.9521 120.375Z" fill="#37474F"/>
<path d="M66.4609 111.524C66.3779 111.061 65.7495 111.036 65.3147 111.106C64.88 111.176 64.2673 111.262 64.129 111.6C63.9907 111.938 64.7535 112.263 64.7495 112.643C64.7456 113.022 63.9235 113.386 62.9117 113.893C61.8999 114.4 59.6194 115.832 59.6154 116.058C59.6115 116.284 60.2676 117.066 60.2004 117.401C59.527 117.855 58.9479 118.393 58.4851 118.995C58.0898 119.55 57.7855 120.006 57.5918 120.235C57.3982 120.465 56.3192 120.487 55.9081 120.36C55.2363 120.149 54.0189 118.966 54.5999 117.04C55.1809 115.114 56.5445 114.901 57.8606 114.247C59.1767 113.593 59.9633 111.75 60.232 111.253C60.5481 110.728 61.0886 110.314 61.7537 110.085C62.3 109.976 62.8713 109.976 63.4176 110.085C64.3938 110.27 64.9274 110.513 65.7218 110.541C66.619 110.573 66.7652 111.517 66.7652 111.517L66.4609 111.524Z" fill="#BA68C8"/>
<path opacity="0.4" d="M66.4609 111.524C66.3779 111.061 65.7495 111.036 65.3147 111.106C64.88 111.176 64.2673 111.262 64.129 111.6C63.9907 111.938 64.7535 112.263 64.7495 112.643C64.7456 113.022 63.9235 113.386 62.9117 113.893C61.8999 114.4 59.6194 115.832 59.6154 116.058C59.6115 116.284 60.2676 117.066 60.2004 117.401C59.527 117.855 58.9479 118.393 58.4851 118.995C58.0898 119.55 57.7855 120.006 57.5918 120.235C57.3982 120.465 56.3192 120.487 55.9081 120.36C55.2363 120.149 54.0189 118.966 54.5999 117.04C55.1809 115.114 56.5445 114.901 57.8606 114.247C59.1767 113.593 59.9633 111.75 60.232 111.253C60.5481 110.728 61.0886 110.314 61.7537 110.085C62.3 109.976 62.8713 109.976 63.4176 110.085C64.3938 110.27 64.9274 110.513 65.7218 110.541C66.619 110.573 66.7652 111.517 66.7652 111.517L66.4609 111.524Z" fill="black"/>
<path d="M59.7061 115.656C60.3148 116.371 60.5322 116.976 60.4373 117.251C60.3556 117.368 60.2255 117.458 60.0697 117.506C60.0697 117.506 60.1053 116.973 59.3228 115.966C59.3324 115.886 59.3758 115.812 59.4458 115.755C59.5157 115.699 59.6077 115.664 59.7061 115.656V115.656Z" fill="#455A64"/>
<path d="M61.3852 116.721C61.3932 116.102 61.1108 115.504 60.5947 115.047C60.6156 114.972 60.665 114.905 60.7359 114.854C60.8068 114.803 60.8956 114.771 60.99 114.763C61.5238 115.243 61.8144 115.868 61.8041 116.514C61.8041 116.514 61.6223 116.74 61.3852 116.721Z" fill="#455A64"/>
<path d="M62.706 116.058C62.9155 115.631 62.3542 114.601 61.9155 114.231C61.9265 114.148 61.9768 114.073 62.0557 114.02C62.1347 113.967 62.2361 113.941 62.3384 113.947C62.902 114.465 63.2064 115.133 63.1921 115.822C63.1921 115.822 63.0301 116.119 62.706 116.058Z" fill="#455A64"/>
<path d="M63.9596 115.493C64.003 115.152 63.9614 114.806 63.8372 114.478C63.713 114.149 63.5087 113.844 63.2363 113.58C63.2743 113.512 63.3368 113.454 63.4157 113.415C63.4946 113.376 63.5864 113.357 63.679 113.36C63.9914 113.615 64.2231 113.927 64.3545 114.269C64.4859 114.612 64.5131 114.975 64.4339 115.327C64.3051 115.426 64.137 115.485 63.9596 115.493V115.493Z" fill="#455A64"/>
<path d="M106.345 145.986C106.28 145.925 106.205 145.87 106.124 145.823C106.049 145.772 105.985 145.75 105.918 145.708C103.389 144.184 102.417 143.135 100.82 140.967C100.515 140.233 99.9779 139.174 99.8712 138.288C99.6973 136.847 99.3969 134.761 99.1716 133.042C98.729 129.611 99.0096 125.115 98.8989 122.296C98.7329 117.975 98.1835 119.251 96.318 116.301C93.6067 112.015 90.4646 107.873 88.0774 104.662C91.3302 102.296 92.6305 99.8628 92.4447 98.3545C92.4447 98.3545 90.1089 100.268 85.6902 100.169C79.8763 100.038 78.7143 99.0656 75.9556 97.8953C75.2007 99.292 73.5842 101.298 73.7541 104.86C73.928 108.501 75.8963 110.523 80.4257 114.196C83.3781 116.588 87.3304 119.544 89.7927 121.952C89.6702 124.165 89.5951 126.288 90.429 128.348C90.8243 129.343 91.8835 130.899 93.2234 133.862C94.1443 135.893 95.0335 138.326 95.16 138.734C95.2311 139.627 95.5315 139.726 95.1244 140.667C94.9426 141.085 94.5751 141.681 94.9703 142.245C95.5236 143.036 96.5196 143.202 97.3061 143.865C98.0024 144.427 98.6249 145.046 99.1637 145.711C99.4828 146.121 99.9067 146.471 100.407 146.738C100.907 147.004 101.473 147.182 102.065 147.258C102.77 147.391 103.501 147.406 104.214 147.302C104.926 147.198 105.605 146.977 106.207 146.652C106.327 146.587 106.417 146.492 106.464 146.381C106.48 146.312 106.478 146.241 106.457 146.173C106.437 146.105 106.399 146.041 106.345 145.986V145.986Z" fill="#455A64"/>
<path d="M89.7916 121.951C90.9773 119.209 95.6727 117.704 97.6963 118.125C97.0188 117.17 96.4028 116.187 95.8506 115.181C94.7914 113.297 90.5584 106.827 88.7798 104.783C88.7798 104.783 92.5938 101.731 92.4279 98.3444C92.4279 98.3444 89.8786 100.513 83.7129 99.8112C77.5473 99.1097 75.9387 97.8979 75.9387 97.8979C75.9387 97.8979 72.9468 100.723 72.678 103.497C72.3895 106.587 73.338 108.057 75.164 110.015C76.745 111.721 77.4682 112.981 80.559 115.497C84.1951 118.453 86.2266 118.826 89.7916 121.951Z" fill="#F0F0F0"/>
<path d="M88.1014 116.064C85.3347 113.752 81.8132 111.364 79.5406 108.299C76.774 104.575 77.2364 102.295 79.3786 99.1029C78.6037 98.9315 77.8466 98.7119 77.1139 98.446C74.7425 101.89 74.4777 104.916 76.2048 107.426C78.1848 110.472 80.8305 113.206 84.0147 115.493C85.7695 116.791 89.1804 119.256 90.7573 120.57C91.1914 120.145 91.6908 119.767 92.2434 119.444C91.2198 118.625 89.6823 117.388 88.1014 116.064Z" fill="#BA68C8"/>
<path d="M95.2429 139.011C94.8912 139.103 94.8793 139.435 95.1125 139.715C95.2322 139.861 95.3643 139.999 95.5077 140.13L95.2429 139.011Z" fill="#BA68C8"/>
<path opacity="0.5" d="M95.2429 139.011C94.8912 139.103 94.8793 139.435 95.1125 139.715C95.2322 139.861 95.3643 139.999 95.5077 140.13L95.2429 139.011Z" fill="black"/>
<path d="M103.634 143.89C102.943 143.214 101.239 141.02 100.955 140.382C100.67 139.744 101.042 139.237 100.216 139.358C99.3895 139.48 98.2393 139.553 98.0852 139.936C97.9311 140.318 98.3382 141.23 99.2195 142.353C99.9664 143.194 100.847 143.952 101.84 144.607L103.634 143.89Z" fill="#BA68C8"/>
<path opacity="0.25" d="M103.634 143.89C102.943 143.214 101.239 141.02 100.955 140.382C100.67 139.744 101.042 139.237 100.216 139.358C99.3895 139.48 98.2393 139.553 98.0852 139.936C97.9311 140.318 98.3382 141.23 99.2195 142.353C99.9664 143.194 100.847 143.952 101.84 144.607L103.634 143.89Z" fill="black"/>
<path d="M95.0356 143.491C95.0356 143.491 95.0356 144.072 95.17 144.148C95.3412 144.234 95.547 144.261 95.7431 144.225C95.8309 144.125 95.8779 144.006 95.8775 143.884L95.0356 143.491Z" fill="#263238"/>
<path d="M96.3208 144.135C96.3208 144.135 96.3208 144.715 96.4591 144.792C96.5431 144.835 96.6373 144.865 96.7359 144.878C96.8344 144.891 96.9353 144.888 97.0322 144.868C97.1201 144.769 97.1658 144.649 97.1627 144.527L96.3208 144.135Z" fill="#263238"/>
<path d="M100.195 147.503C100.195 147.503 100.195 148.087 100.334 148.16C100.417 148.204 100.51 148.233 100.608 148.247C100.706 148.26 100.806 148.258 100.903 148.24C100.991 148.14 101.038 148.021 101.037 147.899L100.195 147.503Z" fill="#263238"/>
<path d="M101.704 147.927C101.704 147.927 101.814 148.501 101.953 148.565C102.044 148.595 102.142 148.611 102.241 148.611C102.34 148.611 102.438 148.595 102.53 148.565C102.6 148.456 102.626 148.332 102.605 148.211L101.704 147.927Z" fill="#263238"/>
<path d="M103.525 148.039C103.525 148.039 103.64 148.613 103.774 148.676C103.866 148.708 103.965 148.724 104.065 148.724C104.165 148.724 104.264 148.708 104.355 148.676C104.426 148.569 104.451 148.446 104.427 148.326L103.525 148.039Z" fill="#263238"/>
<path d="M106.238 147.962C106.238 147.962 106.128 148.536 105.989 148.6C105.926 148.654 105.841 148.688 105.749 148.697C105.657 148.706 105.565 148.689 105.487 148.648C105.41 148.608 105.352 148.546 105.325 148.475C105.298 148.404 105.302 148.328 105.337 148.259L106.238 147.962Z" fill="#263238"/>
<path d="M107.391 147.317C107.442 147.598 107.391 147.789 106.205 148.146C105.019 148.504 103.181 148.421 101.636 148.111C100.091 147.802 98.8694 146.625 98.2607 145.774C97.6383 144.957 96.7478 144.295 95.6878 143.861C94.8222 143.468 94.4744 143.319 94.4507 143.073C94.4514 142.821 94.4953 142.57 94.5811 142.327L107.391 147.317Z" fill="#37474F"/>
<path d="M95.2414 139.011C94.9607 139.167 95.0872 139.601 95.5536 139.967C95.7473 140.2 95.9133 140.605 96.3441 140.742C96.7749 140.879 97.1662 140.229 97.6444 140.229C98.1226 140.229 98.5771 140.895 99.2253 141.715C99.8735 142.534 101.68 144.381 101.968 144.381C102.257 144.381 103.221 143.839 103.64 143.893C104.279 144.383 104.95 144.845 105.652 145.277C106.636 145.867 106.98 146.045 107.268 146.198C107.557 146.351 107.62 146.916 107.458 147.247C107.296 147.579 105.015 148.389 102.601 147.936C100.186 147.483 99.4941 146.622 98.6483 145.557C98.0308 144.766 97.1686 144.117 96.1464 143.676C95.5143 143.44 94.9441 143.109 94.4667 142.7C94.3275 142.255 94.3275 141.79 94.4667 141.345C94.688 140.551 94.9212 140.264 94.7947 139.623C94.7387 139.465 94.7434 139.297 94.8083 139.141C94.8732 138.985 94.9953 138.848 95.1584 138.749C95.193 138.835 95.2207 138.922 95.2414 139.011V139.011Z" fill="#BA68C8"/>
<path opacity="0.4" d="M95.2414 139.011C94.9607 139.167 95.0872 139.601 95.5536 139.967C95.7473 140.2 95.9133 140.605 96.3441 140.742C96.7749 140.879 97.1662 140.229 97.6444 140.229C98.1226 140.229 98.5771 140.895 99.2253 141.715C99.8735 142.534 101.68 144.381 101.968 144.381C102.257 144.381 103.221 143.839 103.64 143.893C104.279 144.383 104.95 144.845 105.652 145.277C106.636 145.867 106.98 146.045 107.268 146.198C107.557 146.351 107.62 146.916 107.458 147.247C107.296 147.579 105.015 148.389 102.601 147.936C100.186 147.483 99.4941 146.622 98.6483 145.557C98.0308 144.766 97.1686 144.117 96.1464 143.676C95.5143 143.44 94.9441 143.109 94.4667 142.7C94.3275 142.255 94.3275 141.79 94.4667 141.345C94.688 140.551 94.9212 140.264 94.7947 139.623C94.7387 139.465 94.7434 139.297 94.8083 139.141C94.8732 138.985 94.9953 138.848 95.1584 138.749C95.193 138.835 95.2207 138.922 95.2414 139.011V139.011Z" fill="black"/>
<path d="M101.455 144.295C102.344 143.791 103.099 143.609 103.431 143.686C103.578 143.751 103.691 143.856 103.751 143.982C103.751 143.982 103.087 143.96 101.834 144.601C101.737 144.592 101.647 144.557 101.578 144.502C101.509 144.446 101.465 144.373 101.455 144.295V144.295Z" fill="#455A64"/>
<path d="M102.771 142.917C101.996 142.916 101.25 143.154 100.684 143.58C100.591 143.565 100.506 143.525 100.442 143.468C100.378 143.41 100.338 143.338 100.329 143.262C100.925 142.823 101.703 142.581 102.51 142.582C102.51 142.582 102.791 142.719 102.771 142.917Z" fill="#455A64"/>
<path d="M101.929 141.845C101.391 141.68 100.111 142.145 99.6483 142.483C99.5448 142.476 99.4491 142.436 99.3818 142.372C99.3145 142.308 99.281 142.225 99.2887 142.142C99.9316 141.678 100.766 141.424 101.628 141.431C101.628 141.431 102.004 141.581 101.929 141.845Z" fill="#455A64"/>
<path d="M101.214 140.832C100.784 140.796 100.349 140.832 99.9355 140.936C99.5225 141.04 99.1399 141.211 98.8111 141.438C98.7256 141.407 98.6533 141.357 98.6034 141.293C98.5534 141.23 98.528 141.156 98.5304 141.08C98.8466 140.824 99.2344 140.632 99.6615 140.521C100.089 140.41 100.542 140.383 100.985 140.443C101.117 140.546 101.198 140.684 101.214 140.832Z" fill="#455A64"/>
<path d="M97.0239 80.6205C97.4192 83.2481 97.265 85.3527 98.2412 87.7794C99.2175 90.2061 99.5376 91.4816 100.644 91.9599C101.751 92.4383 103.162 92.0939 104.691 92.1895C106.221 92.2852 109.039 92.3553 111.659 91.6538C113.825 91.0477 115.937 90.3254 117.983 89.4918C117.983 89.4918 116.161 89.0741 116.22 86.523C114.494 86.5839 112.765 86.5392 111.047 86.3891C109.207 86.2633 107.353 86.4136 105.581 86.8323C105.581 86.8323 105.537 86.5613 106.087 85.0912C106.636 83.6212 107.324 81.5835 107.055 79.2876L97.0239 80.6205Z" fill="#9E6767"/>
<path d="M105.593 86.8321C104.146 87.7058 103.514 89.3034 103.514 89.3034C103.514 89.3034 105.371 87.0968 107.355 86.5068C106.76 86.5849 106.171 86.6935 105.593 86.8321V86.8321Z" fill="#874C4C"/>
<path d="M99.0327 72.4985C104.1 72.4985 105.803 74.2556 106.681 76.137C107.212 77.351 107.412 78.643 107.269 79.9253C107.269 79.9253 102.527 82.5688 97.0407 81.5739C96.3807 77.7377 96.6811 74.4788 99.0327 72.4985Z" fill="#263238"/>
<path d="M115.483 86.1821C115.4 86.4787 114.072 86.501 114.072 86.501C113.66 87.2906 113.516 88.1549 113.657 89.0042C113.855 90.5572 114.448 90.8123 114.448 90.8123C116.267 90.3621 118.128 90.0284 120.012 89.8142L115.483 86.1821Z" fill="#263238"/>
<path d="M117.446 89.9573C120.359 90.2762 121.837 89.3196 122.663 87.3329C122.893 86.4975 123.063 85.6521 123.173 84.801C123.256 84.1633 123.387 83.5446 123.478 82.9132C123.517 82.6326 123.64 82.3584 123.671 82.0778C123.701 81.8445 123.701 81.6095 123.671 81.3762C123.636 81.2232 123.41 80.7927 123.078 81.0031C123.009 81.0675 122.957 81.1423 122.924 81.2232C122.832 81.3803 122.753 81.5422 122.687 81.7079C122.572 81.9981 122.521 82.3201 122.43 82.6103C122.391 82.7506 122.367 82.9675 122.343 83.111C122.272 83.5701 122.173 83.7104 122.09 83.6945C122.06 83.4129 122.069 83.1294 122.118 82.8495C122.183 82.262 122.334 81.6829 122.569 81.1243C122.676 80.9114 122.724 80.6816 122.706 80.452C122.689 80.2223 122.608 79.9988 122.47 79.7978C122.414 79.7308 122.331 79.6256 122.225 79.6192C122.118 79.6128 122.019 79.7563 121.968 79.8392C121.74 80.2106 121.547 80.5955 121.391 80.9904C121.244 81.3481 121.134 81.715 121.063 82.0873C120.999 82.5417 120.898 82.9923 120.762 83.4362C120.584 83.5574 120.58 83.1524 120.588 83.0472C120.612 82.6932 120.75 81.6696 120.762 81.5102C120.776 81.284 120.812 81.059 120.869 80.8373C120.995 80.4138 121.039 79.9771 120.999 79.5427C120.968 79.3035 120.719 78.7008 120.28 78.873C120.142 78.9272 120.071 79.1122 120.023 79.2206C119.881 79.5306 119.777 79.851 119.711 80.1772C119.604 80.6651 119.521 80.9107 119.395 81.6154C119.339 81.9024 119.296 82.1479 119.217 82.6039C119.193 82.8443 119.142 83.0824 119.063 83.315C118.905 83.4171 118.865 83.1014 118.861 83.0217C118.863 82.7341 118.895 82.4471 118.956 82.1639C119.063 81.66 119.11 81.5835 119.193 81.1785C119.29 80.8084 119.306 80.4275 119.241 80.0529C119.197 79.8647 118.992 79.5618 118.739 79.514C118.367 79.4438 118.296 79.8934 118.225 80.0816C118.004 80.6811 117.806 81.2965 117.616 81.9024C117.483 82.3197 117.406 82.7473 117.387 83.1779C117.387 83.5606 117.521 84.1856 117.217 84.5172C116.976 84.7787 116.822 84.3036 116.727 84.1473C116.557 83.8093 116.427 83.4553 116.217 83.1333C115.616 82.1958 114.593 82.4477 114.818 83.2608C115.094 84.2516 115.246 85.2622 115.272 86.2774C115.288 87.2341 115.28 89.6735 117.446 89.9573Z" fill="#37474F"/>
<path d="M118.397 85.6401C118.397 85.6401 120.164 87.1261 119.524 88.711C119.808 88.4119 119.987 88.0566 120.043 87.6824C120.099 87.3082 120.029 86.9289 119.84 86.584C119.714 86.3434 119.516 86.1314 119.265 85.9668C119.013 85.8022 118.715 85.69 118.397 85.6401V85.6401Z" fill="#263238"/>
<path d="M99.0315 72.4985C101.134 72.5622 102.379 78.9335 102.122 82.3104C101.865 85.6874 99.407 88.079 97.9604 89.1759C96.5835 90.1477 95.4464 91.3205 94.6088 92.6326C93.6721 94.0931 92.7986 96.7589 92.4587 98.3533C92.4587 98.3533 91.028 100.442 84.3881 100.286C77.7481 100.13 75.9696 97.8941 75.9696 97.8941C75.9696 97.8941 77.092 95.2825 77.6138 94.1058C78.1355 92.9292 77.6809 91.44 76.9063 89.4629C76.1316 87.4859 74.3452 83.9272 74.8866 80.1325C75.3965 76.5132 76.4676 75.6426 77.1988 75.0878C77.1988 75.0878 83.0522 73.4232 88.2653 72.7281C93.4784 72.0329 98.0157 71.9532 99.0315 72.4985Z" fill="#BA68C8"/>
<path d="M98.6366 76.9663L101.553 76.5326C101.016 74.3387 100.142 72.5338 99.0279 72.4988C98.028 71.9535 93.4946 72.03 88.2736 72.7284C83.0525 73.4267 77.207 75.0881 77.207 75.0881C78.3927 75.7577 79.8274 77.4032 80.6495 79.2335L88.8704 78.1717C90.5394 80.5139 92.9513 82.4554 95.8581 83.7967C97.434 81.7267 98.3857 79.3871 98.6366 76.9663V76.9663Z" fill="#455A64"/>
<path d="M97.402 78.6241L97.0067 79.3607C96.8792 80.5555 96.4501 81.7166 95.7459 82.7727C95.7459 82.7727 90.7779 79.8837 90.1771 77.8875C89.5763 75.8913 91.181 75.8562 91.181 75.8562L97.402 78.6241Z" fill="#874C4C"/>
<path d="M92.1825 67.1C91.7208 67.0928 91.2638 67.176 90.8508 67.3427C90.4377 67.5093 90.081 67.7543 89.8111 68.0567C89.2222 68.7263 89.246 70.2283 89.3922 72.2245C89.438 73.5087 89.6554 74.7852 90.0404 76.0319C90.1936 76.392 90.5137 76.6903 90.9336 76.8642L91.3842 74.5906L91.645 72.9962C91.645 72.9962 93.3129 73.6913 94.2733 71.4496C94.6745 70.4617 94.9784 69.4498 95.1824 68.4234L92.1825 67.1Z" fill="#263238"/>
<path d="M93.771 69.8899C93.5825 70.7269 93.7058 71.5902 94.1254 72.3706C94.5449 73.1511 95.2419 73.8137 96.1282 74.2746C97.0145 74.7355 98.0502 74.974 99.1045 74.96C100.159 74.946 101.184 74.6801 102.051 74.196C102.918 73.7118 103.588 73.0311 103.975 72.2399C104.363 71.4487 104.451 70.5826 104.228 69.751C104.006 68.9195 103.483 68.1598 102.725 67.5681C101.968 66.9764 101.01 66.5792 99.9722 66.4268C99.2832 66.3256 98.5761 66.3348 97.8916 66.4541C97.207 66.5733 96.5582 66.8002 95.9823 67.1218C95.4065 67.4434 94.9148 67.8534 94.5353 68.3283C94.1559 68.8033 93.8962 69.3339 93.771 69.8899Z" fill="#263238"/>
<path d="M91.6776 74.4789C91.6776 74.4789 91.235 75.2761 89.5671 74.6256C88.5909 74.2462 88.0217 72.5848 88.7569 71.7557C88.9403 71.5754 89.1808 71.4384 89.4528 71.3592C89.7248 71.2801 90.0183 71.2617 90.3022 71.3061C90.737 71.3603 91.3496 71.5644 91.4879 71.9151C91.5709 72.1065 91.5749 72.3106 91.6342 72.5051C91.6523 72.6038 91.6999 72.6974 91.7729 72.778C91.8459 72.8585 91.9421 72.9236 92.0531 72.9675C92.1397 72.995 92.2341 73.0027 92.3258 72.9898C92.6025 72.9515 92.8357 72.6709 92.9503 72.4381C93.2634 71.892 93.4815 71.3136 93.5985 70.7193C94.1986 70.7964 94.8124 70.682 95.3098 70.4005C95.6012 70.1843 95.7981 69.898 95.8711 69.5841C95.8948 69.4725 95.8513 69.2908 95.9462 69.2078C96.041 69.1249 96.4916 69.0771 96.6497 69.0452C97.528 68.86 98.427 68.7457 99.3333 68.704C100.547 68.653 102.215 68.704 103.096 69.4916C103.531 72.237 103.011 75.026 101.594 77.5466C100.934 78.6882 100.551 79.074 99.5863 79.2239C98.4436 79.3544 97.2794 79.2815 96.1754 79.0102C95.1101 78.6097 94.1403 78.0614 93.31 77.3903C92.7853 76.9564 92.3729 76.4426 92.0966 75.8788C91.8436 75.0784 91.6776 74.4789 91.6776 74.4789Z" fill="#9E6767"/>
<path d="M103.886 67.3293C103.857 67.2921 103.822 67.2578 103.783 67.2272C103.689 67.1796 103.582 67.1495 103.472 67.139C103.361 67.1285 103.249 67.138 103.143 67.1666C103.084 66.6214 103.305 66.108 102.72 65.6998C102.325 65.4319 101.843 65.4798 101.372 65.5372C100.926 65.5818 100.475 65.5818 100.029 65.5372C98.9298 65.4415 97.8903 65.1162 96.8034 64.9791C95.2225 64.7846 93.1712 65.0174 92.1673 66.1558C91.7088 66.6756 91.5152 67.2687 92.0724 67.7502C92.5467 68.1679 94.2976 68.7515 94.9142 69.0066C96.1564 69.5536 97.4864 69.9592 98.8665 70.212C100.803 70.5308 104.625 70.1514 104.107 67.8969C104.076 67.6986 104.001 67.5064 103.886 67.3293V67.3293Z" fill="#263238"/>
<path d="M98.0325 73.4295C98.0117 73.5214 97.9579 73.6063 97.8776 73.6736C97.7974 73.7409 97.6943 73.7877 97.5813 73.808C97.4683 73.8283 97.3504 73.8214 97.2423 73.7879C97.1342 73.7545 97.0408 73.6961 96.9736 73.62C96.9064 73.544 96.8685 73.4536 96.8646 73.3603C96.8607 73.2669 96.891 73.1747 96.9517 73.0952C97.0124 73.0156 97.1008 72.9523 97.2059 72.9131C97.3109 72.8738 97.428 72.8605 97.5424 72.8746C97.62 72.8847 97.6943 72.907 97.7611 72.9405C97.8279 72.9739 97.8858 73.0177 97.9314 73.0693C97.977 73.121 98.0094 73.1794 98.0267 73.2412C98.0441 73.303 98.0461 73.367 98.0325 73.4295V73.4295Z" fill="#263238"/>
<path d="M98.4167 72.7666L97.231 72.1065C97.3465 71.9806 97.5174 71.8953 97.7085 71.868C97.8997 71.8407 98.0965 71.8736 98.2586 71.9598C98.3364 72.0032 98.4025 72.059 98.4529 72.1236C98.5033 72.1882 98.5369 72.2605 98.5516 72.3359C98.5664 72.4113 98.5621 72.4884 98.5389 72.5624C98.5157 72.6364 98.4741 72.7059 98.4167 72.7666V72.7666Z" fill="#263238"/>
<path d="M70.971 79.001C68.1056 80.2765 65.6314 80.9748 63.2205 82.6203C60.8095 84.2657 59.4618 84.9896 59.3314 85.9972C59.2009 87.0049 60.1218 87.9296 60.6001 89.1063C61.0783 90.283 62.0585 92.4195 63.8568 94.1064C65.3717 95.4985 67.0011 96.8068 68.734 98.0222C68.734 98.0222 68.5245 96.5044 71.473 95.5828C70.7485 94.3168 70.146 93.0076 69.6707 91.6669C69.1176 90.2452 68.2425 88.9185 67.0898 87.7543C67.0898 87.7543 67.3862 87.6171 69.2794 87.4736C71.1726 87.3301 73.7732 87.0655 76.3027 85.9972L70.971 79.001Z" fill="#9E6767"/>
<path d="M67.0828 87.7538C65.5295 87.0013 63.4585 87.1352 63.4585 87.1352C63.4585 87.1352 66.6955 87.6901 68.1223 88.9464C67.8069 88.5318 67.4598 88.1335 67.0828 87.7538V87.7538Z" fill="#874C4C"/>
<path d="M97.3725 76.137L99.4356 76.8736C99.3048 77.0959 99.0729 77.2689 98.788 77.3568C98.5032 77.4447 98.1873 77.4407 97.906 77.3455C97.7707 77.2963 97.649 77.2255 97.5483 77.1374C97.4477 77.0494 97.3701 76.9458 97.3203 76.8329C97.2705 76.7201 97.2494 76.6002 97.2584 76.4806C97.2673 76.3611 97.3061 76.2442 97.3725 76.137Z" fill="#874C4C"/>
<path d="M98.638 77.3942C98.6066 77.1622 98.4741 76.9467 98.2642 76.7861C98.0543 76.6255 97.7806 76.5303 97.4918 76.5173C97.4194 76.5125 97.3467 76.5125 97.2744 76.5173C97.268 76.6906 97.3259 76.8615 97.4407 77.0081C97.5555 77.1546 97.7219 77.2702 97.9186 77.34C98.1446 77.4211 98.3973 77.4401 98.638 77.3942Z" fill="#F28F8F"/>
<path d="M102.479 72.1767L101.12 72.5657C101.084 72.4964 101.066 72.4219 101.066 72.3468C101.067 72.2716 101.086 72.1974 101.123 72.1284C101.16 72.0594 101.214 71.9971 101.281 71.9451C101.348 71.8932 101.428 71.8526 101.515 71.8259C101.701 71.7716 101.905 71.7779 102.085 71.8434C102.265 71.9089 102.407 72.0285 102.479 72.1767V72.1767Z" fill="#263238"/>
<path d="M102.367 73.4174C102.345 73.508 102.291 73.5914 102.211 73.6573C102.13 73.7231 102.028 73.7685 101.916 73.7879C101.804 73.8072 101.688 73.7997 101.581 73.7662C101.474 73.7327 101.382 73.6746 101.316 73.5993C101.25 73.5239 101.213 73.4346 101.209 73.3423C101.205 73.25 101.235 73.1589 101.294 73.0801C101.354 73.0014 101.441 72.9385 101.545 72.8992C101.648 72.86 101.764 72.8461 101.877 72.8594C102.034 72.8812 102.173 72.9522 102.265 73.0568C102.357 73.1613 102.394 73.291 102.367 73.4174V73.4174Z" fill="#263238"/>
<path d="M99.6581 75.4351L101.555 75.231L99.5869 72.613L99.6581 75.4351Z" fill="#874C4C"/>
<path d="M104.801 74.3579C104.75 74.3579 104.701 74.3743 104.664 74.4036C104.628 74.4329 104.608 74.4727 104.608 74.5141V76.8547C104.616 77.2452 104.496 77.6305 104.258 77.9707C104.02 78.311 103.674 78.5939 103.256 78.7903C101.639 79.5173 99.3234 79.68 97.2128 79.2112L96.9638 79.1474C96.2722 76.7814 96.3117 73.1716 96.8571 71.252C96.8635 71.2318 96.8648 71.2109 96.8608 71.1903C96.8569 71.1698 96.8478 71.1501 96.8341 71.1325C96.8204 71.1149 96.8024 71.0998 96.7812 71.0879C96.7601 71.0761 96.7361 71.0679 96.7109 71.0638C96.6606 71.0552 96.6082 71.0626 96.5646 71.0847C96.5211 71.1067 96.4899 71.1415 96.4777 71.1818C95.9362 73.0951 95.7623 76.6602 96.5488 79.0358C95.1982 78.6443 94.0072 77.9603 93.1063 77.0588C93.0756 77.0254 93.0298 77.003 92.9788 76.9964C92.9279 76.9899 92.8758 76.9997 92.8336 77.0237C92.8125 77.0352 92.7945 77.05 92.7806 77.0672C92.7667 77.0845 92.7573 77.1038 92.7529 77.124C92.7485 77.1442 92.7491 77.165 92.7549 77.185C92.7606 77.205 92.7712 77.2239 92.7862 77.2405C93.7955 78.2658 95.1626 79.0233 96.7109 79.4153H96.7346C96.8571 79.4472 96.9796 79.4791 97.1101 79.5078C97.9369 79.6903 98.7903 79.7825 99.6475 79.782C100.968 79.8018 102.272 79.5528 103.442 79.0582C103.921 78.8351 104.319 78.5126 104.592 78.124C104.865 77.7354 105.004 77.295 104.995 76.8483V74.5077C104.993 74.4674 104.972 74.4293 104.936 74.4013C104.899 74.3734 104.851 74.3578 104.801 74.3579Z" fill="#37474F"/>
<path d="M105.051 69.8637C105.048 68.9297 104.816 68.0054 104.366 67.1445C103.917 66.2836 103.261 65.5032 102.435 64.8486C101.609 64.1939 100.631 63.6781 99.5561 63.3309C98.4814 62.9837 97.332 62.812 96.1744 62.826C91.2735 62.826 87.4318 64.8477 87.084 69.5926C86.7362 74.3376 89.2776 76.168 90.9257 76.8759C92.3762 77.5136 93.5619 77.2426 94.2338 76.2381C94.9057 75.2336 93.1311 74.1877 93.0165 73.7158C92.8268 72.9218 93.7319 72.9154 94.5974 72.4402C94.8711 72.2747 95.0708 72.0419 95.1666 71.777C95.2187 71.6612 95.2992 71.555 95.4031 71.4647C95.507 71.3744 95.6323 71.3018 95.7716 71.2513C95.9109 71.2007 96.0613 71.1732 96.214 71.1704C96.3667 71.1676 96.5186 71.1895 96.6606 71.2349C97.5584 71.5342 98.5047 71.7286 99.4707 71.812C101.739 71.9874 103.36 71.9364 104.881 70.9511C104.988 70.5949 105.045 70.2301 105.051 69.8637V69.8637Z" fill="#F0F0F0"/>
<path d="M99.6762 63.3877C98.5664 63.0157 97.3762 62.8249 96.1744 62.8264C91.2735 62.8264 87.4318 64.8481 87.084 69.5931C86.7362 74.338 89.2776 76.1684 90.9257 76.8763C92.3762 77.5141 93.5619 77.243 94.2338 76.2386C94.5777 75.7188 94.2694 75.1894 93.8781 74.7334C94.1469 75.2851 94.3603 75.9484 93.6924 76.1812C93.0244 76.4139 92.4671 76.5383 90.8625 75.2564C89.2578 73.9745 88.0286 70.1543 89.7242 67.1409C91.4198 64.1275 94.9215 62.4055 99.6762 63.3877Z" fill="#E0E0E0"/>
<path d="M105.162 69.7342C104.85 69.562 104.423 69.7724 103.826 70.053C103.64 70.1455 103.431 70.2507 103.198 70.3496C102.613 70.6326 101.956 70.8028 101.277 70.8471C100.345 70.8148 99.4231 70.684 98.5338 70.458C97.439 70.2316 96.4114 70.0148 95.7672 70.1583C95.5006 70.2337 95.2633 70.3646 95.0795 70.5377C94.8924 70.7061 94.7317 70.8925 94.6013 71.0926C94.3648 71.4897 93.9807 71.8174 93.5025 72.0301C93.357 72.0888 93.217 72.1559 93.0836 72.231C92.731 72.4151 92.4555 72.6807 92.2931 72.9931C92.2496 73.0661 92.2177 73.1432 92.1982 73.2227C92.1533 73.3753 92.152 73.5341 92.1945 73.6872C92.237 73.8402 92.322 73.9834 92.4433 74.106C92.6846 74.3096 92.942 74.5002 93.214 74.6768C93.5539 74.9128 94.0717 75.2699 94.1112 75.407C94.1183 75.4362 94.136 75.463 94.1621 75.484C94.1881 75.505 94.2213 75.5193 94.2574 75.525C96.3875 75.8851 98.5649 76.0297 100.739 75.9555V79.5589C100.739 79.6012 100.76 79.6417 100.797 79.6716C100.834 79.7015 100.884 79.7183 100.937 79.7183C100.989 79.7183 101.04 79.7015 101.077 79.6716C101.114 79.6417 101.134 79.6012 101.134 79.5589V75.9396L101.755 75.9045C101.992 75.9045 102.21 75.8662 102.419 75.8375C102.831 75.7908 103.237 75.714 103.632 75.6079C103.565 76.0034 103.486 76.3605 103.407 76.6379C103.145 76.5262 102.871 76.4333 102.589 76.3605L102.253 76.2585L102.123 76.555L102.459 76.6539C102.881 76.7687 103.897 77.0876 104.142 77.6105C104.189 77.7192 104.204 77.8351 104.185 77.9491C104.167 78.0632 104.115 78.1721 104.036 78.2674C104.022 78.2851 104.014 78.3048 104.01 78.3252C104.006 78.3457 104.008 78.3665 104.014 78.3865C104.021 78.4065 104.033 78.4251 104.049 78.4414C104.064 78.4576 104.084 78.4711 104.107 78.4811C104.136 78.4958 104.171 78.5036 104.205 78.5034C104.24 78.5029 104.274 78.4953 104.303 78.4814C104.333 78.4674 104.358 78.4476 104.375 78.4237C104.484 78.2873 104.552 78.1328 104.574 77.9719C104.597 77.8111 104.573 77.6481 104.506 77.4957C104.35 77.2133 104.091 76.9763 103.763 76.8165C103.887 76.3756 103.98 75.9296 104.043 75.4804C104.276 75.4161 104.486 75.3065 104.654 75.1614C104.823 75.0163 104.944 74.84 105.008 74.6481C105.075 74.275 104.79 73.9147 104.194 73.5958V72.0492C105.324 71.6251 105.569 71.0161 105.609 70.6812C105.64 70.5057 105.616 70.3266 105.538 70.1608C105.46 69.995 105.33 69.8482 105.162 69.7342V69.7342ZM104.605 74.5939C104.566 74.7015 104.5 74.8012 104.41 74.8864C104.32 74.9716 104.208 75.0404 104.083 75.0882C104.126 74.7246 104.158 74.3484 104.174 73.9753C104.305 74.0399 104.414 74.1307 104.49 74.2391C104.565 74.3474 104.605 74.4696 104.605 74.5939V74.5939ZM103.905 71.7941C103.87 71.8059 103.839 71.8257 103.817 71.8512C103.796 71.8767 103.784 71.9067 103.783 71.9376V73.4109L103.387 73.2674L103.087 73.1813C103.087 73.2865 103.059 73.3949 103.04 73.5001L103.245 73.5607C103.425 73.6222 103.6 73.6914 103.771 73.768C103.771 74.2591 103.719 74.7757 103.652 75.254C103.285 75.3691 102.903 75.4525 102.514 75.5027C102.265 75.5378 101.988 75.5697 101.692 75.592C99.2592 75.7491 96.8114 75.6311 94.4195 75.2412C94.1471 74.9335 93.8163 74.6623 93.4393 74.4377C93.1847 74.2702 92.9419 74.0913 92.712 73.9019C92.6301 73.8155 92.5733 73.7153 92.5459 73.6088C92.5185 73.5022 92.5213 73.3921 92.554 73.2865C92.6309 73.0686 92.7684 72.8677 92.9561 72.6992C93.1437 72.5306 93.3766 72.3989 93.6369 72.3139C94.1847 72.0767 94.6258 71.7063 94.8977 71.2552C95.1585 70.8949 95.3878 70.5888 95.87 70.4771C96.3522 70.3655 97.3798 70.5632 98.4153 70.796C99.3439 71.0276 100.306 71.1616 101.277 71.1946C101.956 71.1566 102.617 70.9964 103.209 70.7259C103.506 70.6015 103.775 70.4708 104 70.3528C104.344 70.1806 104.81 69.9542 104.913 70.0084C105.015 70.0911 105.092 70.1917 105.138 70.3023C105.184 70.4129 105.197 70.5306 105.178 70.6462C105.17 70.9204 104.96 71.437 103.905 71.7941V71.7941Z" fill="#37474F"/>
<path d="M99.3639 63.586C98.8409 63.3063 98.2732 63.0853 97.6763 62.9291C97.1801 62.861 96.6777 62.8268 96.1744 62.8271C94.2283 62.7758 92.3058 63.1824 90.6411 63.9974C92.5264 63.5159 95.0796 63.5414 97.0558 64.616C99.6999 66.051 100.644 68.4617 100.526 71.2519L100.921 71.4624L102.878 71.0797L103.059 70.6588C103.19 67.6836 102.194 65.1134 99.3639 63.586Z" fill="#BA68C8"/>
<path opacity="0.1" d="M95.0315 62.8718L94.5217 62.9133L94.1541 62.9579L93.7589 63.0153L93.3636 63.0886L93.0277 63.1588C92.8854 63.1907 92.7392 63.2226 92.6008 63.2608L92.3479 63.3342C92.1937 63.3788 92.0356 63.4267 91.8815 63.4777C91.4688 63.6212 91.0721 63.7929 90.6958 63.9911C91.678 63.7441 92.7092 63.6489 93.7352 63.7105C95.2487 63.1514 96.936 62.9736 98.5768 63.2003C98.2986 63.093 98.0121 63.0004 97.7191 62.9228V62.9228C97.4859 62.8909 97.2488 62.8686 97.0116 62.8495H96.9365C96.6994 62.8335 96.4623 62.824 96.2212 62.824C95.9801 62.824 95.656 62.824 95.3793 62.8463L95.0315 62.8718Z" fill="black"/>
<path d="M103.246 70.1226C102.346 70.2698 101.432 70.3562 100.514 70.3809C99.8623 70.4096 99.9651 71.4013 99.8623 71.8382C101.242 71.9306 102.38 71.9211 103.419 71.6277L103.562 71.583C103.751 71.0856 103.775 69.9855 103.246 70.1226Z" fill="#455A64"/>
<path d="M70.971 79.001C68.1056 80.2765 65.6314 80.9748 63.2205 82.6203C60.8095 84.2657 59.4618 84.9896 59.3314 85.9972C59.2009 87.0049 60.1218 87.9296 60.6001 89.1063C61.0783 90.283 62.0585 92.4195 63.8568 94.1064C65.3717 95.4985 67.0011 96.8068 68.734 98.0222C68.734 98.0222 68.5245 96.5044 71.473 95.5828C70.7485 94.3168 70.146 93.0076 69.6707 91.6669C69.1176 90.2452 68.2425 88.9185 67.0898 87.7543C67.0898 87.7543 67.3862 87.6171 69.2794 87.4736C71.1726 87.3301 73.7732 87.0655 76.3027 85.9972L70.971 79.001Z" fill="#9E6767"/>
<path d="M77.1839 75.0881C75.4607 74.7341 73.8718 75.3591 72.8363 76.7813C71.9668 77.9899 71.5004 78.5575 70.9471 79.0135C70.7455 80.7067 71.4214 84.8203 74.6346 86.5965C74.6346 86.5965 77.7767 86.2776 79.6502 85.2731C80.9149 83.7999 81.8002 81.893 80.7094 79.2144C79.579 76.4146 78.2945 75.6652 77.1839 75.0881Z" fill="#37474F"/>
<path d="M67.0828 87.7541C65.5295 87.0015 63.4585 87.1354 63.4585 87.1354C63.4585 87.1354 66.6955 87.6903 68.1223 88.9467C67.8069 88.532 67.4598 88.1337 67.0828 87.7541V87.7541Z" fill="#874C4C"/>
<path d="M68.4659 97.8436C69.5291 98.7141 71.1732 99.8749 72.2878 100.828C73.0506 101.482 74.7699 102.365 75.5999 102.78C76.2876 103.124 80.4889 101.319 81.4691 100.934C82.4493 100.548 83.0856 98.9756 83.3346 98.5292C83.5836 98.0828 83.4255 97.7256 82.4611 97.9456C81.4968 98.1657 81.2991 99.1478 80.7537 99.269C80.2083 99.3902 73.1138 98.4272 70.9914 95.7454C70.6195 95.7667 70.2575 95.8524 69.9302 95.9966C69.6029 96.1407 69.3178 96.34 69.0943 96.5808C68.3631 97.394 68.4659 97.8436 68.4659 97.8436Z" fill="#37474F"/>
<path d="M82.1015 98.0758C81.4375 98.4234 81.224 99.1632 80.7537 99.2684C80.3585 99.3513 76.6314 98.8858 73.7541 97.6326L73.3589 98.4266C74.3216 99.2938 75.5883 99.9044 76.9911 100.177C79.485 100.726 81.9038 100.136 82.6311 99.5618C82.8959 99.3513 82.5916 98.7487 82.1015 98.0758Z" fill="#263238"/>
<path d="M83.0737 99.2953C85.2348 97.5173 84.0657 93.7648 80.4624 90.914C76.8592 88.0631 72.1863 87.1933 70.0252 88.9713C67.8642 90.7493 69.0333 94.5018 72.6366 97.3526C76.2398 100.204 80.9127 101.073 83.0737 99.2953Z" fill="#455A64"/>
<path d="M70.1802 89.0864C71.3343 89.8549 72.4409 90.6553 73.5357 91.4717C74.6305 92.288 75.7055 93.1171 76.7727 93.9526C77.8398 94.788 78.8872 95.6458 79.9345 96.5036C80.9819 97.3614 81.9819 98.2511 82.9541 99.1663C81.804 98.3977 80.6934 97.5974 79.5986 96.781C78.5038 95.9647 77.4288 95.1356 76.3616 94.2969C75.2945 93.4583 74.2471 92.6037 73.2195 91.7459C72.1919 90.8881 71.1445 90.0016 70.1802 89.0864Z" fill="#37474F"/>
<path d="M77.6631 99.7214C78.2656 99.8534 78.8823 99.9388 79.5049 99.9765C81.3119 99.0893 82.8084 97.8447 83.8525 96.3604C83.7918 95.8655 83.6727 95.3765 83.4967 94.8999C82.2894 96.9961 80.2314 98.697 77.6631 99.7214Z" fill="#F0F0F0"/>
<path d="M75.4655 88.551C74.8712 88.4181 74.2623 88.3316 73.6474 88.2927C71.8302 89.1627 70.3176 90.3918 69.2524 91.8642C69.3097 92.3655 69.4275 92.861 69.6042 93.3438C70.8241 91.2541 72.892 89.5632 75.4655 88.551V88.551Z" fill="#F0F0F0"/>
<path d="M79.6508 96.1161L74.0267 91.6664C73.9472 91.6035 73.8196 91.6045 73.7417 91.6686L73.4345 91.9213C73.3566 91.9855 73.3578 92.0884 73.4373 92.1513L79.0614 96.601C79.1408 96.6639 79.2685 96.6629 79.3464 96.5988L79.6536 96.3461C79.7315 96.2819 79.7303 96.179 79.6508 96.1161Z" fill="#E0E0E0"/>
<path d="M73.7061 91.8833C74.212 92.2309 74.702 92.5944 75.1882 92.9579C75.6743 93.3215 76.1486 93.6977 76.6268 94.0676C77.1051 94.4375 77.5714 94.8202 78.0299 95.206C78.4884 95.5919 78.9508 95.9777 79.3935 96.3795C78.8876 96.0319 78.3975 95.6684 77.9113 95.3049C77.4252 94.9414 76.9509 94.5651 76.4727 94.1952C75.9945 93.8253 75.5281 93.4426 75.0696 93.0568C74.6111 92.6709 74.1329 92.2851 73.7061 91.8833Z" fill="#455A64"/>
<path d="M73.2073 92.8045L73.0571 92.6865C73.0424 92.6741 73.0342 92.6575 73.0342 92.6403C73.0342 92.6231 73.0424 92.6065 73.0571 92.5941C73.4735 92.197 73.9252 91.825 74.4088 91.4812C74.4243 91.4693 74.4448 91.4626 74.4662 91.4626C74.4875 91.4626 74.508 91.4693 74.5235 91.4812L74.6737 91.5992C74.6887 91.6121 74.697 91.6292 74.697 91.647C74.697 91.6647 74.6887 91.6818 74.6737 91.6948C74.2784 92.052 73.8239 92.4251 73.3259 92.8045C73.3094 92.816 73.2884 92.8223 73.2666 92.8223C73.2449 92.8223 73.2238 92.816 73.2073 92.8045V92.8045Z" fill="#F0F0F0"/>
<path d="M73.8996 93.4554L73.7375 93.3278C73.7211 93.3142 73.7119 93.2959 73.7119 93.2768C73.7119 93.2578 73.7211 93.2395 73.7375 93.2258C74.1898 92.7962 74.6785 92.3924 75.1999 92.0172C75.2168 92.004 75.2395 91.9966 75.2631 91.9966C75.2867 91.9966 75.3094 92.004 75.3264 92.0172L75.4884 92.1448C75.504 92.1588 75.5126 92.177 75.5126 92.1958C75.5126 92.2146 75.504 92.2328 75.4884 92.2468C75.0615 92.6359 74.5636 93.0377 74.0221 93.4522C74.0058 93.465 73.9843 93.4724 73.9616 93.473C73.9389 93.4736 73.9168 93.4673 73.8996 93.4554V93.4554Z" fill="#F0F0F0"/>
<path d="M74.5875 94.1028L74.4175 93.9688C74.4087 93.9617 74.4017 93.9533 74.3969 93.944C74.3921 93.9347 74.3896 93.9247 74.3896 93.9146C74.3896 93.9046 74.3921 93.8946 74.3969 93.8853C74.4017 93.876 74.4087 93.8675 74.4175 93.8604C74.9053 93.3949 75.4337 92.9579 75.9985 92.553C76.0168 92.5393 76.0408 92.5317 76.0657 92.5317C76.0906 92.5317 76.1146 92.5393 76.1329 92.553L76.3068 92.6901C76.3237 92.7049 76.3331 92.7242 76.3331 92.7443C76.3331 92.7644 76.3237 92.7838 76.3068 92.7985C75.8443 93.2163 75.3068 93.6531 74.7258 94.0996C74.7079 94.1146 74.6833 94.1234 74.6575 94.124C74.6316 94.1246 74.6065 94.117 74.5875 94.1028Z" fill="#F0F0F0"/>
<path d="M75.2783 94.7531L75.0964 94.6096C75.0787 94.5933 75.0688 94.5724 75.0688 94.5506C75.0688 94.5289 75.0787 94.508 75.0964 94.4916C75.623 93.9925 76.1922 93.5237 76.7999 93.0886C76.8195 93.0745 76.8448 93.0667 76.871 93.0667C76.8973 93.0667 76.9226 93.0745 76.9422 93.0886L77.124 93.2353C77.1426 93.2512 77.153 93.2723 77.153 93.2943C77.153 93.3162 77.1426 93.3373 77.124 93.3532C76.63 93.8029 76.0529 94.2716 75.4245 94.7499C75.4052 94.7654 75.3793 94.7743 75.3522 94.7749C75.325 94.7755 75.2985 94.7677 75.2783 94.7531V94.7531Z" fill="#F0F0F0"/>
<path d="M78.2591 96.8006L78.4093 96.9186C78.4252 96.9298 78.4455 96.936 78.4666 96.936C78.4877 96.936 78.5081 96.9298 78.5239 96.9186C79.0085 96.5745 79.4615 96.2026 79.8796 95.8057C79.8935 95.7929 79.9012 95.7765 79.9012 95.7595C79.9012 95.7425 79.8935 95.726 79.8796 95.7132L79.7294 95.5921C79.7133 95.58 79.6921 95.5732 79.6701 95.5732C79.6481 95.5732 79.6269 95.58 79.6108 95.5921C79.1761 95.911 78.7255 96.2904 78.2631 96.7018C78.2473 96.7149 78.2381 96.7323 78.2374 96.7506C78.2366 96.7689 78.2444 96.7867 78.2591 96.8006V96.8006Z" fill="#F0F0F0"/>
<path d="M77.4405 96.2587L77.6025 96.3863C77.6195 96.3995 77.6422 96.4069 77.6658 96.4069C77.6894 96.4069 77.7121 96.3995 77.729 96.3863C78.2538 96.0119 78.7451 95.608 79.1993 95.1777C79.2155 95.1646 79.2245 95.1468 79.2245 95.1283C79.2245 95.1098 79.2155 95.092 79.1993 95.0789L79.0372 94.9513C79.0203 94.9381 78.9976 94.9307 78.974 94.9307C78.9504 94.9307 78.9277 94.9381 78.9108 94.9513C78.4365 95.3053 77.9464 95.7134 77.4484 96.1599C77.4311 96.1722 77.4206 96.1895 77.4191 96.208C77.4176 96.2265 77.4253 96.2448 77.4405 96.2587V96.2587Z" fill="#F0F0F0"/>
<path d="M76.6226 95.7132L76.7965 95.8503C76.8147 95.864 76.8387 95.8716 76.8636 95.8716C76.8886 95.8716 76.9126 95.864 76.9308 95.8503C77.4953 95.4462 78.0236 95.0104 78.5118 94.5461C78.5279 94.531 78.5368 94.5118 78.5368 94.4919C78.5368 94.472 78.5279 94.4527 78.5118 94.4377L78.3379 94.3006C78.3196 94.2869 78.2956 94.2793 78.2707 94.2793C78.2458 94.2793 78.2218 94.2869 78.2035 94.3006C77.6936 94.68 77.164 95.1233 76.6226 95.6048C76.6056 95.6195 76.5962 95.6389 76.5962 95.659C76.5962 95.6791 76.6056 95.6985 76.6226 95.7132V95.7132Z" fill="#F0F0F0"/>
<path d="M75.8045 95.1711L75.9903 95.3146C75.9995 95.3224 76.0106 95.3285 76.0228 95.3327C76.035 95.3369 76.0482 95.339 76.0614 95.339C76.0747 95.339 76.0879 95.3369 76.1001 95.3327C76.1123 95.3285 76.1234 95.3224 76.1326 95.3146C76.7414 94.8795 77.3119 94.4106 77.84 93.9116C77.8581 93.8967 77.8682 93.8766 77.8682 93.8558C77.8682 93.8349 77.8581 93.8149 77.84 93.8L77.6582 93.6533C77.6384 93.6382 77.6122 93.6299 77.5851 93.6299C77.5579 93.6299 77.5317 93.6382 77.512 93.6533C76.9626 94.0614 76.3934 94.5366 75.8124 95.0532C75.7927 95.0683 75.7809 95.089 75.7795 95.1109C75.778 95.1328 75.787 95.1544 75.8045 95.1711Z" fill="#F0F0F0"/>
<path d="M70.9909 95.7454C71.2385 95.8438 71.4932 95.9301 71.7537 96.0037C72.1542 96.0897 72.565 96.1411 72.979 96.1567C73.561 96.1802 74.1359 96.2704 74.6864 96.4246C75.0492 96.5507 75.3948 96.7067 75.7179 96.8901C76.1969 97.1838 76.7459 97.3944 77.3305 97.5088C77.6309 97.5502 77.9352 97.5502 78.2316 97.5981C78.4529 97.6363 78.5083 97.6969 78.4767 97.885C78.3897 98.424 77.3502 98.5962 76.8325 98.6663C76.4822 98.7104 76.1272 98.7243 75.7733 98.7078C75.2229 98.692 74.6747 98.6441 74.133 98.5643C73.1821 98.4551 72.2681 98.1927 71.4454 97.7926C71.1452 97.651 70.9074 97.437 70.7656 97.1808C70.6238 96.9245 70.5851 96.6389 70.655 96.364C70.7027 96.189 70.7841 96.0212 70.8961 95.8665C70.9277 95.8187 70.9474 95.7677 70.9909 95.7454Z" fill="#37474F"/>
<path opacity="0.1" d="M103.464 150.751C110.608 150.292 116.311 148.538 116.201 146.834C116.092 145.129 110.212 144.12 103.068 144.58C95.9237 145.039 90.2211 146.793 90.3307 148.498C90.4402 150.202 96.3204 151.211 103.464 150.751Z" fill="black"/>
<path opacity="0.1" d="M175.743 145.017C182.887 144.558 188.59 142.803 188.48 141.099C188.371 139.395 182.49 138.386 175.346 138.845C168.202 139.305 162.5 141.059 162.609 142.763C162.719 144.468 168.599 145.477 175.743 145.017Z" fill="black"/>
</svg>
